<svg width="97" height="31" viewBox="0 0 97 31" fill="none" xmlns="http://www.w3.org/2000/svg">
<path d="M14.072 8.12C13.9653 8.33333 13.624 8.92 13.048 9.88C13.5813 10.2 13.9547 10.4027 14.168 10.488C15.2987 10.9147 16.1413 11.5653 16.696 12.44C17.272 13.2933 17.56 14.2427 17.56 15.288C17.56 16.312 17.2933 17.3253 16.76 18.328C15.4373 20.7813 13.304 22.744 10.36 24.216C9.63467 24.5787 8.92 24.76 8.216 24.76C7.192 24.76 6.24267 24.3973 5.368 23.672C5.02667 23.3947 4.62133 23.0853 4.152 22.744C4.10933 22.872 4.056 23.0213 3.992 23.192C3.94933 23.384 3.896 23.5227 3.832 23.608C3.576 23.992 3.256 24.184 2.872 24.184C2.53067 24.184 2.22133 24.0453 1.944 23.768C1.176 23.064 0.792 22.264 0.792 21.368C0.792 20.6853 0.781333 20.088 0.76 19.576C0.738667 19.064 0.717333 18.6373 0.696 18.296C0.674667 17.8693 0.653333 17.336 0.632 16.696C0.610667 16.056 0.6 15.3093 0.6 14.456C0.6 12.8347 0.685333 11.384 0.856 10.104C1.09067 8.22667 1.53867 6.46667 2.2 4.824C2.712 3.58667 3.46933 2.616 4.472 1.912C5.496 1.208 6.70133 0.791999 8.088 0.664C8.728 0.621332 9.21867 0.599998 9.56 0.599998C11.1387 0.599998 12.4613 0.941332 13.528 1.624C14.0827 1.96533 14.5093 2.41333 14.808 2.968C15.128 3.52267 15.288 4.12 15.288 4.76C15.288 5.29333 15.1707 5.82667 14.936 6.36L14.616 7C14.4667 7.34133 14.2853 7.71467 14.072 8.12ZM11.544 5.464C11.6507 5.18667 11.7467 4.728 11.832 4.088L11.928 3.384C11.288 3.10667 10.68 2.968 10.104 2.968C9.61333 2.968 9.15467 3.04267 8.728 3.192C7.81067 3.49067 7.04267 3.94933 6.424 4.568C5.82667 5.16533 5.34667 5.82667 4.984 6.552C4.64267 7.27733 4.30133 8.17333 3.96 9.24C3.704 10.072 3.576 11 3.576 12.024C3.576 12.5787 3.61867 13.3893 3.704 14.456C3.74667 14.776 3.78933 15.2987 3.832 16.024C3.85333 16.6 3.97067 17.784 4.184 19.576L4.312 20.632C4.44 20.6747 4.65333 20.7173 4.952 20.76C5.35733 20.8027 5.66667 20.888 5.88 21.016C6.072 21.1227 6.264 21.304 6.456 21.56C6.648 21.7947 6.79733 21.976 6.904 22.104C8.184 21.848 9.272 21.3253 10.168 20.536C11.0853 19.7467 11.9813 18.7227 12.856 17.464C13.5173 16.44 13.9333 15.5227 14.104 14.712C14.168 14.392 14.2 14.104 14.2 13.848C14.2 13.272 14.04 12.8347 13.72 12.536C13.4213 12.2373 13.0053 12.088 12.472 12.088C12.152 12.088 11.8533 12.1307 11.576 12.216C10.616 12.4933 9.63467 13.1013 8.632 14.04C8.12 14.488 7.608 14.712 7.096 14.712C6.776 14.712 6.44533 14.616 6.104 14.424C5.69867 14.1893 5.35733 13.9333 5.08 13.656C4.80267 13.3787 4.568 13.016 4.376 12.568L5.112 12.056C5.88 11.5013 6.46667 11.1067 6.872 10.872C8.94133 9.76267 10.4987 7.96 11.544 5.464ZM30.5163 21.368C30.3243 21.2827 30.1323 21.24 29.9403 21.24C29.7483 21.24 29.5776 21.2933 29.4283 21.4C29.3003 21.4853 29.1509 21.624 28.9803 21.816C28.7243 22.072 28.4576 22.2853 28.1803 22.456C27.9243 22.6053 27.4549 22.744 26.7723 22.872C26.4736 22.9147 26.2283 22.936 26.0363 22.936C25.1403 22.936 24.2016 22.744 23.2203 22.36C22.2603 21.9547 21.5776 21.4747 21.1723 20.92C20.7456 20.3227 20.5429 19.6827 20.5643 19C20.5856 17.976 21.0123 16.952 21.8443 15.928C22.6549 14.9467 23.3909 14.2533 24.0523 13.848C24.7349 13.4427 25.6629 13.1867 26.8363 13.08C27.0923 13.08 27.4549 13.0373 27.9243 12.952C28.4149 12.8667 28.6603 12.7493 28.6603 12.6C28.6603 12.3013 28.5216 12.0347 28.2443 11.8C27.9883 11.544 27.4549 11.416 26.6443 11.416C26.3456 11.416 25.8976 11.4373 25.3003 11.48C24.7029 11.5227 24.2869 11.544 24.0523 11.544C23.3269 11.544 22.8043 11.4267 22.4843 11.192C22.3989 11.1493 22.3563 10.9467 22.3563 10.584C22.3563 9.944 22.5803 9.53867 23.0283 9.368C23.9456 9.02667 24.8949 8.84533 25.8763 8.824C27.1136 8.824 28.2549 9.10133 29.3003 9.656C30.3669 10.1893 31.1456 10.8613 31.6363 11.672C32.1269 12.4827 32.4469 13.6027 32.5963 15.032C32.7669 16.632 32.8523 18.6693 32.8523 21.144C32.8523 21.8267 32.7563 22.2213 32.5643 22.328C32.3936 22.4347 32.2336 22.488 32.0843 22.488C31.8923 22.488 31.7109 22.4347 31.5403 22.328C31.3909 22.2 31.2203 22.0293 31.0283 21.816C30.8363 21.5813 30.6656 21.432 30.5163 21.368ZM25.4603 20.984C26.4629 20.6853 27.4443 20.2053 28.4043 19.544C28.6176 19.3947 28.8096 19.2027 28.9803 18.968C29.1509 18.7333 29.2576 18.584 29.3003 18.52C29.3429 18.456 29.3749 18.2747 29.3963 17.976C29.4389 17.656 29.4496 17.4 29.4283 17.208C29.4069 17.144 29.3643 16.9733 29.3003 16.696C29.2576 16.4187 29.1829 16.1733 29.0763 15.96C28.9696 15.7893 28.7989 15.6293 28.5642 15.48C28.3296 15.3307 28.1163 15.2667 27.9243 15.288C27.5189 15.3093 27.0816 15.4587 26.6123 15.736C26.1429 16.0133 25.7056 16.3867 25.3003 16.856C24.8949 17.3467 24.5749 17.848 24.3403 18.36C24.1269 18.8507 24.0203 19.3093 24.0203 19.736C24.0629 20.312 24.2229 20.696 24.5003 20.888C24.6496 20.9947 24.8309 21.048 25.0443 21.048C25.2149 21.048 25.3536 21.0267 25.4603 20.984ZM42.2723 12.472C42.2723 12.5147 42.2936 12.5787 42.3363 12.664C42.4003 12.7493 42.4536 12.824 42.4963 12.888L43.5203 11.416C43.9043 10.8613 44.3843 10.5307 44.9603 10.424C45.5576 10.296 46.0589 10.392 46.4643 10.712C47.4669 11.5013 48.1603 12.3867 48.5443 13.368L49.1523 14.904L50.2403 20.6C50.3469 21.1973 50.5496 21.8587 50.8483 22.584C51.0189 23.0533 51.1363 23.4053 51.2003 23.64L51.4883 24.728C50.9336 24.8987 50.4749 24.984 50.1123 24.984C48.7896 24.984 48.0003 24.3867 47.7443 23.192C47.5096 21.9973 47.2323 20.5787 46.9123 18.936L46.5923 17.272C46.0803 15.7147 45.5256 14.9467 44.9283 14.968C44.3309 14.968 43.8936 15.2027 43.6163 15.672C43.2109 16.3333 42.9763 17.048 42.9123 17.816C42.8696 18.5627 42.8483 19.5547 42.8483 20.792C42.7416 21.2613 42.5816 21.592 42.3683 21.784C42.1549 21.9547 41.8243 22.04 41.3763 22.04C40.3523 22.04 39.8083 21.5387 39.7443 20.536C39.6589 19.3413 39.6163 17.9973 39.6163 16.504C39.6163 16.0773 39.5736 15.704 39.4883 15.384C39.4029 15.064 39.2109 14.904 38.9123 14.904C38.7843 14.904 38.6136 14.9147 38.4003 14.936C38.2083 14.9573 38.0589 14.9573 37.9523 14.936C37.5683 14.8507 37.2376 14.776 36.9603 14.712C36.6829 14.648 36.4269 14.552 36.1923 14.424C35.9789 14.2747 35.8936 14.0293 35.9363 13.688C36.0003 13.3253 36.1176 12.984 36.2883 12.664C36.4376 12.4507 36.5976 12.248 36.7682 12.056C36.9603 11.8427 37.2056 11.608 37.5043 11.352C38.2936 10.6693 39.1469 10.3173 40.0643 10.296C40.7469 10.2747 41.2376 10.488 41.5363 10.936C41.8563 11.384 42.1016 11.896 42.2723 12.472ZM59.2133 12.952C59.2133 13.72 59.2453 14.2213 59.3093 14.456C59.3946 14.6907 59.5866 14.808 59.8853 14.808C60.1626 14.808 60.5999 14.744 61.1973 14.616H61.9333C63.1493 14.616 63.8959 14.8827 64.1733 15.416C64.2799 15.4587 64.3866 15.576 64.4933 15.768C64.5999 15.9387 64.6746 16.056 64.7173 16.12C64.6319 16.184 64.5039 16.2907 64.3333 16.44C64.1626 16.568 64.0026 16.6427 63.8533 16.664C63.3626 16.7707 62.6266 16.9093 61.6453 17.08C61.4533 17.1013 61.1119 17.1547 60.6213 17.24C59.8533 17.3893 59.4693 17.8373 59.4693 18.584C59.4693 18.6907 59.4906 18.8933 59.5333 19.192C59.7893 20.344 60.0026 21.3573 60.1733 22.232C60.3439 23.0853 60.4826 23.8 60.5893 24.376L61.1653 27.192C61.3786 28.216 61.4853 29.0053 61.4853 29.56C61.4853 29.9653 61.3893 30.264 61.1973 30.456C61.0053 30.6693 60.6319 30.776 60.0773 30.776C59.6079 30.776 59.2559 30.6587 59.0213 30.424C58.7866 30.1893 58.6159 29.816 58.5093 29.304C58.3173 28.3227 57.9866 26.8507 57.5173 24.888L56.4933 19.576C56.4506 18.3387 55.8426 17.72 54.6693 17.72C54.2853 17.72 54.0186 17.656 53.8693 17.528C53.7413 17.4213 53.6239 17.304 53.5173 17.176C53.4106 17.0267 53.3573 16.888 53.3573 16.76C53.3573 16.6533 53.4213 16.536 53.5493 16.408C53.6986 16.2587 53.8373 16.1733 53.9653 16.152C54.7333 16.0453 55.2453 15.832 55.5013 15.512C55.7786 15.192 55.9279 14.6907 55.9493 14.008L56.0133 11.96C56.0346 11.064 56.0666 10.1467 56.1093 9.208C56.1519 8.26933 56.2266 7.43733 56.3333 6.712C56.4186 6.09333 56.6853 5.64533 57.1333 5.368C57.5813 5.06933 58.1999 4.92 58.9893 4.92C59.3306 4.92 59.5973 4.93067 59.7893 4.952C60.2373 4.99467 60.7493 5.208 61.3253 5.592C61.9013 5.95467 62.2106 6.34933 62.2533 6.776C62.4666 7.992 62.0186 8.65333 60.9093 8.76C60.1839 8.61067 59.7573 8.696 59.6293 9.016C59.5013 9.336 59.4159 9.73067 59.3733 10.2C59.3733 10.4773 59.3519 10.872 59.3093 11.384C59.2453 11.896 59.2133 12.4187 59.2133 12.952ZM73.521 8.792C74.5023 8.792 75.3023 9.08 75.921 9.656C76.561 10.2107 76.9983 10.9573 77.233 11.896C77.361 12.408 77.4037 12.984 77.361 13.624C77.3397 13.9867 77.3183 14.4987 77.297 15.16C77.2757 15.7147 77.201 16.536 77.073 17.624C76.945 18.6907 76.8703 19.4907 76.849 20.024C76.8277 20.408 76.817 20.9733 76.817 21.72L76.849 24.312C76.4437 24.4827 76.081 24.568 75.761 24.568C75.441 24.568 75.1103 24.4613 74.769 24.248C74.5343 24.0773 74.3743 23.9707 74.289 23.928C74.225 23.8853 74.129 23.704 74.001 23.384L73.745 22.776L73.585 22.04C72.3903 22.296 71.6863 22.4453 71.473 22.488C71.1743 22.5093 70.9397 22.52 70.769 22.52C69.9797 22.52 69.2117 22.328 68.465 21.944C67.7397 21.56 67.153 21.0267 66.705 20.344C66.2783 19.6613 66.0543 18.9253 66.033 18.136C66.0117 17.3893 66.2783 16.792 66.833 16.344C68.0063 15.4053 69.1477 14.936 70.257 14.936C70.8117 14.936 71.3983 15.064 72.017 15.32C72.337 15.448 73.0197 15.736 74.065 16.184L74.193 15.288C74.321 14.52 74.385 13.9013 74.385 13.432C74.385 12.728 74.225 12.0667 73.905 11.448C73.585 11.3413 73.3503 11.3093 73.201 11.352C72.6463 11.4373 72.0917 11.5547 71.537 11.704C70.9823 11.832 70.225 11.896 69.265 11.896C69.009 11.896 68.753 11.8 68.497 11.608C68.241 11.3947 68.1237 11.16 68.145 10.904C68.209 10.5627 68.401 10.1787 68.721 9.752C68.913 9.51733 69.1797 9.37867 69.521 9.336C69.9263 9.272 70.257 9.22933 70.513 9.208C71.8357 8.93067 72.8383 8.792 73.521 8.792ZM70.801 19.896C71.313 19.7467 71.7397 19.576 72.081 19.384C72.4223 19.1707 72.721 18.8613 72.977 18.456C72.209 17.8587 71.6223 17.4427 71.217 17.208C70.8117 16.9733 70.417 16.856 70.033 16.856C69.8837 16.856 69.7023 16.888 69.489 16.952C69.2757 17.016 69.1157 17.112 69.009 17.24C68.817 17.4747 68.721 17.8053 68.721 18.232C68.721 18.616 68.7957 18.9467 68.945 19.224C69.1157 19.4587 69.329 19.64 69.585 19.768C69.841 19.896 70.1077 19.96 70.385 19.96C70.4703 19.96 70.609 19.9387 70.801 19.896ZM81.5243 19.768C81.5669 19.4693 81.5883 19.032 81.5883 18.456L81.5563 16.568L81.1723 11L81.1403 10.52C81.1403 9.38933 81.6203 8.824 82.5803 8.824C82.8149 8.824 83.0176 8.90933 83.1883 9.08C83.3803 9.25067 83.5509 9.336 83.7003 9.336C84.0203 9.336 84.2976 9.19733 84.5323 8.92C84.7883 8.62133 85.0549 8.32267 85.3323 8.024C85.7803 7.55467 86.3029 7.18133 86.9003 6.904C87.5189 6.62667 88.1376 6.488 88.7563 6.488C89.3536 6.488 89.8336 6.56267 90.1963 6.712C90.3029 6.75467 90.4203 6.85067 90.5483 7C90.6976 7.128 90.7723 7.23467 90.7723 7.32C90.7723 7.40533 90.7083 7.53333 90.5803 7.704C90.4736 7.85333 90.3776 7.93867 90.2923 7.96C89.4603 8.13067 88.7349 8.48267 88.1163 9.016C87.5189 9.54933 87.1243 10.04 86.9323 10.488C86.7616 10.9147 86.5056 11.7147 86.1643 12.888C85.9723 13.5493 85.8229 14.232 85.7163 14.936C85.6309 15.6187 85.5989 16.4933 85.6203 17.56C85.5989 17.6667 85.5883 17.816 85.5883 18.008C85.5883 18.2853 85.6096 18.6587 85.6523 19.128C85.6949 19.64 85.7163 20.0027 85.7163 20.216C85.7163 21.2827 85.5989 21.8907 85.3643 22.04C85.0229 22.2107 84.5749 22.296 84.0203 22.296C83.5723 22.296 83.2096 22.2427 82.9323 22.136C81.9723 21.7733 81.4923 21.112 81.4923 20.152C81.4923 19.9813 81.5029 19.8533 81.5243 19.768ZM94.5143 8.088C94.4716 8.216 94.3116 8.35467 94.0343 8.504C93.7783 8.65333 93.5649 8.792 93.3943 8.92L92.4983 8.44C91.6236 7.97067 91.0263 7.59733 90.7063 7.32C90.5356 7.192 90.4503 7.032 90.4503 6.84C90.4503 6.712 90.4929 6.60533 90.5783 6.52C90.6849 6.41333 90.8343 6.36 91.0263 6.36C91.8583 6.36 92.8716 6.57333 94.0663 7C94.1943 7.02133 94.3116 7.17067 94.4183 7.448C94.5249 7.704 94.5569 7.91733 94.5143 8.088ZM91.6343 14.04C91.6983 13.7627 91.7409 13.56 91.7623 13.432C91.7836 13.304 91.7943 13.1653 91.7943 13.016C91.7943 12.7173 91.8796 12.4827 92.0503 12.312C92.2423 12.1413 92.5943 12.056 93.1063 12.056C93.7036 12.056 94.2263 12.248 94.6743 12.632C95.1436 12.9947 95.4316 13.4747 95.5383 14.072C95.6023 14.3707 95.6449 14.7013 95.6663 15.064C95.6876 15.4267 95.6983 15.6613 95.6983 15.768L96.1463 21.24C96.2103 21.816 96.1249 22.264 95.8903 22.584C95.6769 22.8827 95.2609 23.032 94.6423 23.032C94.1089 23.032 93.6503 22.8827 93.2663 22.584C92.9036 22.2853 92.6796 21.9013 92.5943 21.432L91.7623 14.648L91.6343 14.04Z" fill="url(#paint0_linear_5_133)"/>
<defs>
<linearGradient id="paint0_linear_5_133" x1="-1" y1="22.2692" x2="97.4859" y2="2.6671" gradientUnits="userSpaceOnUse">
<stop stop-color="#1A73E8"/>
<stop offset="0.0001" stop-color="#00DE94"/>
<stop offset="1"/>
</linearGradient>
</defs>
</svg>
