<svg width="95" height="27" viewBox="0 0 95 27" fill="none" xmlns="http://www.w3.org/2000/svg">
<path d="M0.784 26V3.6H10.704C12.2613 3.6 13.5627 3.824 14.608 4.272C15.6747 4.69867 16.4853 5.328 17.04 6.16C17.5947 6.97067 17.872 7.96267 17.872 9.136C17.872 10.3947 17.552 11.4507 16.912 12.304C16.2933 13.1573 15.3973 13.7547 14.224 14.096L14.192 13.424C15.152 13.6587 15.9947 14.0533 16.72 14.608C17.4667 15.1413 18.0427 15.8027 18.448 16.592C18.8533 17.36 19.056 18.2347 19.056 19.216C19.056 20.3467 18.8533 21.3387 18.448 22.192C18.064 23.0453 17.5093 23.76 16.784 24.336C16.08 24.8907 15.2373 25.3067 14.256 25.584C13.296 25.8613 12.2293 26 11.056 26H0.784ZM5.968 21.424H10.832C11.728 21.424 12.4213 21.2107 12.912 20.784C13.424 20.3573 13.68 19.7493 13.68 18.96C13.68 18.4693 13.552 18.0533 13.296 17.712C13.0613 17.3707 12.72 17.1147 12.272 16.944C11.824 16.7733 11.2907 16.688 10.672 16.688H5.968V21.424ZM5.968 12.56H9.968C10.5227 12.56 10.992 12.4747 11.376 12.304C11.76 12.112 12.048 11.856 12.24 11.536C12.4533 11.1947 12.56 10.8 12.56 10.352C12.56 9.66933 12.3253 9.136 11.856 8.752C11.3867 8.368 10.6827 8.176 9.744 8.176H5.968V12.56ZM23.2215 26V3.6H38.8375V8.272H28.5655V21.328H39.1895V26H23.2215ZM25.8135 16.848V12.368H37.4295V16.848H25.8135ZM47.9105 19.44L46.5025 14.8L57.5745 3.6H64.0705L47.9105 19.44ZM43.8465 26V3.6H49.3185V26H43.8465ZM58.2465 26L49.9585 15.056L53.6385 11.888L64.6465 26H58.2465ZM85.3338 26.32C83.1151 26.32 81.2378 25.936 79.7018 25.168C78.1871 24.3787 76.8858 23.2693 75.7978 21.84L79.1258 18.096C80.1711 19.5253 81.2271 20.4853 82.2938 20.976C83.3604 21.4667 84.4591 21.712 85.5898 21.712C86.1658 21.712 86.6778 21.6373 87.1258 21.488C87.5951 21.3387 87.9578 21.1253 88.2138 20.848C88.4911 20.5493 88.6298 20.1973 88.6298 19.792C88.6298 19.472 88.5444 19.184 88.3738 18.928C88.2244 18.672 88.0111 18.448 87.7338 18.256C87.4564 18.064 87.1364 17.8933 86.7738 17.744C86.4111 17.5733 86.0058 17.4347 85.5578 17.328C85.1311 17.2213 84.6938 17.1253 84.2458 17.04C83.0084 16.784 81.9311 16.4533 81.0138 16.048C80.1178 15.6213 79.3604 15.12 78.7418 14.544C78.1444 13.9467 77.6964 13.2747 77.3978 12.528C77.0991 11.76 76.9498 10.896 76.9498 9.936C76.9498 8.57067 77.3338 7.376 78.1018 6.352C78.8911 5.328 79.9258 4.528 81.2058 3.952C82.4858 3.376 83.8724 3.088 85.3658 3.088C87.5418 3.088 89.2911 3.44 90.6138 4.144C91.9578 4.82667 93.0244 5.776 93.8138 6.992L90.4218 10.288C89.7604 9.43467 89.0031 8.79467 88.1498 8.368C87.3178 7.94133 86.4431 7.728 85.5258 7.728C84.9071 7.728 84.3631 7.80267 83.8938 7.952C83.4244 8.10133 83.0618 8.32533 82.8058 8.624C82.5711 8.90133 82.4538 9.24267 82.4538 9.648C82.4538 9.98933 82.5498 10.2987 82.7418 10.576C82.9551 10.832 83.2431 11.056 83.6058 11.248C83.9684 11.44 84.3844 11.6107 84.8538 11.76C85.3231 11.888 85.8138 11.9947 86.3258 12.08C87.4991 12.3147 88.5551 12.624 89.4938 13.008C90.4538 13.392 91.2751 13.872 91.9578 14.448C92.6404 15.0027 93.1631 15.664 93.5258 16.432C93.9098 17.1787 94.1018 18.0427 94.1018 19.024C94.1018 20.56 93.7284 21.872 92.9818 22.96C92.2351 24.048 91.2004 24.88 89.8778 25.456C88.5551 26.032 87.0404 26.32 85.3338 26.32Z" fill="black"/>
<path d="M67.3725 26V9.008H72.5245V26H67.3725ZM69.9645 5.648C68.9832 5.648 68.2152 5.424 67.6605 4.976C67.1272 4.50667 66.8605 3.84533 66.8605 2.992C66.8605 2.20267 67.1378 1.56267 67.6925 1.072C68.2472 0.581332 69.0045 0.335999 69.9645 0.335999C70.9032 0.335999 71.6392 0.570665 72.1725 1.04C72.7272 1.488 73.0045 2.13866 73.0045 2.992C73.0045 3.78133 72.7272 4.42133 72.1725 4.912C71.6392 5.40267 70.9032 5.648 69.9645 5.648Z" fill="#FF0099"/>
</svg>
