<svg width="98" height="19" viewBox="0 0 98 19" fill="none" xmlns="http://www.w3.org/2000/svg">
<path d="M4.67578 4.10156C4.67578 4.10938 4.67188 4.23047 4.66406 4.46484C4.66406 4.69922 4.66016 5.01172 4.65234 5.40234C4.65234 5.79297 4.64844 6.24609 4.64062 6.76172C4.64062 7.27734 4.63672 7.82422 4.62891 8.40234C4.62109 8.97266 4.61328 9.55859 4.60547 10.1602C4.60547 10.7617 4.60156 11.3438 4.59375 11.9062C4.59375 12.4609 4.58984 12.9805 4.58203 13.4648C4.58203 13.9492 4.58203 14.3633 4.58203 14.707V15.4102C4.69141 15.4258 4.79688 15.4336 4.89844 15.4336C5.00781 15.4336 5.11719 15.4336 5.22656 15.4336C5.55469 15.4336 5.94531 15.4023 6.39844 15.3398C6.85938 15.2773 7.35156 15.1445 7.875 14.9414C8.40625 14.7305 8.95703 14.4297 9.52734 14.0391C10.1055 13.6406 10.6719 13.1055 11.2266 12.4336C11.8906 11.6367 12.3633 10.8398 12.6445 10.043C12.9336 9.24609 13.0781 8.44922 13.0781 7.65234C13.0781 6.98047 13.0078 6.39844 12.8672 5.90625C12.7266 5.41406 12.5273 5 12.2695 4.66406C12.0195 4.32031 11.7188 4.04297 11.3672 3.83203C11.0234 3.62109 10.6406 3.45703 10.2188 3.33984C9.80469 3.22266 9.35938 3.14453 8.88281 3.10547C8.41406 3.06641 7.93359 3.04688 7.44141 3.04688C7.08984 3.04688 6.68359 3.08984 6.22266 3.17578C5.76172 3.26172 5.28516 3.37109 4.79297 3.50391C4.30859 3.63672 3.82812 3.77734 3.35156 3.92578C2.875 4.07422 2.44141 4.21484 2.05078 4.34766C1.66797 4.48047 1.34766 4.58984 1.08984 4.67578C0.832031 4.76172 0.675781 4.80469 0.621094 4.80469C0.542969 4.72656 0.476562 4.65234 0.421875 4.58203C0.375 4.52734 0.332031 4.47656 0.292969 4.42969C0.253906 4.38281 0.234375 4.35547 0.234375 4.34766C0.234375 4.33203 0.246094 4.3125 0.269531 4.28906C0.285156 4.27344 0.3125 4.25391 0.351562 4.23047C0.390625 4.20703 0.449219 4.1875 0.527344 4.17188C0.503906 4.125 0.488281 4.09375 0.480469 4.07812C0.480469 4.0625 0.480469 4.04688 0.480469 4.03125C0.480469 4.00781 0.484375 3.98438 0.492188 3.96094C0.5 3.9375 0.535156 3.91406 0.597656 3.89062C0.480469 3.83594 0.398438 3.78906 0.351562 3.75C0.304688 3.70312 0.273438 3.66797 0.257812 3.64453C0.25 3.62109 0.25 3.60547 0.257812 3.59766C0.265625 3.58984 0.269531 3.58984 0.269531 3.59766C0.269531 3.57422 0.285156 3.55859 0.316406 3.55078C0.347656 3.54297 0.371094 3.51953 0.386719 3.48047C0.386719 3.47266 0.410156 3.42188 0.457031 3.32812C0.503906 3.23438 0.601562 3.125 0.75 3C0.90625 2.875 1.125 2.74609 1.40625 2.61328C1.6875 2.48047 2.06641 2.36328 2.54297 2.26172C2.70703 2.22266 2.92969 2.17187 3.21094 2.10938C3.49219 2.03906 3.81641 1.97266 4.18359 1.91016C4.55859 1.84766 4.96484 1.79297 5.40234 1.74609C5.83984 1.69922 6.29688 1.67578 6.77344 1.67578C8.07812 1.67578 9.23438 1.87109 10.2422 2.26172C11.25 2.64453 12.0938 3.16016 12.7734 3.80859C13.4609 4.45703 13.9805 5.20703 14.332 6.05859C14.6836 6.91016 14.8594 7.80078 14.8594 8.73047C14.8594 9.27734 14.7852 9.83984 14.6367 10.418C14.4883 10.9961 14.2734 11.5664 13.9922 12.1289C13.7188 12.6914 13.3867 13.2344 12.9961 13.7578C12.6055 14.2812 12.168 14.7617 11.6836 15.1992C11.1992 15.6289 10.6758 16.0078 10.1133 16.3359C9.55859 16.6641 8.97266 16.9141 8.35547 17.0859C7.73828 17.2578 7.17578 17.3789 6.66797 17.4492C6.16797 17.5117 5.70703 17.543 5.28516 17.543C4.72266 17.543 4.26562 17.5117 3.91406 17.4492C3.5625 17.3789 3.28906 17.3047 3.09375 17.2266C2.90625 17.1406 2.77734 17.0586 2.70703 16.9805C2.64453 16.9023 2.61328 16.8516 2.61328 16.8281C2.56641 16.7812 2.54297 16.707 2.54297 16.6055C2.55078 16.418 2.57031 15.8789 2.60156 14.9883C2.61719 14.6133 2.63281 14.1406 2.64844 13.5703C2.67188 13 2.69531 12.3125 2.71875 11.5078C2.75 10.6953 2.78516 9.74609 2.82422 8.66016C2.87109 7.57422 2.92188 6.32812 2.97656 4.92188C2.97656 4.75781 3.01953 4.64453 3.10547 4.58203C3.19922 4.51953 3.3125 4.47266 3.44531 4.44141C3.57812 4.41016 3.71875 4.38281 3.86719 4.35938C4.02344 4.32812 4.16016 4.26562 4.27734 4.17188C4.32422 4.13281 4.375 4.10156 4.42969 4.07812C4.49219 4.04688 4.54297 4.03125 4.58203 4.03125C4.64453 4.03125 4.67578 4.05469 4.67578 4.10156ZM20.0039 1.62891C20.0039 3.04297 19.9766 4.48047 19.9219 5.94141C19.8672 7.39453 19.8281 8.83984 19.8047 10.2773C19.7969 10.9336 19.8008 11.5859 19.8164 12.2344C19.8398 12.875 19.8633 13.4883 19.8867 14.0742C19.918 14.6523 19.9453 15.1836 19.9688 15.668C19.9922 16.1445 20.0039 16.5469 20.0039 16.875C20.0039 17.1016 19.9961 17.2852 19.9805 17.4258C19.9648 17.5586 19.9375 17.6367 19.8984 17.6602C19.8594 17.6992 19.8242 17.7227 19.793 17.7305C19.7617 17.7383 19.7305 17.7422 19.6992 17.7422C19.668 17.7422 19.6328 17.7422 19.5938 17.7422C19.5625 17.7344 19.5234 17.7422 19.4766 17.7656C19.4219 17.7891 19.3867 17.8164 19.3711 17.8477C19.3555 17.8711 19.3398 17.8984 19.3242 17.9297C19.3086 17.9609 19.2852 17.9922 19.2539 18.0234C19.2227 18.0547 19.168 18.0859 19.0898 18.1172C18.9883 18.1406 18.8906 18.1133 18.7969 18.0352C18.7109 17.9648 18.625 17.9062 18.5391 17.8594C18.4062 17.7812 18.2969 17.7188 18.2109 17.6719C18.1328 17.6172 18.0586 17.5352 17.9883 17.4258C17.9336 17.332 17.8867 17.1914 17.8477 17.0039C17.8086 16.8086 17.7773 16.582 17.7539 16.3242C17.7305 16.0586 17.7148 15.7656 17.707 15.4453C17.6992 15.125 17.6953 14.793 17.6953 14.4492C17.6953 14.0586 17.6992 13.668 17.707 13.2773C17.7148 12.8789 17.7227 12.5 17.7305 12.1406C17.7461 11.7812 17.7578 11.457 17.7656 11.168C17.7734 10.8789 17.7812 10.6445 17.7891 10.4648C17.8047 9.90234 17.8242 9.3125 17.8477 8.69531C17.8789 8.07812 17.9062 7.46484 17.9297 6.85547C17.9609 6.23828 17.9922 5.64453 18.0234 5.07422C18.0547 4.50391 18.0859 3.98438 18.1172 3.51562C18.1484 3.03906 18.1758 2.63672 18.1992 2.30859C18.2305 1.97266 18.2617 1.73828 18.293 1.60547C18.3398 1.44141 18.4219 1.34766 18.5391 1.32422C18.5938 1.30078 18.6367 1.30469 18.668 1.33594C18.707 1.36719 18.75 1.34766 18.7969 1.27734C18.8125 1.23828 18.8359 1.21484 18.8672 1.20703C18.8984 1.19922 18.9297 1.19531 18.9609 1.19531C18.9922 1.19531 19.0234 1.19531 19.0547 1.19531C19.0859 1.19531 19.1133 1.1875 19.1367 1.17188C19.1836 1.125 19.2305 1.11719 19.2773 1.14844C19.332 1.17188 19.3711 1.19531 19.3945 1.21875C19.418 1.27344 19.4492 1.31641 19.4883 1.34766C19.5273 1.37109 19.5703 1.36328 19.6172 1.32422C19.6406 1.30078 19.6719 1.28906 19.7109 1.28906C19.7578 1.28906 19.7891 1.30859 19.8047 1.34766C19.8281 1.38672 19.8672 1.42578 19.9219 1.46484C19.9766 1.50391 20.0039 1.55859 20.0039 1.62891ZM31.3008 2.03906C31.043 2.03906 30.7109 2.08594 30.3047 2.17969C29.9062 2.27344 29.4805 2.4375 29.0273 2.67188C28.5742 2.90625 28.1211 3.21875 27.668 3.60938C27.2148 3.99219 26.8047 4.47656 26.4375 5.0625C26.0781 5.64844 25.7812 6.34375 25.5469 7.14844C25.3203 7.94531 25.207 8.875 25.207 9.9375C25.207 10.7969 25.293 11.5625 25.4648 12.2344C25.6445 12.8984 25.8828 13.4805 26.1797 13.9805C26.4766 14.4805 26.8164 14.9062 27.1992 15.2578C27.5898 15.6016 27.9961 15.8828 28.418 16.1016C28.8477 16.3125 29.2734 16.4648 29.6953 16.5586C30.125 16.6523 30.5312 16.6992 30.9141 16.6992C31 16.6992 31.082 16.6992 31.1602 16.6992C31.2461 16.6992 31.332 16.6914 31.418 16.6758C31.582 16.6289 31.7734 16.5664 31.9922 16.4883C32.2188 16.4102 32.4531 16.3047 32.6953 16.1719C32.9375 16.0391 33.1758 15.875 33.4102 15.6797C33.6445 15.4844 33.8555 15.25 34.043 14.9766C34.2383 14.6953 34.3984 14.375 34.5234 14.0156C34.6484 13.6562 34.7188 13.2422 34.7344 12.7734C34.7422 12.3438 34.6914 12.0117 34.582 11.7773C34.4805 11.5352 34.3711 11.3516 34.2539 11.2266L33.5977 11.3086C33.2539 11.3555 32.9023 11.4219 32.543 11.5078C32.1836 11.5938 31.8438 11.6797 31.5234 11.7656C31.2031 11.8516 30.9141 11.9258 30.6562 11.9883C30.3984 12.0508 30.1953 12.0781 30.0469 12.0703C29.9297 12.0625 29.8203 12.043 29.7188 12.0117C29.625 11.9883 29.5273 11.9531 29.4258 11.9062C29.332 11.8516 29.2539 11.7773 29.1914 11.6836C29.1523 11.707 29.1211 11.7188 29.0977 11.7188C29.0742 11.7188 29.0547 11.7148 29.0391 11.707C29.0156 11.6992 29 11.6836 28.9922 11.6602C28.9844 11.6367 28.9766 11.6094 28.9688 11.5781C28.9531 11.5 28.9453 11.3945 28.9453 11.2617C28.9062 11.2617 28.8633 11.2461 28.8164 11.2148C28.793 11.1992 28.7734 11.1797 28.7578 11.1562C28.7188 11.0938 28.6836 11.0312 28.6523 10.9688C28.6211 10.9062 28.625 10.8516 28.6641 10.8047C28.6797 10.7734 28.7461 10.7266 28.8633 10.6641C28.9805 10.5938 29.1797 10.5117 29.4609 10.418C29.7422 10.3242 30.1211 10.2188 30.5977 10.1016C31.082 9.97656 31.6992 9.83984 32.4492 9.69141C33.418 9.51172 34.2578 9.39062 34.9688 9.32812C35.6797 9.26562 36.2578 9.23438 36.7031 9.23438C36.9531 9.23438 37.1562 9.24219 37.3125 9.25781C37.4688 9.26562 37.5859 9.27734 37.6641 9.29297C37.8438 9.33203 37.9883 9.39062 38.0977 9.46875C38.207 9.53906 38.293 9.60547 38.3555 9.66797C38.3867 9.69922 38.418 9.73828 38.4492 9.78516C38.5039 9.85547 38.5703 9.98438 38.6484 10.1719C38.7344 10.2031 38.793 10.25 38.8242 10.3125C38.8398 10.3438 38.8438 10.3711 38.8359 10.3945C38.8203 10.4648 38.8008 10.5586 38.7773 10.6758C38.7539 10.793 38.7188 10.8516 38.6719 10.8516C38.6484 10.8594 38.5664 10.8672 38.4258 10.875C38.293 10.8828 38.1133 10.8945 37.8867 10.9102C37.6602 10.9258 37.3984 10.9453 37.1016 10.9688C36.8125 10.9844 36.5039 11.0078 36.1758 11.0391C36.332 11.2188 36.4648 11.4336 36.5742 11.6836C36.6836 11.9336 36.7578 12.207 36.7969 12.5039C36.8516 12.8867 36.8125 13.293 36.6797 13.7227C36.5547 14.1523 36.3555 14.5781 36.082 15C35.8164 15.4219 35.4805 15.8281 35.0742 16.2188C34.668 16.6016 34.2109 16.9414 33.7031 17.2383C33.2031 17.5273 32.6562 17.7578 32.0625 17.9297C31.4688 18.1016 30.8477 18.1875 30.1992 18.1875C29.8242 18.1875 29.4297 18.1602 29.0156 18.1055C28.6094 18.0508 28.1914 17.957 27.7617 17.8242C27.332 17.6836 26.8945 17.5 26.4492 17.2734C26.0117 17.0469 25.5742 16.7617 25.1367 16.418C24.3008 15.7695 23.6797 14.9336 23.2734 13.9102C22.8672 12.8789 22.6719 11.6172 22.6875 10.125C22.6875 9.49219 22.7891 8.83594 22.9922 8.15625C23.2031 7.47656 23.4961 6.8125 23.8711 6.16406C24.2539 5.50781 24.707 4.88672 25.2305 4.30078C25.7617 3.70703 26.3477 3.18359 26.9883 2.73047C27.6367 2.27734 28.332 1.91406 29.0742 1.64062C29.8242 1.35938 30.6055 1.20313 31.418 1.17188C31.6758 1.17188 31.9727 1.19141 32.3086 1.23047C32.6523 1.26953 33.0039 1.33594 33.3633 1.42969C33.7305 1.51562 34.0898 1.62891 34.4414 1.76953C34.793 1.91016 35.1133 2.08203 35.4023 2.28516C35.6992 2.48828 35.9453 2.72656 36.1406 3C36.3359 3.26562 36.457 3.57031 36.5039 3.91406C36.5586 4.3125 36.5312 4.67188 36.4219 4.99219C36.3203 5.3125 36.1758 5.58203 35.9883 5.80078C35.8086 6.01953 35.6133 6.1875 35.4023 6.30469C35.1914 6.41406 35.0078 6.46484 34.8516 6.45703C34.7422 6.52734 34.6484 6.57812 34.5703 6.60938C34.4922 6.64062 34.4219 6.66016 34.3594 6.66797C34.2891 6.68359 34.2305 6.68359 34.1836 6.66797C34.1289 6.64453 34.0859 6.61328 34.0547 6.57422C34.0234 6.53516 34 6.49219 33.9844 6.44531C33.9766 6.39062 33.9922 6.32031 34.0312 6.23438C33.8594 6.42188 33.7148 6.55859 33.5977 6.64453C33.4883 6.73047 33.3984 6.78906 33.3281 6.82031C33.2422 6.85156 33.1758 6.85938 33.1289 6.84375C33.0586 6.79688 33.043 6.75391 33.082 6.71484C33.1289 6.67578 33.2031 6.61719 33.3047 6.53906C33.4062 6.46094 33.5234 6.35547 33.6562 6.22266C33.7891 6.08203 33.9062 5.89453 34.0078 5.66016C34.0547 5.49609 34.0977 5.30859 34.1367 5.09766C34.1836 4.88672 34.207 4.66797 34.207 4.44141C34.207 4.01172 34.1289 3.64453 33.9727 3.33984C33.8164 3.03516 33.6055 2.78516 33.3398 2.58984C33.082 2.39453 32.7773 2.25391 32.4258 2.16797C32.0742 2.08203 31.6992 2.03906 31.3008 2.03906ZM53.7656 1.60547C53.8438 1.58203 53.8789 1.64453 53.8711 1.79297C53.8633 1.93359 53.8047 2.08984 53.6953 2.26172C53.5781 2.45703 53.4141 2.74219 53.2031 3.11719C53 3.48438 52.75 3.95312 52.4531 4.52344C52.1562 5.09375 51.8125 5.76953 51.4219 6.55078C51.0312 7.32422 50.5898 8.21875 50.0977 9.23438C49.707 10.0312 49.3125 10.8359 48.9141 11.6484C48.5156 12.4609 48.1328 13.25 47.7656 14.0156C47.3984 14.7812 47.0625 15.5078 46.7578 16.1953C46.4531 16.8828 46.1992 17.5 45.9961 18.0469C45.9727 18.1094 45.918 18.1484 45.832 18.1641C45.7539 18.1875 45.6953 18.1875 45.6562 18.1641C45.6328 18.1484 45.6211 18.125 45.6211 18.0938C45.6289 18.0703 45.6328 18.0469 45.6328 18.0234C45.625 17.9688 45.6133 17.9492 45.5977 17.9648C45.582 17.9727 45.5508 17.9922 45.5039 18.0234C45.4648 18.0625 45.4062 18.1016 45.3281 18.1406C45.25 18.1797 45.1445 18.2031 45.0117 18.2109C44.8555 18.2109 44.7539 18.1836 44.707 18.1289C44.668 18.0742 44.6094 17.9688 44.5312 17.8125C44.5156 17.7734 44.4414 17.5586 44.3086 17.168C44.1758 16.7773 44.0039 16.2695 43.793 15.6445C43.5898 15.0117 43.3516 14.2891 43.0781 13.4766C42.8047 12.6641 42.5156 11.8164 42.2109 10.9336C41.9141 10.043 41.6094 9.14844 41.2969 8.25C40.9844 7.34375 40.6797 6.48828 40.3828 5.68359C40.0859 4.87109 39.8086 4.13672 39.5508 3.48047C39.3008 2.82422 39.082 2.29688 38.8945 1.89844C38.8555 1.82812 38.8633 1.74609 38.918 1.65234C38.9805 1.55078 39.0586 1.48828 39.1523 1.46484C39.2148 1.44141 39.2656 1.44922 39.3047 1.48828C39.3438 1.51953 39.3828 1.53516 39.4219 1.53516C39.4531 1.53516 39.4844 1.52344 39.5156 1.5C39.5547 1.46875 39.5898 1.44141 39.6211 1.41797C39.6602 1.38672 39.6953 1.36328 39.7266 1.34766C39.7578 1.32422 39.7891 1.31641 39.8203 1.32422C39.8438 1.33203 39.8711 1.33984 39.9023 1.34766C39.957 1.36328 40.0273 1.36328 40.1133 1.34766C40.1445 1.31641 40.1836 1.28906 40.2305 1.26562L40.3242 1.21875C40.4102 1.19531 40.4844 1.1875 40.5469 1.19531C40.6172 1.20313 40.6719 1.19531 40.7109 1.17188C40.7656 1.14844 40.8086 1.125 40.8398 1.10156C40.8789 1.07031 40.9141 1.05469 40.9453 1.05469C40.9766 1.05469 41.0117 1.07812 41.0508 1.125C41.0977 1.17188 41.1602 1.26172 41.2383 1.39453C41.2773 1.48047 41.3594 1.69922 41.4844 2.05078C41.6172 2.40234 41.7773 2.84375 41.9648 3.375C42.1523 3.89844 42.3633 4.49609 42.5977 5.16797C42.832 5.83203 43.0742 6.53125 43.3242 7.26562C43.5742 7.99219 43.8242 8.73047 44.0742 9.48047C44.332 10.2227 44.5781 10.9414 44.8125 11.6367C45.0469 12.3242 45.2578 12.9648 45.4453 13.5586C45.6406 14.1445 45.8008 14.6406 45.9258 15.0469C46.0977 14.625 46.3203 14.1094 46.5938 13.5C46.875 12.8828 47.1797 12.2148 47.5078 11.4961C47.8438 10.7773 48.1953 10.0273 48.5625 9.24609C48.9297 8.46484 49.293 7.69531 49.6523 6.9375C50.0117 6.17969 50.3555 5.45703 50.6836 4.76953C51.0195 4.08203 51.3164 3.47656 51.5742 2.95312C51.832 2.42188 52.043 1.99609 52.207 1.67578C52.3711 1.34766 52.4688 1.16406 52.5 1.125C52.5703 1.01563 52.625 0.972656 52.6641 0.996094C52.7109 1.01172 52.7656 1.03125 52.8281 1.05469C52.8984 1.07812 52.9375 1.10156 52.9453 1.125C52.9531 1.14844 52.957 1.17188 52.957 1.19531C52.957 1.21094 52.9648 1.23047 52.9805 1.25391C52.9961 1.26953 53.043 1.28516 53.1211 1.30078C53.1758 1.30078 53.2148 1.3125 53.2383 1.33594C53.2617 1.35156 53.2852 1.375 53.3086 1.40625C53.3398 1.42969 53.375 1.45703 53.4141 1.48828C53.4531 1.51172 53.5156 1.52734 53.6016 1.53516C53.6328 1.54297 53.6523 1.55078 53.6602 1.55859C53.6758 1.56641 53.6836 1.57813 53.6836 1.59375C53.6914 1.60156 53.6992 1.60937 53.707 1.61719C53.7148 1.61719 53.7344 1.61328 53.7656 1.60547ZM66.7148 15.8203C66.7148 15.8516 66.6953 15.9102 66.6562 15.9961C66.6172 16.082 66.5703 16.1719 66.5156 16.2656C66.4688 16.3594 66.4141 16.4492 66.3516 16.5352C66.2969 16.6133 66.25 16.6602 66.2109 16.6758C66.1875 16.6914 66.082 16.7344 65.8945 16.8047C65.7148 16.8672 65.4727 16.9453 65.168 17.0391C64.8633 17.125 64.5039 17.2188 64.0898 17.3203C63.6836 17.4219 63.2383 17.5195 62.7539 17.6133C62.2773 17.6992 61.7656 17.7734 61.2188 17.8359C60.6797 17.8906 60.1289 17.9219 59.5664 17.9297C59.0977 17.9453 58.6602 17.9609 58.2539 17.9766C57.8477 17.9922 57.4688 18 57.1172 18C56.9219 18 56.7344 17.9961 56.5547 17.9883C56.3828 17.9805 56.2188 17.9688 56.0625 17.9531C55.8438 17.9297 55.6328 17.9023 55.4297 17.8711C55.25 17.8398 55.0625 17.8008 54.8672 17.7539C54.6797 17.707 54.5156 17.6445 54.375 17.5664C54.3359 17.5586 54.3008 17.5391 54.2695 17.5078C54.207 17.4609 54.1797 17.3945 54.1875 17.3086C54.1172 17.2695 54.0664 17.2266 54.0352 17.1797C54.0195 17.1562 54.0078 17.1406 54 17.1328C54 17.1172 54.0039 17.0977 54.0117 17.0742C54.0195 17.043 54.0547 16.9844 54.1172 16.8984C54.0625 16.8906 54.0195 16.875 53.9883 16.8516C53.9648 16.8281 53.9453 16.8008 53.9297 16.7695C53.9062 16.7383 53.8945 16.6992 53.8945 16.6523C53.8945 16.6055 53.9023 16.5586 53.918 16.5117C53.9336 16.4727 53.9531 16.4297 53.9766 16.3828C54.0078 16.3281 54.0547 16.2734 54.1172 16.2188C54.1172 16.1172 54.1289 16.043 54.1523 15.9961C54.1602 15.9648 54.1719 15.9453 54.1875 15.9375C54.1953 15.9141 54.2266 15.8906 54.2812 15.8672C54.3359 15.8438 54.3984 15.8242 54.4688 15.8086C54.5391 15.793 54.6094 15.7812 54.6797 15.7734C54.7578 15.7656 54.8242 15.7656 54.8789 15.7734L54.9023 15.7969C54.918 15.2812 54.9375 14.7227 54.9609 14.1211C54.9844 13.5195 55.0078 12.9609 55.0312 12.4453C55.0625 11.8438 55.0938 11.2461 55.125 10.6523C55.1562 9.91797 55.2031 9.14453 55.2656 8.33203C55.3203 7.63672 55.3867 6.85547 55.4648 5.98828C55.543 5.12109 55.6445 4.23828 55.7695 3.33984L54.4219 3.36328C54.3359 3.36328 54.2539 3.35156 54.1758 3.32812C54.1133 3.3125 54.0469 3.28516 53.9766 3.24609C53.9062 3.20703 53.8555 3.14844 53.8242 3.07031C53.6992 3.05469 53.6055 3.03125 53.543 3C53.4883 2.96875 53.4453 2.9375 53.4141 2.90625C53.3828 2.875 53.3672 2.83594 53.3672 2.78906C53.3828 2.70313 53.4102 2.63672 53.4492 2.58984C53.4883 2.54297 53.5664 2.48828 53.6836 2.42578C53.8164 2.37891 53.9102 2.32031 53.9648 2.25C54.0273 2.17187 54.0938 2.125 54.1641 2.10938C54.1953 2.10156 54.3789 2.06641 54.7148 2.00391C55.0508 1.93359 55.4766 1.85547 55.9922 1.76953C56.5078 1.67578 57.0859 1.58984 57.7266 1.51172C58.3672 1.42578 59.0039 1.36328 59.6367 1.32422C60.1758 1.28516 60.7109 1.26172 61.2422 1.25391C61.7812 1.24609 62.2852 1.24219 62.7539 1.24219C63.3945 1.24219 63.9336 1.25 64.3711 1.26562C64.8086 1.28125 65.0703 1.30078 65.1562 1.32422C65.2109 1.33984 65.2656 1.36719 65.3203 1.40625C65.3594 1.44531 65.4023 1.5 65.4492 1.57031C65.4961 1.63281 65.5352 1.71875 65.5664 1.82812C65.6289 1.85938 65.6719 1.89062 65.6953 1.92188C65.7266 1.94531 65.75 1.96875 65.7656 1.99219L65.8008 2.0625C65.8008 2.10938 65.8008 2.16797 65.8008 2.23828C65.8008 2.30078 65.793 2.35547 65.7773 2.40234C65.7695 2.41797 65.7539 2.43359 65.7305 2.44922C65.7148 2.46484 65.6914 2.48047 65.6602 2.49609C65.6367 2.51172 65.6055 2.52734 65.5664 2.54297C65.5742 2.65234 65.5742 2.73828 65.5664 2.80078C65.5586 2.86328 65.5469 2.91406 65.5312 2.95312C65.5156 2.99219 65.4961 3.02344 65.4727 3.04688C65.418 3.08594 65.3242 3.11719 65.1914 3.14062C65.0664 3.15625 64.832 3.16406 64.4883 3.16406L57.2344 3.31641C57.2109 3.54297 57.1875 3.8125 57.1641 4.125C57.1484 4.42969 57.1289 4.75781 57.1055 5.10938C57.0898 5.46094 57.0703 5.82031 57.0469 6.1875C57.0312 6.55469 57.0156 6.91016 57 7.25391C56.9844 7.58984 56.9688 7.90234 56.9531 8.19141C56.9375 8.48047 56.9258 8.71875 56.918 8.90625C57.2148 8.82031 57.543 8.75391 57.9023 8.70703C58.2617 8.65234 58.5977 8.60938 58.9102 8.57812C59.2773 8.54688 59.6406 8.51953 60 8.49609C60.2266 8.48047 60.4453 8.47266 60.6562 8.47266C60.8672 8.47266 61.0703 8.47266 61.2656 8.47266C62.0469 8.47266 62.6484 8.48828 63.0703 8.51953C63.5 8.55078 63.7461 8.57422 63.8086 8.58984C63.8555 8.59766 63.9062 8.62891 63.9609 8.68359C64.0156 8.73828 64.0664 8.80469 64.1133 8.88281C64.1602 8.95312 64.1992 9.03516 64.2305 9.12891C64.2695 9.21484 64.2891 9.29297 64.2891 9.36328C64.2891 9.49609 64.2539 9.63672 64.1836 9.78516C64.1133 9.93359 64.0547 10.0547 64.0078 10.1484C63.9453 10.25 63.8633 10.3477 63.7617 10.4414C63.6602 10.5352 63.5742 10.5742 63.5039 10.5586C63.4805 10.5586 63.3828 10.5547 63.2109 10.5469C63.0391 10.5391 62.8242 10.5312 62.5664 10.5234C62.3164 10.5078 62.043 10.4961 61.7461 10.4883C61.4492 10.4805 61.1602 10.4727 60.8789 10.4648C60.5977 10.457 60.3438 10.4531 60.1172 10.4531C59.8984 10.4453 59.7383 10.4414 59.6367 10.4414C59.5117 10.4414 59.3281 10.4531 59.0859 10.4766C58.8828 10.4922 58.6016 10.5195 58.2422 10.5586C57.8828 10.5977 57.4258 10.6523 56.8711 10.7227C56.8555 11.043 56.8477 11.3789 56.8477 11.7305C56.8477 12.082 56.8477 12.4531 56.8477 12.8438C56.8477 13.3828 56.8555 13.918 56.8711 14.4492C56.8867 14.9727 56.9141 15.4453 56.9531 15.8672H58.2188C58.6641 15.8672 59.1055 15.8633 59.543 15.8555C59.9805 15.8398 60.3789 15.8203 60.7383 15.7969C61.2617 15.7578 61.7578 15.7148 62.2266 15.668C62.7031 15.6211 63.1289 15.5781 63.5039 15.5391C63.8789 15.5 64.1914 15.4727 64.4414 15.457C64.6914 15.4336 64.8477 15.4258 64.9102 15.4336C64.9727 15.4492 65.0547 15.4531 65.1562 15.4453C65.2656 15.4375 65.3789 15.4258 65.4961 15.4102C65.6133 15.3945 65.7266 15.3789 65.8359 15.3633C65.9453 15.3477 66.0312 15.332 66.0938 15.3164C66.1484 15.3086 66.2109 15.3242 66.2812 15.3633C66.3516 15.3945 66.418 15.4414 66.4805 15.5039C66.543 15.5586 66.5938 15.6172 66.6328 15.6797C66.6797 15.7422 66.707 15.7891 66.7148 15.8203ZM80.7422 1.55859C80.7578 1.69922 80.7656 1.99219 80.7656 2.4375C80.7656 2.875 80.7578 3.41406 80.7422 4.05469C80.7344 4.69531 80.7188 5.41016 80.6953 6.19922C80.6797 6.98828 80.6562 7.80859 80.625 8.66016C80.5938 9.50391 80.5586 10.3555 80.5195 11.2148C80.4883 12.0664 80.4531 12.875 80.4141 13.6406C80.375 14.4062 80.332 15.1055 80.2852 15.7383C80.2383 16.3633 80.1914 16.8711 80.1445 17.2617C80.1445 17.3086 80.1211 17.3516 80.0742 17.3906C80.0352 17.4219 79.9922 17.4805 79.9453 17.5664C79.8984 17.6445 79.8516 17.6875 79.8047 17.6953C79.7578 17.7031 79.7188 17.7031 79.6875 17.6953C79.6562 17.6875 79.6328 17.6875 79.6172 17.6953C79.6016 17.7031 79.6016 17.7422 79.6172 17.8125C79.6328 17.8594 79.6055 17.8984 79.5352 17.9297C79.4727 17.9531 79.418 17.9453 79.3711 17.9062C79.3086 17.8594 79.2344 17.8047 79.1484 17.7422C79.0625 17.6719 79.0078 17.6367 78.9844 17.6367C78.9375 17.6289 78.9219 17.6484 78.9375 17.6953C78.9531 17.7422 78.9727 17.793 78.9961 17.8477C79.0273 17.9023 79.0469 17.9531 79.0547 18C79.0703 18.0547 79.0469 18.0859 78.9844 18.0938C78.8672 18.1094 78.7305 18.082 78.5742 18.0117C78.4258 17.9414 78.2852 17.8594 78.1523 17.7656C78.043 17.6797 77.8789 17.4883 77.6602 17.1914C77.4414 16.8945 77.1797 16.5195 76.875 16.0664C76.5781 15.6055 76.2461 15.082 75.8789 14.4961C75.5195 13.9102 75.1445 13.2852 74.7539 12.6211C74.3633 11.957 73.9648 11.2695 73.5586 10.5586C73.1523 9.84766 72.7578 9.14062 72.375 8.4375C71.9922 7.72656 71.625 7.03516 71.2734 6.36328C70.9219 5.69141 70.6055 5.06641 70.3242 4.48828C70.293 4.81641 70.2656 5.26562 70.2422 5.83594C70.2188 6.39844 70.1953 7.02734 70.1719 7.72266C70.1562 8.41016 70.1406 9.13672 70.125 9.90234C70.1094 10.668 70.0938 11.4219 70.0781 12.1641C70.0703 12.9062 70.0625 13.6094 70.0547 14.2734C70.0469 14.9375 70.0391 15.5078 70.0312 15.9844C70.0312 16.2969 70.0234 16.5195 70.0078 16.6523C70 16.7773 69.9883 16.8633 69.9727 16.9102C69.9648 16.957 69.9531 16.9922 69.9375 17.0156C69.9297 17.0312 69.9297 17.0859 69.9375 17.1797C69.9375 17.4297 69.9219 17.6602 69.8906 17.8711C69.8594 18.0742 69.7891 18.1875 69.6797 18.2109C69.6172 18.2422 69.5586 18.2305 69.5039 18.1758C69.4492 18.1289 69.3789 18.1172 69.293 18.1406C69.2695 18.1406 69.2383 18.1602 69.1992 18.1992C69.168 18.2461 69.1094 18.2695 69.0234 18.2695C68.9531 18.2695 68.8672 18.2383 68.7656 18.1758C68.6641 18.1133 68.5977 18 68.5664 17.8359L68.5195 17.4023C68.5117 17.3555 68.5 17.3242 68.4844 17.3086C68.4766 17.293 68.4648 17.2695 68.4492 17.2383C68.4414 17.207 68.4336 17.1562 68.4258 17.0859C68.418 17.0078 68.4102 16.8789 68.4023 16.6992C68.4023 16.6523 68.4102 16.4336 68.4258 16.043C68.4414 15.6445 68.4609 15.1328 68.4844 14.5078C68.5156 13.8828 68.5469 13.1719 68.5781 12.375C68.6172 11.5781 68.6562 10.7539 68.6953 9.90234C68.7422 9.05078 68.7852 8.20312 68.8242 7.35938C68.8711 6.51562 68.918 5.73438 68.9648 5.01562C69.0195 4.29688 69.0703 3.67188 69.1172 3.14062C69.1641 2.60156 69.207 2.21875 69.2461 1.99219C69.207 1.89844 69.1758 1.80859 69.1523 1.72266C69.1367 1.63672 69.1289 1.55859 69.1289 1.48828C69.1211 1.44141 69.125 1.41016 69.1406 1.39453C69.1641 1.37891 69.1914 1.36719 69.2227 1.35938C69.2617 1.34375 69.3008 1.32812 69.3398 1.3125C69.3789 1.29688 69.418 1.26562 69.457 1.21875C69.4727 1.19531 69.4844 1.14062 69.4922 1.05469C69.5078 0.960938 69.5352 0.914062 69.5742 0.914062C69.6836 0.914062 69.7734 0.890625 69.8438 0.84375C69.9141 0.789062 70.0117 0.753906 70.1367 0.738281C70.1367 0.605469 70.1719 0.519531 70.2422 0.480469C70.2734 0.457031 70.3086 0.449219 70.3477 0.457031C70.4805 0.472656 70.582 0.527344 70.6523 0.621094C70.7305 0.707031 70.7891 0.789062 70.8281 0.867188C70.8672 0.960938 70.8984 1.03125 70.9219 1.07812C70.9453 1.125 70.9766 1.19141 71.0156 1.27734C71.0703 1.36328 71.1758 1.54688 71.332 1.82812C71.4961 2.10938 71.6953 2.46094 71.9297 2.88281C72.1641 3.30469 72.4297 3.78125 72.7266 4.3125C73.0234 4.83594 73.332 5.39453 73.6523 5.98828C73.9805 6.57422 74.3164 7.17578 74.6602 7.79297C75.0039 8.40234 75.3398 9 75.668 9.58594C75.9961 10.1719 76.3086 10.7305 76.6055 11.2617C76.9023 11.793 77.1719 12.2734 77.4141 12.7031C77.6562 13.125 77.8594 13.4805 78.0234 13.7695C78.1875 14.0508 78.3008 14.2383 78.3633 14.332C78.5195 14.5586 78.6289 14.6875 78.6914 14.7188C78.7539 14.7422 78.8281 14.668 78.9141 14.4961C78.9531 14.418 78.9883 14.2383 79.0195 13.957C79.0586 13.668 79.0938 13.3047 79.125 12.8672C79.1641 12.4297 79.1953 11.9336 79.2188 11.3789C79.25 10.8242 79.2773 10.2422 79.3008 9.63281C79.3242 9.02344 79.3438 8.39844 79.3594 7.75781C79.375 7.11719 79.3828 6.49609 79.3828 5.89453C79.3906 5.29297 79.3906 4.72656 79.3828 4.19531C79.3828 3.66406 79.3711 3.19531 79.3477 2.78906C79.3398 2.57031 79.3359 2.375 79.3359 2.20312C79.3359 2.05469 79.3438 1.91797 79.3594 1.79297C79.375 1.66797 79.4023 1.60547 79.4414 1.60547C79.4961 1.56641 79.543 1.54297 79.582 1.53516C79.6289 1.51953 79.6641 1.51562 79.6875 1.52344C79.7188 1.52344 79.7461 1.52734 79.7695 1.53516C79.793 1.54297 79.8125 1.54297 79.8281 1.53516C79.8438 1.52734 79.8516 1.51562 79.8516 1.5C79.8516 1.48438 79.8516 1.46484 79.8516 1.44141C79.8594 1.41797 79.8711 1.39453 79.8867 1.37109C79.9023 1.33984 79.9375 1.31641 79.9922 1.30078C80.0547 1.27734 80.1016 1.26562 80.1328 1.26562C80.1719 1.25781 80.2031 1.25781 80.2266 1.26562C80.25 1.27344 80.2695 1.28125 80.2852 1.28906C80.3008 1.29688 80.3242 1.29297 80.3555 1.27734C80.418 1.24609 80.4688 1.21875 80.5078 1.19531C80.5469 1.16406 80.582 1.15234 80.6133 1.16016C80.6445 1.16797 80.668 1.20313 80.6836 1.26562C80.707 1.32031 80.7266 1.41797 80.7422 1.55859ZM97.4766 2.30859C97.4375 2.38672 97.3984 2.44922 97.3594 2.49609C97.3281 2.54297 97.3008 2.57812 97.2773 2.60156C97.2461 2.63281 97.2188 2.65234 97.1953 2.66016C97.1328 2.67578 97.0078 2.69922 96.8203 2.73047C96.6328 2.75391 96.3789 2.77344 96.0586 2.78906C95.8242 2.80469 95.5039 2.83984 95.0977 2.89453C94.6914 2.94141 94.2266 3.00391 93.7031 3.08203C93.1875 3.15234 92.625 3.22656 92.0156 3.30469C91.4062 3.38281 90.7734 3.44922 90.1172 3.50391C90.0547 4.59766 90.0078 5.71484 89.9766 6.85547C89.9531 7.99609 89.9336 9.14453 89.918 10.3008C89.9023 11.4492 89.8867 12.5977 89.8711 13.7461C89.8633 14.8867 89.8477 16.0078 89.8242 17.1094C89.8242 17.1484 89.8086 17.1875 89.7773 17.2266C89.7461 17.2578 89.7227 17.2852 89.707 17.3086C89.668 17.4648 89.5977 17.6016 89.4961 17.7188C89.3945 17.8281 89.2891 17.8828 89.1797 17.8828C88.8516 17.8828 88.5977 17.832 88.418 17.7305C88.2461 17.6289 88.0977 17.5195 87.9727 17.4023C87.918 17.332 87.8633 17.2305 87.8086 17.0977C87.7617 16.957 87.7188 16.8047 87.6797 16.6406C87.6406 16.4688 87.6055 16.2891 87.5742 16.1016C87.543 15.9062 87.5234 15.7227 87.5156 15.5508C87.5 15.3789 87.4883 15.2109 87.4805 15.0469C87.4727 14.8828 87.4688 14.7148 87.4688 14.543C87.4688 14.168 87.4805 13.8008 87.5039 13.4414C87.5273 13.082 87.5469 12.7461 87.5625 12.4336C87.5703 12.2383 87.582 11.9609 87.5977 11.6016C87.6211 11.2422 87.6484 10.832 87.6797 10.3711C87.7109 9.91016 87.7461 9.41797 87.7852 8.89453C87.8242 8.36328 87.8711 7.83203 87.9258 7.30078C87.9883 6.76953 88.0547 6.25391 88.125 5.75391C88.1953 5.24609 88.2734 4.78516 88.3594 4.37109C88.3984 4.24609 88.4336 4.125 88.4648 4.00781C88.4961 3.88281 88.5234 3.75391 88.5469 3.62109C87.8281 3.66797 87.125 3.69141 86.4375 3.69141C85.5547 3.69141 84.7148 3.64062 83.918 3.53906C83.1211 3.42969 82.4414 3.24219 81.8789 2.97656C81.8086 2.9375 81.7695 2.86719 81.7617 2.76562C81.7461 2.66406 81.7148 2.55859 81.668 2.44922C81.6055 2.36328 81.582 2.26953 81.5977 2.16797C81.6133 2.05859 81.6211 1.96875 81.6211 1.89844C81.6133 1.82812 81.6367 1.78125 81.6914 1.75781C81.7383 1.73438 81.8398 1.72656 81.9961 1.73438C82.1445 1.73438 82.3516 1.74219 82.6172 1.75781C82.8906 1.77344 83.2461 1.78125 83.6836 1.78125C84.0117 1.78125 84.3867 1.77344 84.8086 1.75781C85.2305 1.74219 85.7109 1.71484 86.25 1.67578C86.5156 1.65234 86.8984 1.61719 87.3984 1.57031C87.9062 1.51562 88.4766 1.46484 89.1094 1.41797C89.75 1.36328 90.4297 1.31641 91.1484 1.27734C91.8672 1.23828 92.5781 1.21875 93.2812 1.21875C93.5469 1.21875 93.8438 1.23437 94.1719 1.26562C94.5 1.28906 94.8242 1.32422 95.1445 1.37109C95.4727 1.41797 95.7734 1.47266 96.0469 1.53516C96.3281 1.59766 96.5586 1.66016 96.7383 1.72266C96.8555 1.76953 96.9258 1.8125 96.9492 1.85156C96.9727 1.88281 96.9805 1.91016 96.9727 1.93359C96.9727 1.95703 96.9688 1.97656 96.9609 1.99219C96.9531 2.00781 96.9727 2.02344 97.0195 2.03906C97.0664 2.05469 97.1172 2.06641 97.1719 2.07422C97.2266 2.08203 97.2773 2.09766 97.3242 2.12109C97.3711 2.13672 97.4102 2.16016 97.4414 2.19141C97.4727 2.22266 97.4844 2.26172 97.4766 2.30859Z" fill="black"/>
</svg>
