<svg width="102" height="29" viewBox="0 0 102 29" fill="none" xmlns="http://www.w3.org/2000/svg">
<path d="M20.784 13.824C20.784 12.8213 20.4213 11.904 19.696 11.072C18.9707 10.24 18.0533 9.41867 16.944 8.608C14.896 7.15733 12.56 5.856 9.936 4.704C9.63733 6.51733 9.21067 9.23733 8.656 12.864C8.50667 13.824 8.25067 15.424 7.888 17.664C7.54667 19.904 7.216 21.8987 6.896 23.648C8.816 22.88 10.48 22.176 11.888 21.536C13.296 20.8747 14.64 20.16 15.92 19.392C17.328 18.5813 18.4907 17.7387 19.408 16.864C20.3253 15.9893 20.784 14.976 20.784 13.824ZM20.784 7.648C23.0027 9.39733 24.112 11.2213 24.112 13.12C24.112 13.3973 24.08 13.696 24.016 14.016C23.76 15.3173 23.1093 16.48 22.064 17.504C21.0187 18.528 19.7067 19.5413 18.128 20.544C13.968 23.168 8.85867 25.44 2.8 27.36C2.52267 27.4453 2.24533 27.488 1.968 27.488C1.648 27.488 1.40267 27.424 1.232 27.296C1.04 27.1467 0.944 26.9653 0.944 26.752C0.944 26.5387 1.05067 26.3253 1.264 26.112C1.456 25.8773 1.744 25.6853 2.128 25.536L3.504 24.992C3.35467 24.8427 3.312 24.672 3.376 24.48L4.912 15.168C5.50933 11.2853 6.14933 7.41333 6.832 3.552L6.864 3.392C6.39467 3.17867 5.66933 2.88 4.688 2.496C4.38933 2.368 4.24 2.19733 4.24 1.984C4.24 1.664 4.528 1.33333 5.104 0.991999C5.70133 0.629332 6.256 0.447998 6.768 0.447998C6.98133 0.447998 7.13067 0.469332 7.216 0.511999C10.352 1.792 12.9547 2.944 15.024 3.968C17.1147 4.992 19.0347 6.21867 20.784 7.648ZM36.1118 15.648C36.1118 13.3867 34.7891 11.6053 32.1438 10.304C31.4824 10.8587 30.8211 11.5947 30.1598 12.512C29.3491 13.6853 28.6771 14.9973 28.1438 16.448C27.9304 17.024 27.7278 17.8133 27.5358 18.816C27.3438 19.7973 27.2478 20.7147 27.2478 21.568C27.2478 22.4427 27.3651 23.1467 27.5998 23.68C27.8558 24.192 28.2611 24.448 28.8158 24.448C29.2638 24.448 29.7864 24.2667 30.3838 23.904C32.0264 22.944 33.3918 21.7493 34.4798 20.32C35.5678 18.8907 36.1118 17.3333 36.1118 15.648ZM37.0078 9.856C37.7758 10.5813 38.3624 11.4027 38.7678 12.32C39.1944 13.2373 39.4078 14.208 39.4078 15.232C39.4078 16.704 38.9811 18.1973 38.1278 19.712C37.5518 20.736 36.7091 21.8133 35.5998 22.944C34.4904 24.0747 33.2531 25.0347 31.8878 25.824C30.5438 26.592 29.2531 26.976 28.0158 26.976C27.2478 26.976 26.5224 26.8053 25.8398 26.464C24.3891 25.6747 23.6638 24.256 23.6638 22.208C23.6638 20.736 23.9944 19.1253 24.6558 17.376C25.3171 15.6053 26.0211 14.112 26.7678 12.896C28.5811 10.016 30.4904 8.20267 32.4958 7.456C33.0504 7.24267 33.6478 7.136 34.2878 7.136C35.0344 7.136 35.6638 7.328 36.1758 7.712C36.6878 8.07467 36.9864 8.65067 37.0718 9.44V9.568C37.0718 9.632 37.0504 9.728 37.0078 9.856ZM52.603 7.296C53.4563 7.76533 53.883 8.75733 53.883 10.272C53.883 10.8267 53.8297 11.4453 53.723 12.128C53.6163 12.7893 53.499 13.4187 53.371 14.016L53.147 15.296L51.803 25.248C52.2297 25.3547 52.411 25.6213 52.347 26.048C52.1123 27.2213 51.2803 27.968 49.851 28.288L49.531 28.32C49.1683 28.32 48.8483 28.2453 48.571 28.096C48.2937 27.9467 48.1763 27.712 48.219 27.392C49.115 20.9067 49.7763 16.0427 50.203 12.8C50.2243 12.7147 50.267 12.4693 50.331 12.064C50.4163 11.6587 50.459 11.2747 50.459 10.912C50.459 10.2293 50.2777 9.87733 49.915 9.856C49.6377 9.81333 49.179 10.1973 48.539 11.008C47.9203 11.7973 47.579 12.2347 47.515 12.32C46.235 13.7707 45.0403 15.392 43.931 17.184C43.419 20.2987 43.0137 22.816 42.715 24.736L42.555 25.76C42.491 26.1653 42.1923 26.5173 41.659 26.816C41.1257 27.1147 40.603 27.264 40.091 27.264C39.771 27.264 39.515 27.2 39.323 27.072C39.1523 26.9227 39.0883 26.7093 39.131 26.432C39.6857 23.168 40.123 20.5013 40.443 18.432C40.315 18.304 40.251 18.1547 40.251 17.984C40.251 17.8773 40.283 17.76 40.347 17.632C40.411 17.5253 40.4643 17.4293 40.507 17.344C40.571 17.2587 40.6243 17.184 40.667 17.12L41.947 9.376C42.011 8.992 42.299 8.66133 42.811 8.384C43.323 8.10667 43.835 7.968 44.347 7.968C44.667 7.968 44.9123 8.032 45.083 8.16C45.2537 8.288 45.3177 8.48 45.275 8.736C45.1683 9.44 45.019 10.3467 44.827 11.456L46.171 10.016C47.067 9.12 47.9203 8.384 48.731 7.808C49.5417 7.232 50.363 6.944 51.195 6.944C51.7283 6.944 52.1977 7.06133 52.603 7.296ZM59.664 11.68C59.664 12.4907 59.8667 13.2053 60.272 13.824C60.6987 14.4427 61.2107 14.9653 61.808 15.392C62.4053 15.8187 63.216 16.32 64.24 16.896C65.6267 17.6853 66.6827 18.4 67.408 19.04C68.1547 19.68 68.6453 20.48 68.88 21.44C68.9653 21.8667 69.008 22.176 69.008 22.368C69.008 23.8613 68.2187 24.9387 66.64 25.6C65.0613 26.24 63.2693 26.56 61.264 26.56C60.4747 26.56 59.7813 26.5067 59.184 26.4C58.48 26.272 57.744 26.0267 56.976 25.664C56.2293 25.28 55.6 24.8213 55.088 24.288C54.5973 23.7333 54.352 23.168 54.352 22.592C54.352 21.696 55.0453 20.8747 56.432 20.128C56.816 19.936 57.1893 19.84 57.552 19.84C57.8933 19.84 58.1707 19.9147 58.384 20.064C58.6187 20.2133 58.736 20.3947 58.736 20.608C58.736 20.992 58.4267 21.3653 57.808 21.728C57.68 21.792 57.616 21.888 57.616 22.016C57.616 22.272 57.8187 22.5813 58.224 22.944C58.6293 23.3067 58.9493 23.552 59.184 23.68C59.824 24.0427 60.848 24.2667 62.256 24.352C62.4267 24.3733 62.7253 24.384 63.152 24.384C63.92 24.384 64.5387 24.256 65.008 24C65.4773 23.744 65.68 23.2747 65.616 22.592C65.5307 21.6747 64.6027 20.64 62.832 19.488L61.616 18.72C60.5067 18.0373 59.5893 17.44 58.864 16.928C58.16 16.3947 57.552 15.7653 57.04 15.04C56.528 14.2933 56.272 13.4613 56.272 12.544C56.272 11.968 56.3787 11.392 56.592 10.816C57.0613 9.42933 57.936 8.36267 59.216 7.616C60.496 6.848 61.872 6.464 63.344 6.464C64.8587 6.464 66.128 6.848 67.152 7.616C68.1973 8.384 68.72 9.472 68.72 10.88C68.72 11.328 68.656 11.808 68.528 12.32C68.4427 12.704 68.1227 13.0347 67.568 13.312C67.0133 13.5893 66.4907 13.728 66 13.728C65.7013 13.728 65.4667 13.664 65.296 13.536C65.1467 13.408 65.1147 13.2267 65.2 12.992C65.328 12.544 65.392 12.096 65.392 11.648C65.392 10.944 65.2107 10.3467 64.848 9.856C64.4853 9.36533 63.952 9.024 63.248 8.832C62.864 8.74667 62.576 8.704 62.384 8.704C61.616 8.704 60.9653 8.98133 60.432 9.536C59.92 10.0693 59.664 10.784 59.664 11.68ZM78.7168 9.6C77.6288 10.432 76.7434 11.776 76.0608 13.632C78.1514 12.8427 80.0394 12.1813 81.7248 11.648C81.0208 10.6667 80.3061 10.0053 79.5808 9.664C79.4314 9.6 79.2821 9.55733 79.1328 9.536C79.0048 9.51467 78.9301 9.504 78.9088 9.504C78.9301 9.52533 78.9088 9.54667 78.8448 9.568C78.8021 9.58933 78.7594 9.6 78.7168 9.6ZM78.8448 7.328C79.1861 7.24267 79.5488 7.2 79.9328 7.2C81.9808 7.2 83.8368 8.576 85.5008 11.328C85.5648 11.4133 85.5968 11.52 85.5968 11.648C85.5968 11.8827 85.4474 12.128 85.1488 12.384C84.9141 12.64 84.6154 12.8427 84.2528 12.992C82.1194 13.9307 79.1541 15.0507 75.3568 16.352C75.1434 17.44 75.0368 18.56 75.0368 19.712C75.0368 20.2453 75.0474 20.6293 75.0688 20.864C75.1114 21.824 75.3034 22.656 75.6448 23.36C75.7514 23.5947 75.9008 23.8187 76.0928 24.032C76.3061 24.2453 76.4661 24.384 76.5728 24.448C76.6368 24.4907 76.7434 24.512 76.8928 24.512C77.0421 24.512 77.2128 24.4693 77.4048 24.384C77.6181 24.2987 77.8528 24.1813 78.1088 24.032C78.7274 23.6693 79.3034 23.2533 79.8368 22.784C80.3701 22.3147 81.0101 21.7067 81.7568 20.96C82.0554 20.6613 82.5568 20.512 83.2608 20.512C83.6448 20.512 83.9648 20.576 84.2208 20.704C84.4981 20.8107 84.6368 20.9707 84.6368 21.184C84.6368 21.376 84.5301 21.5893 84.3168 21.824C82.9941 23.2533 81.6394 24.4693 80.2528 25.472C78.8661 26.4747 77.4794 26.976 76.0928 26.976C75.4314 26.976 74.8128 26.8373 74.2368 26.56C73.2768 26.112 72.5834 25.3973 72.1568 24.416C71.7301 23.4347 71.5168 22.2827 71.5168 20.96C71.5168 19.9787 71.6448 18.8267 71.9008 17.504L71.6448 17.568L71.3888 17.664C71.0688 17.7707 70.8128 17.824 70.6208 17.824C70.3221 17.824 70.0874 17.7493 69.9168 17.6C69.7461 17.4507 69.6608 17.2587 69.6608 17.024C69.6608 16.7467 69.7674 16.48 69.9808 16.224C70.2154 15.9467 70.5568 15.7227 71.0048 15.552L72.5728 14.944C72.7648 14.3467 73.0528 13.568 73.4368 12.608C74.0341 11.2853 74.7808 10.144 75.6768 9.184C76.5728 8.224 77.6288 7.60533 78.8448 7.328ZM94.4043 9.6C93.3163 10.432 92.4309 11.776 91.7483 13.632C93.8389 12.8427 95.7269 12.1813 97.4123 11.648C96.7083 10.6667 95.9936 10.0053 95.2683 9.664C95.1189 9.6 94.9696 9.55733 94.8203 9.536C94.6923 9.51467 94.6176 9.504 94.5963 9.504C94.6176 9.52533 94.5963 9.54667 94.5323 9.568C94.4896 9.58933 94.4469 9.6 94.4043 9.6ZM94.5323 7.328C94.8736 7.24267 95.2363 7.2 95.6203 7.2C97.6683 7.2 99.5243 8.576 101.188 11.328C101.252 11.4133 101.284 11.52 101.284 11.648C101.284 11.8827 101.135 12.128 100.836 12.384C100.602 12.64 100.303 12.8427 99.9403 12.992C97.8069 13.9307 94.8416 15.0507 91.0443 16.352C90.8309 17.44 90.7243 18.56 90.7243 19.712C90.7243 20.2453 90.7349 20.6293 90.7563 20.864C90.7989 21.824 90.9909 22.656 91.3323 23.36C91.4389 23.5947 91.5883 23.8187 91.7803 24.032C91.9936 24.2453 92.1536 24.384 92.2603 24.448C92.3243 24.4907 92.4309 24.512 92.5803 24.512C92.7296 24.512 92.9003 24.4693 93.0923 24.384C93.3056 24.2987 93.5403 24.1813 93.7963 24.032C94.4149 23.6693 94.9909 23.2533 95.5243 22.784C96.0576 22.3147 96.6976 21.7067 97.4443 20.96C97.7429 20.6613 98.2443 20.512 98.9483 20.512C99.3323 20.512 99.6523 20.576 99.9083 20.704C100.186 20.8107 100.324 20.9707 100.324 21.184C100.324 21.376 100.218 21.5893 100.004 21.824C98.6816 23.2533 97.3269 24.4693 95.9403 25.472C94.5536 26.4747 93.1669 26.976 91.7803 26.976C91.1189 26.976 90.5003 26.8373 89.9243 26.56C88.9643 26.112 88.2709 25.3973 87.8443 24.416C87.4176 23.4347 87.2043 22.2827 87.2043 20.96C87.2043 19.9787 87.3323 18.8267 87.5883 17.504L87.3323 17.568L87.0763 17.664C86.7563 17.7707 86.5003 17.824 86.3083 17.824C86.0096 17.824 85.7749 17.7493 85.6043 17.6C85.4336 17.4507 85.3483 17.2587 85.3483 17.024C85.3483 16.7467 85.4549 16.48 85.6683 16.224C85.9029 15.9467 86.2443 15.7227 86.6923 15.552L88.2603 14.944C88.4523 14.3467 88.7403 13.568 89.1243 12.608C89.7216 11.2853 90.4683 10.144 91.3643 9.184C92.2603 8.224 93.3163 7.60533 94.5323 7.328Z" fill="#34A853"/>
</svg>
