<svg width="99" height="26" viewBox="0 0 99 26" fill="none" xmlns="http://www.w3.org/2000/svg">
<path d="M15.8203 13.3672C15.5234 13.1328 15.375 12.8594 15.375 12.5469V12.4531C15.375 12.1406 15.5156 11.8438 15.7969 11.5625L15.6328 11.4102C15.3516 11.6914 15.0586 11.832 14.7539 11.832H13.6172C13.1406 11.832 12.75 11.9844 12.4453 12.2891L12.1992 12.043C12.5117 11.7305 12.668 11.3438 12.668 10.8828V9.14844C12.668 8.67969 12.5117 8.28906 12.1992 7.97656L12.4453 7.74219C12.7422 8.03906 13.1328 8.1875 13.6172 8.1875H20.8125C21.2969 8.1875 21.6875 8.03906 21.9844 7.74219L22.207 7.97656C21.9102 8.27344 21.7617 8.66406 21.7617 9.14844V14.0586C21.7617 14.3008 21.793 14.4961 21.8555 14.6445C21.9258 14.7852 22.0625 14.9102 22.2656 15.0195L22.0781 15.3594C21.9375 15.2891 21.7773 15.2539 21.5977 15.2539C21.4258 15.2539 21.2266 15.3281 21 15.4766C19.1875 16.6875 16.6094 17.3672 13.2656 17.5156V18.6406L13.4531 19.9414C13.4531 20.1289 13.4141 20.2734 13.3359 20.375C13.2578 20.4766 13.168 20.5273 13.0664 20.5273C12.9727 20.5273 12.8867 20.4805 12.8086 20.3867C12.7305 20.293 12.6914 20.1992 12.6914 20.1055C12.6914 20.0195 12.707 19.8984 12.7383 19.7422C12.832 19.2578 12.8789 18.7656 12.8789 18.2656C12.8789 17.7656 12.8438 17.5156 12.7734 17.5156C11.2422 17.5156 9.63281 17.4102 7.94531 17.1992C7.875 17.1758 7.83984 17.5938 7.83984 18.4531C7.83984 19.3125 7.91016 20.1992 8.05078 21.1133C8.19922 22.0273 8.27344 22.6641 8.27344 23.0234C8.27344 23.75 8.05078 24.1133 7.60547 24.1133C7.39453 24.1133 7.21094 24.0312 7.05469 23.8672C6.90625 23.7031 6.83203 23.4375 6.83203 23.0703C6.83203 22.7109 6.96094 22.0625 7.21875 21.125C7.47656 20.1953 7.60547 19.4688 7.60547 18.9453V17.1172C3.14453 16.1172 0.914062 13.4258 0.914062 9.04297C0.914062 5.70703 2.28906 3.375 5.03906 2.04688C6.625 1.27344 8.5625 0.886719 10.8516 0.886719C14.5469 0.886719 17.3828 1.60938 19.3594 3.05469C20.4297 3.83594 21.1133 4.72656 21.4102 5.72656C21.5508 6.19531 21.8008 6.55469 22.1602 6.80469L21.9844 7.03906C21.6641 6.80469 21.2422 6.6875 20.7188 6.6875L15.7734 6.85156C15.2812 6.88281 14.9492 7.07031 14.7773 7.41406L14.3906 7.22656C14.4531 7.09375 14.4844 6.94141 14.4844 6.76953C14.4844 6.59766 14.3516 6.33594 14.0859 5.98438C13.8203 5.625 13.4531 5.35547 12.9844 5.17578C12.5234 4.98828 11.9102 4.89453 11.1445 4.89453C10.3867 4.89453 9.76953 5.00391 9.29297 5.22266C8.81641 5.44141 8.4375 5.74219 8.15625 6.125C7.60938 6.89844 7.33594 7.92188 7.33594 9.19531C7.33594 10.4688 7.74219 11.5195 8.55469 12.3477C9.375 13.168 10.4453 13.5781 11.7656 13.5781C13.0859 13.5781 14.0898 13.4922 14.7773 13.3203C14.9023 13.2891 15.0234 13.2734 15.1406 13.2734C15.2578 13.2734 15.4375 13.3672 15.6797 13.5547L15.8203 13.3672ZM44.0625 20.8438L44.3203 18.418C44.3203 17.4336 43.918 16.6836 43.1133 16.168C42.3164 15.6445 41.4766 15.4141 40.5938 15.4766C39.7109 15.5312 39.0938 15.8281 38.7422 16.3672C38.5625 16.625 38.4727 16.9297 38.4727 17.2812L38.4141 20.4219C38.4141 20.8516 38.4805 21.4883 38.6133 22.332C38.7461 23.1836 38.8125 23.8242 38.8125 24.2539C38.8125 25.0117 38.5977 25.3906 38.168 25.3906C37.7383 25.3906 37.5234 25.0234 37.5234 24.2891C37.5234 23.8047 37.5938 23.1094 37.7344 22.2031C37.875 21.2969 37.9531 20.6094 37.9688 20.1406C37.9922 19.6719 38.0039 18.6719 38.0039 17.1406C38.0039 16.7344 37.8789 16.2656 37.6289 15.7344C37.3789 15.2031 36.9844 14.4727 36.4453 13.543C35.9062 12.6133 35.4648 11.793 35.1211 11.082L34.7695 10.8828C34.582 11.2266 34.25 11.3984 33.7734 11.3984L32.7891 11.4336C32.1172 11.4336 31.6133 11.2695 31.2773 10.9414L31.0312 11.1758C31.0547 11.4648 31.0664 12.082 31.0664 13.0273L31.0547 15.8984C31.0547 16.7578 31.0703 17.3906 31.1016 17.7969L31.3242 19.5195C31.3242 19.8398 31.2148 20 30.9961 20C30.7773 20 30.668 19.8516 30.668 19.5547L30.8555 18.1016C30.8555 17.75 30.75 17.4688 30.5391 17.2578C30.3359 17.0547 30.0664 16.9531 29.7305 16.9531C29.4023 16.9531 29.1094 17.0977 28.8516 17.3867C28.6016 17.6836 28.4766 18.0664 28.4766 18.5352C28.4766 19.0039 28.5625 19.6367 28.7344 20.4336C28.9062 21.2383 28.9922 21.8164 28.9922 22.168C28.9922 22.9023 28.7305 23.2695 28.207 23.2695C27.6836 23.2695 27.4219 22.9102 27.4219 22.1914C27.4219 21.8555 27.4961 21.2695 27.6445 20.4336C27.8008 19.5977 27.8789 18.9336 27.8789 18.4414C27.8789 17.9492 27.7656 17.543 27.5391 17.2227C27.3125 16.9102 27.0547 16.7539 26.7656 16.7539C26.4766 16.7539 26.2305 16.8516 26.0273 17.0469C25.8242 17.25 25.7227 17.5 25.7227 17.7969L26.0391 20.5742C26.0391 21.0508 25.8633 21.2891 25.5117 21.2891C25.1602 21.2891 24.9844 21.0469 24.9844 20.5625C24.9844 20.2812 25.0586 19.7891 25.207 19.0859C25.3555 18.3906 25.4258 17.8477 25.418 17.457C25.4102 17.0664 25.4062 12.0117 25.4062 2.29297C25.4062 1.80859 25.2578 1.42188 24.9609 1.13281L25.1953 0.898438C25.5 1.19531 25.8867 1.34375 26.3555 1.34375H36.8555C38.4961 1.34375 39.5977 1.39453 40.1602 1.49609C40.7305 1.58984 41.2266 1.69141 41.6484 1.80078C42.0781 1.91016 42.4375 2.04688 42.7266 2.21094C43.0234 2.36719 43.3203 2.56641 43.6172 2.80859C43.9219 3.04297 44.1641 3.3125 44.3438 3.61719C44.7578 4.3125 44.9648 5.05078 44.9648 5.83203C44.9648 6.61328 44.9023 7.25391 44.7773 7.75391C44.6602 8.24609 44.4609 8.71094 44.1797 9.14844C43.5703 10.0938 42.5 10.5664 40.9688 10.5664L40.875 10.8359C41.3672 11.0312 41.6953 11.3008 41.8594 11.6445C42.5469 13.1445 43.0547 14.0977 43.3828 14.5039C43.7109 14.9023 44.0156 15.2227 44.2969 15.4648C44.5781 15.707 44.9805 15.9531 45.5039 16.2031C46.0273 16.4531 46.3438 16.6172 46.4531 16.6953C46.5625 16.7656 46.6172 16.8242 46.6172 16.8711C46.6172 17.6523 46.7227 18.6562 46.9336 19.8828C47.1445 21.1094 47.25 21.8984 47.25 22.25C47.25 22.6016 47.2344 22.8555 47.2031 23.0117C47.1797 23.168 47.1211 23.3203 47.0273 23.4688C46.9336 23.625 46.7969 23.7031 46.6172 23.7031C46.4375 23.7031 46.3008 23.5742 46.207 23.3164C46.1211 23.0586 46.0781 22.7422 46.0781 22.3672C46.0781 21.9922 46.1289 21.3203 46.2305 20.3516C46.332 19.3906 46.3828 18.6641 46.3828 18.1719C46.3828 17.1953 46.0664 16.707 45.4336 16.707C45.1211 16.707 44.8867 16.7617 44.7305 16.8711C44.582 16.9805 44.5078 17.2031 44.5078 17.5391C44.5078 17.8828 44.5781 18.4258 44.7188 19.168C44.8594 19.9102 44.9297 20.4688 44.9297 20.8438C44.9297 21.2266 44.7852 21.418 44.4961 21.418C44.207 21.418 44.0625 21.2266 44.0625 20.8438ZM36.2578 5.23438L33.4922 5.31641C32.3594 5.31641 31.6211 5.14844 31.2773 4.8125L31.0312 5.03516C31.3438 5.33984 31.5 5.73047 31.5 6.20703V6.99219C31.5 7.46094 31.3438 7.85156 31.0312 8.16406L31.2773 8.39844C31.6133 8.05469 32.3086 7.88281 33.3633 7.88281L36.3281 7.98828C37.1172 7.98828 37.7266 7.88672 38.1562 7.68359C38.5938 7.47266 38.8125 7.08984 38.8125 6.53516C38.8125 6.18359 38.6914 5.91016 38.4492 5.71484C38.207 5.51172 37.9141 5.38281 37.5703 5.32812C37.2266 5.26562 36.7891 5.23438 36.2578 5.23438ZM55.0312 23.3164L55.1602 20.1992C55.1602 19.1914 55.1211 18.5547 55.043 18.2891C54.9727 18.0234 54.8984 17.7891 54.8203 17.5859C54.7422 17.3828 54.6406 17.2188 54.5156 17.0938C54.3906 16.9688 54.2422 16.8516 54.0703 16.7422C53.7422 16.5234 53.2266 16.4141 52.5234 16.4141C51.8203 16.4141 51.2266 16.6992 50.7422 17.2695C50.2656 17.8398 50.0273 18.5234 50.0273 19.3203C50.0273 19.6172 50.0859 20.0586 50.2031 20.6445C50.3203 21.2383 50.3789 21.6836 50.3789 21.9805C50.3789 22.543 50.1797 22.8242 49.7812 22.8242C49.3828 22.8242 49.1836 22.5508 49.1836 22.0039C49.1836 21.6992 49.2422 21.2422 49.3594 20.6328C49.4844 20.0234 49.5469 19.5625 49.5469 19.25L49.6289 16.1094V2.33984C49.6289 1.85547 49.4766 1.46484 49.1719 1.16797L49.4062 0.921875C49.7344 1.23438 50.125 1.39062 50.5781 1.39062H54.8203C55.2891 1.39062 55.6797 1.23438 55.9922 0.921875L56.2266 1.16797C55.9219 1.47266 55.7695 1.86328 55.7695 2.33984V16.0508C55.7695 16.457 55.7266 17.1562 55.6406 18.1484C55.5547 19.1484 55.5273 19.918 55.5586 20.457H55.5469C55.8359 21.7539 55.9805 22.7422 55.9805 23.4219C55.9805 24.1016 55.8516 24.4414 55.5938 24.4414C55.2188 24.4414 55.0312 24.0664 55.0312 23.3164ZM66.082 12.1602L65.9883 14.5508C65.9883 14.9805 66.0898 15.6172 66.293 16.4609C66.5039 17.2969 66.6094 17.9141 66.6094 18.3125C66.6094 18.7188 66.6758 19.2852 66.8086 20.0117C66.9414 20.7383 67.0078 21.3203 67.0078 21.7578C67.0078 22.2031 66.8164 22.4258 66.4336 22.4258C66.0586 22.4258 65.8711 22.207 65.8711 21.7695C65.8711 21.3398 65.9375 20.7617 66.0703 20.0352C66.2109 19.3164 66.2812 18.7773 66.2812 18.418C66.2812 18.0586 66.1562 17.7305 65.9062 17.4336C65.6562 17.1445 65.3594 17 65.0156 17C64.2344 17 63.8438 17.9492 63.8438 19.8477C63.8438 20.293 63.9023 20.9609 64.0195 21.8516C64.1367 22.7422 64.1953 23.3516 64.1953 23.6797C64.1953 24.3203 64.0039 24.6406 63.6211 24.6406C63.4258 24.6406 63.2734 24.5547 63.1641 24.3828C63.0625 24.2188 63.0117 23.9805 63.0117 23.668C63.0117 23.3555 63.0781 22.7852 63.2109 21.957C63.3516 21.1289 63.4219 20.5273 63.4219 20.1523C63.4219 19.7773 63.3984 19.4219 63.3516 19.0859C63.3125 18.7578 63.2344 18.4023 63.1172 18.0195C63.0078 17.6445 62.8281 17.3398 62.5781 17.1055C62.3359 16.8711 62.0195 16.7539 61.6289 16.7539C61.2461 16.7539 60.8984 16.9219 60.5859 17.2578C60.2812 17.5938 60.1289 17.9102 60.1289 18.207C60.1289 18.5117 60.1836 18.8281 60.293 19.1562C60.4023 19.4844 60.457 19.7383 60.457 19.918C60.457 20.2617 60.3281 20.4336 60.0703 20.4336C59.8203 20.4336 59.6953 20.2617 59.6953 19.918L59.9766 18.043L59.9648 3.125C59.9648 2.20312 59.6836 1.43359 59.1211 0.816406L59.3555 0.582031C59.9805 1.13672 60.75 1.41406 61.6641 1.41406H75.1875C76.1016 1.41406 76.8711 1.13672 77.4961 0.582031L77.7305 0.816406C77.1758 1.44141 76.8984 2.14453 76.8984 2.92578C76.8984 3.70703 76.9492 4.3125 77.0508 4.74219C77.1523 5.17188 77.3789 5.58594 77.7305 5.98438L77.4961 6.21875C77.082 5.66406 76.5664 5.38672 75.9492 5.38672H67.0547C66.6172 5.38672 66.2422 5.23828 65.9297 4.94141L65.707 5.16406C66.0039 5.47656 66.1523 5.85547 66.1523 6.30078C66.1523 6.74609 66.0039 7.125 65.707 7.4375L65.9297 7.66016C66.1875 7.41016 66.4961 7.25 66.8555 7.17969C67.2227 7.10938 67.6562 7.07422 68.1562 7.07422L72.6094 7.32031C73.3359 7.32031 73.9766 7.25781 74.5312 7.13281C75.0938 7.00781 75.5742 6.75391 75.9727 6.37109L76.207 6.60547C75.6211 7.24609 75.3281 8.13281 75.3281 9.26562C75.3281 10.3984 75.5977 11.2461 76.1367 11.8086L75.8906 12.043C75.1797 11.4102 74.0312 11.0938 72.4453 11.0938L68.0625 11.3398C66.9922 11.3398 66.2617 11.1445 65.8711 10.7539L65.6484 10.9883C65.9375 11.2852 66.082 11.6758 66.082 12.1602ZM86.7773 12.1602L86.6836 14.5508C86.6836 14.9805 86.7852 15.6172 86.9883 16.4609C87.1992 17.2969 87.3047 17.9141 87.3047 18.3125C87.3047 18.7188 87.3711 19.2852 87.5039 20.0117C87.6367 20.7383 87.7031 21.3203 87.7031 21.7578C87.7031 22.2031 87.5117 22.4258 87.1289 22.4258C86.7539 22.4258 86.5664 22.207 86.5664 21.7695C86.5664 21.3398 86.6328 20.7617 86.7656 20.0352C86.9062 19.3164 86.9766 18.7773 86.9766 18.418C86.9766 18.0586 86.8516 17.7305 86.6016 17.4336C86.3516 17.1445 86.0547 17 85.7109 17C84.9297 17 84.5391 17.9492 84.5391 19.8477C84.5391 20.293 84.5977 20.9609 84.7148 21.8516C84.832 22.7422 84.8906 23.3516 84.8906 23.6797C84.8906 24.3203 84.6992 24.6406 84.3164 24.6406C84.1211 24.6406 83.9688 24.5547 83.8594 24.3828C83.7578 24.2188 83.707 23.9805 83.707 23.668C83.707 23.3555 83.7734 22.7852 83.9062 21.957C84.0469 21.1289 84.1172 20.5273 84.1172 20.1523C84.1172 19.7773 84.0938 19.4219 84.0469 19.0859C84.0078 18.7578 83.9297 18.4023 83.8125 18.0195C83.7031 17.6445 83.5234 17.3398 83.2734 17.1055C83.0312 16.8711 82.7148 16.7539 82.3242 16.7539C81.9414 16.7539 81.5938 16.9219 81.2812 17.2578C80.9766 17.5938 80.8242 17.9102 80.8242 18.207C80.8242 18.5117 80.8789 18.8281 80.9883 19.1562C81.0977 19.4844 81.1523 19.7383 81.1523 19.918C81.1523 20.2617 81.0234 20.4336 80.7656 20.4336C80.5156 20.4336 80.3906 20.2617 80.3906 19.918L80.6719 18.043L80.6602 3.125C80.6602 2.20312 80.3789 1.43359 79.8164 0.816406L80.0508 0.582031C80.6758 1.13672 81.4453 1.41406 82.3594 1.41406H95.8828C96.7969 1.41406 97.5664 1.13672 98.1914 0.582031L98.4258 0.816406C97.8711 1.44141 97.5938 2.14453 97.5938 2.92578C97.5938 3.70703 97.6445 4.3125 97.7461 4.74219C97.8477 5.17188 98.0742 5.58594 98.4258 5.98438L98.1914 6.21875C97.7773 5.66406 97.2617 5.38672 96.6445 5.38672H87.75C87.3125 5.38672 86.9375 5.23828 86.625 4.94141L86.4023 5.16406C86.6992 5.47656 86.8477 5.85547 86.8477 6.30078C86.8477 6.74609 86.6992 7.125 86.4023 7.4375L86.625 7.66016C86.8828 7.41016 87.1914 7.25 87.5508 7.17969C87.918 7.10938 88.3516 7.07422 88.8516 7.07422L93.3047 7.32031C94.0312 7.32031 94.6719 7.25781 95.2266 7.13281C95.7891 7.00781 96.2695 6.75391 96.668 6.37109L96.9023 6.60547C96.3164 7.24609 96.0234 8.13281 96.0234 9.26562C96.0234 10.3984 96.293 11.2461 96.832 11.8086L96.5859 12.043C95.875 11.4102 94.7266 11.0938 93.1406 11.0938L88.7578 11.3398C87.6875 11.3398 86.957 11.1445 86.5664 10.7539L86.3438 10.9883C86.6328 11.2852 86.7773 11.6758 86.7773 12.1602Z" fill="url(#paint0_linear_5_135)"/>
<defs>
<linearGradient id="paint0_linear_5_135" x1="6" y1="12" x2="100" y2="4.5" gradientUnits="userSpaceOnUse">
<stop stop-color="#FF9900"/>
<stop offset="1" stop-color="#FF0000"/>
</linearGradient>
</defs>
</svg>
