<svg width="113" height="20" viewBox="0 0 113 20" fill="none" xmlns="http://www.w3.org/2000/svg">
<path d="M0.74 15V0.999999H4.16V11.98H10.4V15H0.74ZM12.607 15V4.38H15.667L15.767 6.3L15.327 6.34C15.4737 5.99333 15.6737 5.68667 15.927 5.42C16.1804 5.15333 16.4604 4.93333 16.767 4.76C17.087 4.57333 17.4204 4.43333 17.767 4.34C18.1137 4.23333 18.4604 4.18 18.807 4.18C19.3404 4.18 19.8137 4.26 20.227 4.42C20.6537 4.58 21.0204 4.84 21.327 5.2C21.647 5.56 21.9004 6.04 22.087 6.64L21.607 6.56L21.747 6.28C21.9337 5.96 22.1604 5.67333 22.427 5.42C22.707 5.15333 23.0137 4.92667 23.347 4.74C23.6804 4.55333 24.0204 4.41333 24.367 4.32C24.727 4.22667 25.0737 4.18 25.407 4.18C26.247 4.18 26.947 4.34667 27.507 4.68C28.067 5.01333 28.487 5.50667 28.767 6.16C29.047 6.8 29.187 7.59333 29.187 8.54V15H25.967V8.78C25.967 8.15333 25.8337 7.68667 25.567 7.38C25.3137 7.06 24.927 6.9 24.407 6.9C24.127 6.9 23.867 6.94667 23.627 7.04C23.4004 7.12 23.2004 7.24667 23.027 7.42C22.867 7.58 22.7404 7.76667 22.647 7.98C22.5537 8.19333 22.507 8.43333 22.507 8.7V15H19.287V8.76C19.287 8.16 19.147 7.7 18.867 7.38C18.6004 7.06 18.2204 6.9 17.727 6.9C17.4604 6.9 17.207 6.94667 16.967 7.04C16.7404 7.12 16.5404 7.24667 16.367 7.42C16.207 7.58 16.0804 7.76667 15.987 7.98C15.8937 8.19333 15.847 8.43333 15.847 8.7V15H12.607ZM31.8653 19.4V4.38H34.9253L35.0653 6.72L34.4453 6.54C34.5253 6.11333 34.7453 5.72667 35.1053 5.38C35.4786 5.02 35.9386 4.73333 36.4853 4.52C37.032 4.29333 37.612 4.18 38.2253 4.18C39.132 4.18 39.9386 4.41333 40.6453 4.88C41.352 5.34667 41.9053 6 42.3053 6.84C42.7186 7.66667 42.9253 8.62 42.9253 9.7C42.9253 10.7533 42.7186 11.6933 42.3053 12.52C41.9053 13.3467 41.3453 14 40.6253 14.48C39.9186 14.9467 39.112 15.18 38.2053 15.18C37.592 15.18 37.012 15.0667 36.4653 14.84C35.9186 14.6 35.4586 14.2933 35.0853 13.92C34.712 13.5467 34.472 13.14 34.3653 12.7L35.1053 12.4V19.4H31.8653ZM37.4253 12.46C37.9053 12.46 38.3186 12.3467 38.6653 12.12C39.0253 11.8933 39.2986 11.5733 39.4853 11.16C39.6853 10.7333 39.7853 10.2467 39.7853 9.7C39.7853 9.14 39.6853 8.65333 39.4853 8.24C39.2986 7.81333 39.0253 7.48667 38.6653 7.26C38.3186 7.02 37.9053 6.9 37.4253 6.9C36.932 6.9 36.5053 7.02 36.1453 7.26C35.7853 7.48667 35.5053 7.80667 35.3053 8.22C35.1053 8.63333 35.0053 9.12667 35.0053 9.7C35.0053 10.2467 35.1053 10.7333 35.3053 11.16C35.5053 11.5733 35.7853 11.8933 36.1453 12.12C36.5053 12.3467 36.932 12.46 37.4253 12.46Z" fill="#E23939"/>
<path d="M58.2361 15.2C57.1161 15.2 56.1028 15.02 55.1961 14.66C54.3028 14.3 53.5294 13.7933 52.8761 13.14C52.2228 12.4867 51.7228 11.72 51.3761 10.84C51.0294 9.96 50.8561 9 50.8561 7.96C50.8561 6.92 51.0428 5.96 51.4161 5.08C51.7894 4.2 52.3094 3.43333 52.9761 2.78C53.6561 2.12667 54.4561 1.62 55.3761 1.26C56.3094 0.899999 57.3294 0.719999 58.4361 0.719999C59.1961 0.719999 59.9161 0.819999 60.5961 1.02C61.2894 1.22 61.9161 1.49333 62.4761 1.84C63.0494 2.18667 63.5228 2.58 63.8961 3.02L61.7961 5.22C61.3161 4.76667 60.7961 4.41333 60.2361 4.16C59.6894 3.89333 59.0694 3.76 58.3761 3.76C57.8028 3.76 57.2694 3.86667 56.7761 4.08C56.2961 4.28 55.8694 4.57333 55.4961 4.96C55.1361 5.33333 54.8561 5.78 54.6561 6.3C54.4561 6.80667 54.3561 7.36 54.3561 7.96C54.3561 8.56 54.4628 9.11333 54.6761 9.62C54.8894 10.1267 55.1828 10.5733 55.5561 10.96C55.9428 11.3333 56.3894 11.6267 56.8961 11.84C57.4028 12.0533 57.9494 12.16 58.5361 12.16C58.9494 12.16 59.3294 12.1 59.6761 11.98C60.0361 11.8467 60.3494 11.6733 60.6161 11.46C60.8961 11.2333 61.1094 10.9733 61.2561 10.68C61.4161 10.3733 61.4961 10.0467 61.4961 9.7V9.18L61.9361 9.86H58.1161V7.16H64.6961C64.7228 7.30667 64.7428 7.50667 64.7561 7.76C64.7694 8.01333 64.7761 8.26 64.7761 8.5C64.7894 8.72667 64.7961 8.90667 64.7961 9.04C64.7961 9.94667 64.6294 10.78 64.2961 11.54C63.9761 12.2867 63.5161 12.9333 62.9161 13.48C62.3294 14.0267 61.6361 14.4533 60.8361 14.76C60.0361 15.0533 59.1694 15.2 58.2361 15.2ZM67.0411 15V4.38H70.1011L70.2411 7.84L69.6411 7.16C69.8144 6.6 70.0811 6.09333 70.4411 5.64C70.8011 5.18667 71.2278 4.82667 71.7211 4.56C72.2278 4.29333 72.7544 4.16 73.3011 4.16C73.5411 4.16 73.7611 4.18 73.9611 4.22C74.1744 4.24667 74.3611 4.29333 74.5211 4.36L73.6611 7.9C73.5144 7.82 73.3144 7.75333 73.0611 7.7C72.8211 7.63333 72.5678 7.6 72.3011 7.6C72.0078 7.6 71.7344 7.65333 71.4811 7.76C71.2411 7.85333 71.0278 7.99333 70.8411 8.18C70.6678 8.36667 70.5278 8.58667 70.4211 8.84C70.3278 9.09333 70.2811 9.38 70.2811 9.7V15H67.0411ZM80.693 15.2C79.5996 15.2 78.6196 14.9667 77.753 14.5C76.8863 14.02 76.2063 13.3667 75.713 12.54C75.2196 11.7 74.973 10.7533 74.973 9.7C74.973 8.62 75.2196 7.66667 75.713 6.84C76.2063 6 76.8863 5.34667 77.753 4.88C78.6196 4.4 79.5996 4.16 80.693 4.16C81.7996 4.16 82.7796 4.4 83.633 4.88C84.4996 5.34667 85.1796 6 85.673 6.84C86.1663 7.66667 86.413 8.62 86.413 9.7C86.413 10.7533 86.1663 11.7 85.673 12.54C85.1796 13.3667 84.4996 14.02 83.633 14.5C82.7796 14.9667 81.7996 15.2 80.693 15.2ZM80.693 12.44C81.173 12.44 81.593 12.32 81.953 12.08C82.3263 11.84 82.6196 11.5133 82.833 11.1C83.0463 10.6867 83.1463 10.22 83.133 9.7C83.1463 9.15333 83.0463 8.67333 82.833 8.26C82.6196 7.83333 82.3263 7.50667 81.953 7.28C81.593 7.04 81.173 6.92 80.693 6.92C80.2263 6.92 79.8063 7.04 79.433 7.28C79.0596 7.52 78.7663 7.84667 78.553 8.26C78.3396 8.67333 78.233 9.15333 78.233 9.7C78.233 10.22 78.3396 10.6867 78.553 11.1C78.7663 11.5133 79.0596 11.84 79.433 12.08C79.8063 12.32 80.2263 12.44 80.693 12.44ZM92.1259 15.2C91.3526 15.2 90.6859 15.0333 90.1259 14.7C89.5659 14.3533 89.1326 13.8667 88.8259 13.24C88.5326 12.6 88.3859 11.8333 88.3859 10.94V4.38H91.6059V10.46C91.6059 11.1133 91.7593 11.6267 92.0659 12C92.3859 12.36 92.8259 12.54 93.3859 12.54C93.6659 12.54 93.9193 12.5 94.1459 12.42C94.3726 12.3267 94.5659 12.2 94.7259 12.04C94.8993 11.8667 95.0326 11.6667 95.1259 11.44C95.2193 11.2133 95.2659 10.9667 95.2659 10.7V4.38H98.4859V15H95.4659L95.3459 12.82L95.9259 12.58C95.7793 13.0733 95.5126 13.52 95.1259 13.92C94.7526 14.32 94.3059 14.6333 93.7859 14.86C93.2659 15.0867 92.7126 15.2 92.1259 15.2ZM101.358 19.4V4.38H104.418L104.558 6.72L103.938 6.54C104.018 6.11333 104.238 5.72667 104.598 5.38C104.971 5.02 105.431 4.73333 105.978 4.52C106.524 4.29333 107.104 4.18 107.718 4.18C108.624 4.18 109.431 4.41333 110.138 4.88C110.844 5.34667 111.398 6 111.798 6.84C112.211 7.66667 112.418 8.62 112.418 9.7C112.418 10.7533 112.211 11.6933 111.798 12.52C111.398 13.3467 110.838 14 110.118 14.48C109.411 14.9467 108.604 15.18 107.698 15.18C107.084 15.18 106.504 15.0667 105.958 14.84C105.411 14.6 104.951 14.2933 104.578 13.92C104.204 13.5467 103.964 13.14 103.858 12.7L104.598 12.4V19.4H101.358ZM106.918 12.46C107.398 12.46 107.811 12.3467 108.158 12.12C108.518 11.8933 108.791 11.5733 108.978 11.16C109.178 10.7333 109.278 10.2467 109.278 9.7C109.278 9.14 109.178 8.65333 108.978 8.24C108.791 7.81333 108.518 7.48667 108.158 7.26C107.811 7.02 107.398 6.9 106.918 6.9C106.424 6.9 105.998 7.02 105.638 7.26C105.278 7.48667 104.998 7.80667 104.798 8.22C104.598 8.63333 104.498 9.12667 104.498 9.7C104.498 10.2467 104.598 10.7333 104.798 11.16C104.998 11.5733 105.278 11.8933 105.638 12.12C105.998 12.3467 106.424 12.46 106.918 12.46Z" fill="#FBBC04"/>
</svg>
