<svg width="95" height="27" viewBox="0 0 95 27" fill="none" xmlns="http://www.w3.org/2000/svg">
<path d="M10.256 26.192C8.4 26.192 6.74667 25.8187 5.296 25.072C3.86667 24.304 2.736 23.2587 1.904 21.936C1.072 20.592 0.656 19.0773 0.656 17.392V3.568H6.16V17.104C6.16 17.9147 6.34133 18.64 6.704 19.28C7.06667 19.92 7.55733 20.432 8.176 20.816C8.816 21.1787 9.50933 21.36 10.256 21.36C11.0453 21.36 11.76 21.1787 12.4 20.816C13.04 20.432 13.5413 19.92 13.904 19.28C14.288 18.64 14.48 17.9147 14.48 17.104V3.568H19.792V17.392C19.792 19.0773 19.376 20.592 18.544 21.936C17.7333 23.2587 16.6133 24.304 15.184 25.072C13.7547 25.8187 12.112 26.192 10.256 26.192ZM25.2215 26V3.6H34.9175C36.3255 3.6 37.5842 3.92 38.6935 4.56C39.8028 5.2 40.6775 6.07467 41.3175 7.184C41.9575 8.272 42.2775 9.52 42.2775 10.928C42.2775 12.3573 41.9575 13.648 41.3175 14.8C40.6775 15.952 39.8028 16.8587 38.6935 17.52C37.5842 18.1813 36.3255 18.512 34.9175 18.512H30.6935V26H25.2215ZM30.6295 13.68H34.1815C34.6508 13.68 35.0668 13.5733 35.4295 13.36C35.8135 13.1253 36.1228 12.8053 36.3575 12.4C36.5922 11.9947 36.7095 11.536 36.7095 11.024C36.7095 10.4907 36.5922 10.032 36.3575 9.648C36.1228 9.264 35.8135 8.96533 35.4295 8.752C35.0668 8.53867 34.6508 8.432 34.1815 8.432H30.6295V13.68Z" fill="#4285F4"/>
<path d="M45.897 26V2.32H51.049V26H45.897ZM55.9038 26V9.008H61.0558V26H55.9038ZM58.4958 5.648C57.5144 5.648 56.7464 5.424 56.1918 4.976C55.6584 4.50667 55.3918 3.84533 55.3918 2.992C55.3918 2.20267 55.6691 1.56267 56.2238 1.072C56.7784 0.581332 57.5358 0.335999 58.4958 0.335999C59.4344 0.335999 60.1704 0.570665 60.7038 1.04C61.2584 1.488 61.5358 2.13866 61.5358 2.992C61.5358 3.78133 61.2584 4.42133 60.7038 4.912C60.1704 5.40267 59.4344 5.648 58.4958 5.648ZM67.305 26V4.72H72.457V26H67.305ZM64.297 13.52V9.008H75.721V13.52H64.297ZM86.618 26.32C84.7407 26.32 83.098 25.9467 81.69 25.2C80.3033 24.4533 79.226 23.4293 78.458 22.128C77.7113 20.8053 77.338 19.3013 77.338 17.616C77.338 16.2933 77.5513 15.088 77.978 14C78.4047 12.8907 79.002 11.9413 79.77 11.152C80.5593 10.3627 81.4767 9.75467 82.522 9.328C83.5887 8.88 84.7513 8.656 86.01 8.656C87.2047 8.656 88.2927 8.86933 89.274 9.296C90.2553 9.72267 91.1087 10.32 91.834 11.088C92.5593 11.856 93.114 12.7627 93.498 13.808C93.882 14.8533 94.0633 15.9947 94.042 17.232L94.01 18.64H80.506L79.738 15.728H89.818L89.274 16.304V15.664C89.2313 15.1307 89.0607 14.672 88.762 14.288C88.4847 13.8827 88.1113 13.5627 87.642 13.328C87.194 13.0933 86.682 12.976 86.106 12.976C85.2527 12.976 84.5273 13.1467 83.93 13.488C83.354 13.808 82.9167 14.2773 82.618 14.896C82.3193 15.5147 82.17 16.2827 82.17 17.2C82.17 18.1173 82.362 18.928 82.746 19.632C83.1513 20.336 83.7273 20.88 84.474 21.264C85.242 21.648 86.1487 21.84 87.194 21.84C87.898 21.84 88.538 21.7333 89.114 21.52C89.69 21.3067 90.3087 20.944 90.97 20.432L93.37 23.824C92.7087 24.3787 92.0047 24.848 91.258 25.232C90.5113 25.5947 89.7433 25.8613 88.954 26.032C88.186 26.224 87.4073 26.32 86.618 26.32Z" fill="black"/>
</svg>
