<svg width="623" height="634" viewBox="0 0 623 634" fill="none" xmlns="http://www.w3.org/2000/svg">
<g clip-path="url(#clip0_64_1290)">
<path d="M523.038 81.087C485.475 88.9126 453.825 95.2601 452.608 95.347H450.434L423.566 282.988L396.35 310.726C371.569 335.854 369.048 338.202 368.004 336.724C367.482 335.854 365.83 333.246 364.352 331.072C362.961 328.898 361.396 327.072 360.874 327.159C358.787 327.246 344.092 348.375 342.614 353.332C342.18 354.984 342.527 355.332 345.831 356.288C347.918 356.81 350.788 357.331 352.179 357.418C353.657 357.505 356.353 357.766 358.266 357.853L361.744 358.114L357.396 359.244C355.048 359.853 351.918 360.462 350.527 360.462C348.44 360.549 348.179 360.375 349.136 359.244C350.701 357.418 349.136 357.592 347.049 359.592C345.571 360.896 342.788 361.331 331.311 362.201C323.659 362.722 316.79 363.157 316.007 363.157C315.051 363.157 314.355 361.592 313.573 357.245C311.747 346.984 309.138 337.593 307.834 336.289C306.79 335.246 306.182 335.159 304.53 336.115C301.921 337.507 287.487 350.462 284.357 354.288C282.183 356.897 282.096 357.331 283.227 358.549C284.009 359.244 287.661 360.983 291.4 362.288C298.965 364.983 299.052 364.809 287.835 366.635C271.836 369.244 254.185 375.07 243.577 381.156L237.577 384.547L232.273 374.113C226.013 361.766 222.447 356.201 220.795 356.201C219.23 356.201 211.057 367.94 206.361 376.809C203.492 382.286 202.883 384.199 203.666 384.982C204.709 386.025 227.925 387.677 230.969 386.895C234.012 386.112 232.708 387.156 225.404 391.677C198.101 408.372 179.754 429.327 173.233 451.587C172.45 454.108 172.016 456.195 172.19 456.195C173.842 456.195 192.623 446.022 192.623 445.065C192.623 442.283 196.623 432.37 201.057 424.284C204.883 417.241 207.405 413.85 213.405 408.024C221.056 400.459 235.838 388.373 237.403 388.373C237.925 388.373 238.794 389.677 239.403 391.156C240.881 395.242 250.446 411.937 252.533 414.198C253.576 415.241 254.88 415.937 255.489 415.676C258.098 414.719 271.749 391.851 271.749 388.634C271.749 386.199 270.01 385.851 256.706 385.678C250.62 385.591 245.924 385.156 246.272 384.895C247.055 384.199 260.967 380.287 267.401 378.895C279.401 376.287 313.659 372.548 314.79 373.678C314.964 373.939 315.833 377.156 316.703 380.982L318.181 387.764L313.312 392.199C310.616 394.634 300.617 403.677 291.139 412.285C205.057 490.541 122.975 552.885 44.3711 599.839C-41.1021 650.966 -145.444 696.268 -250.829 728.179C-325.607 750.786 -416.123 771.046 -475.163 778.35C-481.598 779.132 -487.684 780.176 -488.641 780.611C-493.945 783.045 -439.339 774.698 -403.428 767.568C-237.003 734.613 -79.0128 675.573 48.7187 598.621C128.801 550.277 217.665 482.02 302.095 404.024C308.008 398.546 314.181 392.895 315.746 391.59L318.616 389.156L319.224 391.59C320.094 395.503 322.355 401.416 323.224 401.938C324.528 402.72 328.267 399.851 338.093 390.286C343.223 385.243 347.397 380.461 347.397 379.678C347.397 378.287 342.875 375.765 337.049 374.026C334.006 373.07 335.832 372.113 343.484 370.548C352.179 368.722 362.091 365.592 370.96 361.853C375.482 359.94 377.83 359.331 377.83 360.027C377.83 361.592 386.09 378.374 389.307 383.33C390.698 385.678 392.437 387.504 393.046 387.504C393.655 387.504 395.307 386.199 396.698 384.634C399.828 381.069 408.697 367.07 410.436 362.896C411.741 359.679 411.741 359.679 409.393 358.723C408.002 358.201 401.393 357.592 394.524 357.331L382.09 356.81L390.177 352.549C399.48 347.593 403.828 344.984 415.219 336.985C422.088 332.203 614.946 213.427 621.12 210.21C622.598 209.427 622.945 208.645 622.511 207.688C622.076 206.558 608.512 142.127 594.078 72.3919C593.469 69.5225 592.599 67.0878 592.165 67.0009C591.643 66.9139 560.601 73.2614 523.038 81.087ZM420.436 304.552C418.958 315.073 417.566 324.638 417.305 325.855C416.61 329.594 395.481 345.767 385.655 350.115C381.308 352.027 377.308 353.593 376.699 353.593C376.091 353.506 374.265 350.462 372.526 346.81L369.395 340.115L395.568 313.334C410.002 298.552 421.914 286.118 422.088 285.684C422.175 285.162 422.523 284.988 422.783 285.162C422.957 285.423 421.914 294.118 420.436 304.552Z" fill="url(#paint0_linear_64_1290)"/>
<path d="M468.631 186.468C465.777 184.617 464.068 182.372 463.505 179.732C463.056 177.068 463.802 174.239 465.743 171.245C467.549 168.46 469.817 166.717 472.546 166.014C475.391 165.287 478.171 165.804 480.886 167.564C483.741 169.415 485.427 171.695 485.945 174.404C486.509 177.044 485.797 179.895 483.811 182.959C482.006 185.744 479.668 187.442 476.799 188.055C474 188.712 471.277 188.183 468.631 186.468Z" fill="#17231F"/>
<path d="M503.091 207.176L515.858 136.689L534.344 148.673L522.971 193L558.26 164.178L576.641 176.094L516.25 215.707L503.091 207.176Z" fill="#17231F"/>
<path d="M242.515 153.974C233.3 162.206 225.495 169.073 225.17 169.293L224.564 169.643L247.291 226.313L244.168 238.432C241.304 249.432 240.979 250.493 240.45 250.249C240.164 250.09 239.283 249.629 238.521 249.26C237.783 248.878 237.052 248.621 236.921 248.729C236.353 249.089 235.657 257.349 236.043 258.97C236.188 259.501 236.341 259.542 237.417 259.277C238.083 259.086 238.967 258.77 239.369 258.57C239.795 258.356 240.589 257.995 241.137 257.711L242.149 257.224L241.118 258.239C240.561 258.787 239.787 259.461 239.399 259.685C238.831 260.045 238.73 260.039 238.814 259.569C238.957 258.808 238.548 259.108 238.288 260.002C238.086 260.604 237.38 261.173 234.319 263.264C232.269 264.642 230.424 265.869 230.205 265.995C229.939 266.149 229.493 265.824 228.574 264.738C226.412 262.169 224.173 259.97 223.599 259.816C223.14 259.693 222.956 259.767 222.649 260.3C222.146 261.108 220.207 267.046 219.95 268.617C219.764 269.695 219.81 269.83 220.321 269.988C220.651 270.056 221.95 269.953 223.203 269.715C225.747 269.248 225.743 269.186 222.909 271.501C218.867 274.805 214.882 279.272 212.904 282.678L211.777 284.59L208.617 282.534C204.883 280.097 202.992 279.119 202.532 279.385C202.095 279.637 201.706 284.228 201.825 287.458C201.907 289.448 202.045 290.08 202.39 290.172C202.849 290.295 209.59 287.018 210.312 286.309C211.035 285.601 210.839 286.102 209.53 288.539C204.605 297.593 202.863 306.392 204.629 313.652C204.817 314.481 205.032 315.133 205.081 315.105C205.541 314.839 209.141 308.977 208.987 308.711C208.539 307.934 208.058 304.525 207.992 301.555C207.925 298.975 208.082 297.623 208.817 295.032C209.732 291.689 211.908 285.938 212.345 285.686C212.49 285.602 212.943 285.825 213.351 286.14C214.421 287.042 219.777 290.159 220.723 290.453C221.182 290.576 221.658 290.56 221.786 290.39C222.359 289.703 222.484 281.126 221.965 280.228C221.573 279.549 221.032 279.732 217.294 281.826C215.583 282.781 214.203 283.416 214.258 283.287C214.364 282.967 217.614 279.636 219.185 278.212C222.111 275.552 231.063 268.993 231.56 269.126C231.651 269.171 232.412 269.928 233.27 270.855L234.775 272.509L234.131 274.53C233.771 275.643 232.439 279.776 231.182 283.703C219.779 319.394 206.927 350.002 192.568 375.756C176.965 403.781 155.161 433.219 130.91 459.09C113.696 477.437 91.7146 497.663 76.4253 509.207C74.7569 510.461 73.2275 511.732 73.0307 512.008C71.9436 513.541 85.8281 502.42 94.6949 494.649C135.802 458.659 170.355 416.75 193.584 374.717C208.132 348.336 221.922 314.987 232.907 279.635C233.674 277.155 234.486 274.584 234.712 273.968L235.12 272.827L235.682 273.408C236.555 274.36 238.137 275.645 238.464 275.651C238.954 275.659 239.534 274.257 240.734 270.006C241.353 267.774 241.746 265.768 241.62 265.549C241.396 265.161 239.729 265.186 237.824 265.639C236.822 265.862 237.177 265.301 239.059 263.632C241.19 261.723 243.45 259.254 245.321 256.783C246.274 255.521 246.831 254.973 246.943 255.167C247.195 255.604 252.202 258.955 253.897 259.82C254.663 260.251 255.442 260.48 255.612 260.382C255.782 260.284 256.032 259.654 256.168 258.993C256.467 257.495 256.686 252.162 256.499 250.717C256.344 249.61 256.344 249.61 255.536 249.721C255.064 249.8 253.123 250.694 251.165 251.727L247.613 253.584L249.182 251.093C250.979 248.213 251.771 246.785 253.659 242.719C254.805 240.279 289.462 176.093 290.665 174.201C290.951 173.745 290.922 173.471 290.647 173.274C290.344 173.028 276.184 157.239 260.927 140.11C260.295 139.408 259.661 138.869 259.525 138.915C259.366 138.974 251.731 145.743 242.515 153.974ZM249.891 232.832C251.173 236.005 252.325 238.897 252.449 239.279C252.857 240.434 249.569 248.347 247.529 251.142C246.625 252.376 245.761 253.456 245.591 253.554C245.408 253.628 244.408 253.073 243.335 252.334L241.384 250.971L244.37 239.286C246.015 232.838 247.334 227.452 247.313 227.302C247.253 227.143 247.322 227.038 247.423 227.045C247.513 227.09 248.623 229.683 249.891 232.832Z" fill="url(#paint1_linear_64_1290)"/>
<path d="M244.314 192.131C243.22 192.075 242.382 191.724 241.799 191.078C241.245 190.407 240.998 189.498 241.057 188.35C241.112 187.282 241.464 186.431 242.112 185.795C242.788 185.135 243.647 184.831 244.687 184.885C245.782 184.942 246.619 185.306 247.2 185.978C247.782 186.624 248.043 187.534 247.982 188.708C247.927 189.776 247.549 190.626 246.847 191.259C246.173 191.893 245.328 192.184 244.314 192.131Z" fill="#17231F"/>
<path d="M257.26 192.36L249.468 170.641L256.553 171.008L260.521 185.204L265.721 171.482L272.766 171.846L262.303 192.621L257.26 192.36Z" fill="#17231F"/>
<path d="M549.336 360.354C540.416 362.217 532.9 363.728 532.61 363.749H532.094L525.714 408.423L519.251 415.026C513.366 421.009 512.767 421.568 512.519 421.216C512.395 421.009 512.003 420.388 511.652 419.871C511.321 419.353 510.95 418.918 510.826 418.939C510.33 418.96 506.841 423.99 506.49 425.17C506.386 425.564 506.469 425.646 507.254 425.874C507.749 425.998 508.431 426.122 508.761 426.143C509.112 426.164 509.752 426.226 510.206 426.247L511.032 426.309L510 426.578C509.442 426.723 508.699 426.868 508.369 426.868C507.873 426.888 507.811 426.847 508.038 426.578C508.41 426.143 508.038 426.185 507.543 426.661C507.192 426.971 506.531 427.075 503.805 427.282C501.988 427.406 500.357 427.509 500.171 427.509C499.944 427.509 499.779 427.137 499.593 426.102C499.159 423.659 498.54 421.423 498.23 421.113C497.982 420.864 497.838 420.844 497.445 421.071C496.826 421.403 493.398 424.487 492.655 425.398C492.138 426.019 492.118 426.122 492.386 426.412C492.572 426.578 493.439 426.992 494.327 427.302C496.124 427.944 496.144 427.903 493.481 428.338C489.681 428.959 485.49 430.346 482.97 431.795L481.546 432.602L480.286 430.118C478.799 427.178 477.953 425.853 477.56 425.853C477.189 425.853 475.248 428.648 474.133 430.76C473.451 432.064 473.307 432.519 473.492 432.706C473.74 432.954 479.254 433.347 479.976 433.161C480.699 432.975 480.389 433.223 478.655 434.3C472.171 438.274 467.814 443.263 466.265 448.563C466.079 449.163 465.976 449.66 466.018 449.66C466.41 449.66 470.87 447.238 470.87 447.01C470.87 446.348 471.82 443.988 472.873 442.063C473.782 440.386 474.38 439.578 475.805 438.191C477.622 436.39 481.133 433.513 481.504 433.513C481.628 433.513 481.835 433.823 481.979 434.175C482.33 435.148 484.602 439.123 485.097 439.661C485.345 439.91 485.655 440.075 485.799 440.013C486.419 439.785 489.661 434.341 489.661 433.575C489.661 432.995 489.248 432.913 486.088 432.871C484.643 432.85 483.528 432.747 483.61 432.685C483.796 432.519 487.1 431.588 488.628 431.256C491.478 430.635 499.613 429.745 499.882 430.014C499.923 430.076 500.13 430.842 500.336 431.753L500.687 433.368L499.531 434.424C498.891 435.003 496.516 437.156 494.265 439.206C473.823 457.837 454.33 472.68 435.664 483.859C415.366 496.031 390.587 506.817 365.56 514.414C347.802 519.797 326.307 524.62 312.286 526.359C310.758 526.545 309.312 526.794 309.085 526.897C307.826 527.477 320.793 525.49 329.321 523.792C368.843 515.946 406.363 501.89 436.696 483.569C455.714 472.059 476.817 455.808 496.867 437.239C498.271 435.935 499.737 434.589 500.109 434.279L500.79 433.699L500.935 434.279C501.141 435.21 501.678 436.618 501.885 436.742C502.195 436.929 503.082 436.245 505.416 433.968C506.634 432.768 507.625 431.629 507.625 431.443C507.625 431.112 506.551 430.511 505.168 430.097C504.445 429.869 504.879 429.642 506.696 429.269C508.761 428.834 511.115 428.089 513.221 427.199C514.295 426.744 514.852 426.599 514.852 426.764C514.852 427.137 516.814 431.132 517.578 432.312C517.908 432.871 518.321 433.306 518.466 433.306C518.611 433.306 519.003 432.995 519.333 432.623C520.077 431.774 522.183 428.441 522.596 427.447C522.905 426.681 522.905 426.681 522.348 426.454C522.018 426.329 520.448 426.185 518.817 426.122L515.864 425.998L517.785 424.984C519.994 423.804 521.026 423.183 523.731 421.278C525.363 420.14 571.162 391.862 572.628 391.096C572.979 390.909 573.062 390.723 572.959 390.495C572.855 390.226 569.634 374.886 566.206 358.284C566.062 357.601 565.855 357.021 565.752 357C565.628 356.98 558.257 358.491 549.336 360.354ZM524.97 413.557C524.619 416.062 524.289 418.339 524.227 418.629C524.062 419.519 519.044 423.369 516.711 424.404C515.678 424.86 514.728 425.232 514.584 425.232C514.439 425.212 514.006 424.487 513.593 423.618L512.849 422.024L519.065 415.648C522.493 412.128 525.321 409.168 525.363 409.064C525.383 408.94 525.466 408.899 525.528 408.94C525.569 409.002 525.321 411.072 524.97 413.557Z" fill="url(#paint2_linear_64_1290)"/>
<path d="M536.416 385.443C535.738 385.002 535.332 384.468 535.198 383.839C535.092 383.205 535.269 382.532 535.73 381.819C536.159 381.156 536.697 380.741 537.345 380.573C538.021 380.4 538.681 380.523 539.326 380.942C540.004 381.383 540.404 381.926 540.527 382.571C540.661 383.199 540.492 383.878 540.021 384.608C539.592 385.271 539.037 385.675 538.355 385.821C537.691 385.977 537.044 385.851 536.416 385.443Z" fill="#17231F"/>
<path d="M544.599 390.373L547.631 373.592L552.021 376.445L549.32 386.998L557.7 380.136L562.066 382.973L547.724 392.404L544.599 390.373Z" fill="#17231F"/>
</g>
<defs>
<linearGradient id="paint0_linear_64_1290" x1="66.8425" y1="67" x2="66.8425" y2="781.042" gradientUnits="userSpaceOnUse">
<stop offset="0.535" stop-color="#4DFA92"/>
<stop offset="0.775" stop-color="#4DFA92" stop-opacity="0"/>
</linearGradient>
<linearGradient id="paint1_linear_64_1290" x1="113.019" y1="223.5" x2="228.019" y2="422.686" gradientUnits="userSpaceOnUse">
<stop offset="0.77" stop-color="#00FF66"/>
<stop offset="1" stop-color="#00FF66" stop-opacity="0"/>
</linearGradient>
<linearGradient id="paint2_linear_64_1290" x1="441" y1="357" x2="441" y2="527" gradientUnits="userSpaceOnUse">
<stop offset="0.868154" stop-color="#00E15A"/>
<stop offset="1" stop-color="#00E15A" stop-opacity="0"/>
</linearGradient>
<clipPath id="clip0_64_1290">
<rect width="623" height="634" fill="white"/>
</clipPath>
</defs>
</svg>
