<svg width="142" height="187" viewBox="0 0 142 187" fill="none" xmlns="http://www.w3.org/2000/svg">
<path d="M96.7002 23.7565C98.0188 24.4462 99.0095 25.6266 99.4545 27.038C99.8995 28.4494 99.7623 29.9764 99.0732 31.2832L93.707 41.4407C93.3758 42.1053 92.914 42.6971 92.3485 43.1811C91.783 43.6652 91.1254 44.0317 90.4142 44.2593C89.703 44.4869 88.9526 44.5709 88.2072 44.5064C87.4617 44.4418 86.7362 44.2301 86.0733 43.8835C85.4103 43.537 84.8234 43.0626 84.3469 42.4884C83.8704 41.9141 83.514 41.2515 83.2986 40.5396C83.0831 39.8276 83.0131 39.0806 83.0925 38.3425C83.172 37.6043 83.3993 36.89 83.7611 36.2414L89.1274 26.0839C89.8172 24.7774 91.0024 23.7984 92.4225 23.3619C93.8426 22.9255 95.3812 23.0674 96.7002 23.7565ZM126.266 43.9316C126.651 44.5582 126.909 45.2536 127.024 45.978C127.138 46.7025 127.108 47.4418 126.935 48.1536C126.761 48.8653 126.448 49.5356 126.012 50.126C125.577 50.7163 125.028 51.2152 124.398 51.594L110.848 59.7565C110.218 60.1359 109.518 60.3882 108.789 60.4989C108.06 60.6096 107.316 60.5766 106.598 60.4017C105.881 60.2268 105.205 59.9135 104.608 59.4797C104.012 59.0458 103.507 58.4999 103.122 57.8731C102.738 57.2464 102.481 56.551 102.367 55.8267C102.252 55.1024 102.283 54.3634 102.456 53.6519C102.63 52.9404 102.943 52.2703 103.378 51.6799C103.812 51.0895 104.36 50.5903 104.99 50.2108L118.54 42.0483C119.17 41.6679 119.869 41.4149 120.599 41.3037C121.328 41.1925 122.073 41.2253 122.791 41.4002C123.508 41.5752 124.185 41.8888 124.781 42.3232C125.377 42.7576 125.882 43.3042 126.266 43.9316ZM14.9438 141.609C16.5819 146.794 20.0678 151.215 24.7472 154.042C29.4265 156.868 34.9777 157.906 40.3588 156.961C45.74 156.015 50.5811 153.151 53.9737 148.906C57.3663 144.662 59.0771 139.328 58.785 133.906L14.9438 141.609ZM3.83125 143.567L-8.22209 145.685C-11.3391 146.235 -14.5547 145.838 -17.447 144.543C-20.3393 143.249 -22.7733 141.118 -24.4299 138.431L-27.7392 133.038C-29.3901 130.361 -30.1888 127.254 -30.0305 124.125C-29.8722 120.996 -28.7643 117.992 -26.8522 115.506L38.6277 30.4671C40.1782 28.4611 42.1988 26.8619 44.5149 25.8077C46.831 24.7534 49.373 24.2758 51.9212 24.4161C54.4694 24.5565 56.9473 25.3105 59.1406 26.6131C61.334 27.9156 63.1769 29.7276 64.5102 31.8924L108.666 103.608C109.996 105.769 110.776 108.218 110.939 110.742C111.102 113.266 110.642 115.788 109.6 118.092C108.558 120.395 106.965 122.409 104.959 123.959C102.953 125.509 100.595 126.549 98.0881 126.988L69.8866 131.945C70.7031 140.301 68.3261 148.643 63.2275 155.317C58.1289 161.991 50.6815 166.508 42.3639 167.971C34.0463 169.434 25.4667 167.737 18.3285 163.216C11.1902 158.695 6.01537 151.681 3.83125 143.567ZM125.785 76.5375L114.873 73.8775C113.426 73.5247 111.9 73.7565 110.629 74.5219C109.358 75.2873 108.448 76.5235 108.098 77.9587C107.748 79.3938 107.988 80.9103 108.763 82.1746C109.539 83.4388 110.788 84.3472 112.235 84.7L123.147 87.36C124.594 87.7128 126.12 87.4809 127.391 86.7156C128.661 85.9502 129.572 84.7139 129.922 83.2788C130.271 81.8436 130.032 80.3271 129.256 79.0629C128.481 77.7987 127.232 76.8902 125.785 76.5375Z" fill="white"/>
</svg>
