<svg width="143" height="207" viewBox="0 0 143 207" fill="none" xmlns="http://www.w3.org/2000/svg">
<g clip-path="url(#clip0_5_33)">
<path d="M54.951 38.6308C53.7759 39.4064 52.9567 40.6137 52.6733 41.9871C52.3899 43.3606 52.6656 44.7878 53.4398 45.9551L59.4669 55.0268C59.8424 55.6223 60.334 56.1367 60.9128 56.5396C61.4916 56.9425 62.1459 57.2259 62.8373 57.3732C63.5287 57.5204 64.2431 57.5284 64.9387 57.3969C65.6342 57.2653 66.2969 56.9968 66.8877 56.607C67.4785 56.2173 67.9855 55.7143 68.3789 55.1274C68.7723 54.5406 69.0442 53.8818 69.1786 53.1899C69.3131 52.4979 69.3073 51.7867 69.1616 51.098C69.0159 50.4094 68.7334 49.7571 68.3304 49.1797L62.3034 40.1079C61.5286 38.9411 60.3188 38.13 58.9401 37.853C57.5614 37.576 56.1265 37.8558 54.951 38.6308ZM29.0558 60.4639C28.753 61.0914 28.5774 61.7717 28.5389 62.4659C28.5004 63.1601 28.5998 63.8545 28.8315 64.5094C29.0632 65.1643 29.4226 65.7668 29.8891 66.2824C30.3556 66.7979 30.92 67.2164 31.55 67.5139L45.0895 73.9279C45.7187 74.2254 46.401 74.3964 47.0976 74.4312C47.7942 74.466 48.4913 74.3638 49.1492 74.1305C49.8071 73.8973 50.4129 73.5374 50.932 73.0716C51.4511 72.6058 51.8733 72.0432 52.1745 71.4157C52.4757 70.7883 52.6501 70.1084 52.6876 69.4149C52.7251 68.7214 52.625 68.0278 52.3931 67.3738C52.1612 66.7198 51.802 66.1181 51.336 65.6031C50.8699 65.0881 50.3062 64.67 49.6771 64.3724L36.1376 57.9584C34.8681 57.3573 33.409 57.2836 32.081 57.7534C30.7529 58.2232 29.6648 59.1982 29.0558 60.4639ZM143.232 142.037C142.187 147.084 139.33 151.584 135.197 154.694C131.063 157.804 125.937 159.309 120.78 158.927C115.624 158.546 110.792 156.304 107.19 152.622C103.589 148.94 101.466 144.071 101.221 138.929L143.232 142.037ZM153.881 142.83L165.431 143.685C168.418 143.909 171.407 143.229 174.005 141.733C176.604 140.238 178.691 137.998 179.992 135.306L182.59 129.906C183.887 127.224 184.34 124.218 183.891 121.282C183.441 118.346 182.11 115.617 180.071 113.453L110.264 39.4534C108.612 37.7084 106.556 36.3916 104.274 35.6169C101.993 34.8421 99.5539 34.6327 97.1685 35.0067C94.7831 35.3807 92.5229 36.3268 90.5832 37.7634C88.6435 39.2 87.0826 41.0838 86.0353 43.2521L51.3543 115.082C50.3097 117.247 49.8103 119.63 49.8993 122.026C49.9884 124.422 50.6632 126.758 51.8653 128.832C53.0674 130.905 54.7606 132.654 56.7979 133.926C58.8352 135.198 61.1553 135.955 63.5571 136.131L90.5815 138.133C90.6151 146.091 93.6539 153.734 99.0945 159.546C104.535 165.357 111.98 168.911 119.95 169.503C127.921 170.094 135.834 167.68 142.12 162.738C148.406 157.797 152.604 150.691 153.881 142.83ZM32.6393 91.1724L42.656 87.6287C43.9843 87.1587 45.4437 87.2326 46.7133 87.834C47.9829 88.4355 48.9585 89.5152 49.4257 90.8357C49.8929 92.1561 49.8132 93.6092 49.2043 94.8752C48.5954 96.1412 47.5071 97.1164 46.1788 97.5864L36.1622 101.13C34.8339 101.6 33.3745 101.526 32.1049 100.925C30.8353 100.323 29.8596 99.2436 29.3925 97.9231C28.9253 96.6026 29.0049 95.1495 29.6138 93.8835C30.2227 92.6175 31.311 91.6423 32.6393 91.1724ZM102.508 46.7124L172.322 120.699C172.899 121.311 173.276 122.083 173.403 122.914C173.53 123.745 173.402 124.596 173.034 125.354L170.426 130.758C170.054 131.526 169.458 132.165 168.716 132.592C167.974 133.018 167.12 133.212 166.268 133.148L64.3904 125.585C63.7102 125.535 63.053 125.321 62.4758 124.962C61.8986 124.602 61.4187 124.107 61.0779 123.52C60.737 122.933 60.5454 122.272 60.5197 121.594C60.4939 120.915 60.6349 120.24 60.9302 119.627L95.5912 47.8038C95.8902 47.187 96.3347 46.6509 96.8867 46.2417C97.4387 45.8325 98.0817 45.5623 98.7606 45.4543C99.4394 45.3464 100.134 45.4039 100.784 45.6219C101.435 45.8399 102.022 46.2119 102.495 46.706L102.508 46.7124Z" fill="white"/>
</g>
<defs>
<clipPath id="clip0_5_33">
<rect width="170" height="169" fill="white" transform="matrix(-0.942741 0.333526 0.333526 0.942741 160.266 -10)"/>
</clipPath>
</defs>
</svg>
