<svg width="102" height="39" viewBox="0 0 102 39" fill="none" xmlns="http://www.w3.org/2000/svg">
<path d="M14.8125 14.2031V11.3125C14.8125 10.0625 14.849 8.92708 14.9219 7.90625C15.0052 6.875 15.1823 5.92188 15.4531 5.04688C14.6302 4.92188 13.7865 4.77604 12.9219 4.60938C12.0573 4.43229 11.2083 4.26562 10.375 4.10938C9.55208 3.95312 8.76562 3.82292 8.01562 3.71875C7.27604 3.60417 6.60938 3.54688 6.01562 3.54688C5.21354 3.54688 4.54688 3.61458 4.01562 3.75C3.48438 3.875 3.05729 4.04688 2.73438 4.26562C2.41146 4.48438 2.18229 4.73958 2.04688 5.03125C1.92188 5.3125 1.85938 5.61458 1.85938 5.9375C1.85938 6.26042 1.93229 6.55729 2.07812 6.82812C2.23438 7.09896 2.45312 7.33854 2.73438 7.54688C3.01562 7.74479 3.34896 7.90104 3.73438 8.01562C4.13021 8.13021 4.56771 8.1875 5.04688 8.1875C5.57812 8.1875 6.04688 8.13021 6.45312 8.01562C6.86979 7.89062 7.22396 7.75521 7.51562 7.60938C7.85938 7.44271 8.16146 7.25 8.42188 7.03125L8.73438 7.70312C8.41146 7.94271 8.05729 8.15625 7.67188 8.34375C7.33854 8.51042 6.94792 8.66146 6.5 8.79688C6.0625 8.92188 5.57812 8.98438 5.04688 8.98438C4.34896 8.98438 3.72917 8.89062 3.1875 8.70312C2.65625 8.51562 2.20833 8.26562 1.84375 7.95312C1.47917 7.63021 1.20312 7.25521 1.01562 6.82812C0.828125 6.40104 0.734375 5.94792 0.734375 5.46875C0.734375 4.95833 0.822917 4.46354 1 3.98438C1.16667 3.50521 1.45312 3.07812 1.85938 2.70312C2.25521 2.32812 2.78125 2.03125 3.4375 1.8125C4.09375 1.58333 4.90104 1.46875 5.85938 1.46875C6.74479 1.46875 7.63021 1.54167 8.51562 1.6875C9.41146 1.82292 10.2917 1.99479 11.1562 2.20312C12.0312 2.40104 12.8802 2.61979 13.7031 2.85938C14.5365 3.08854 15.3333 3.29688 16.0938 3.48438C16.5417 2.66146 17.099 2.00521 17.7656 1.51562C18.4323 1.01562 19.1562 0.765625 19.9375 0.765625C20.2708 0.765625 20.5677 0.822917 20.8281 0.9375C21.0885 1.04167 21.3073 1.18229 21.4844 1.35938C21.6615 1.53646 21.7917 1.74479 21.875 1.98438C21.9688 2.21354 22.0156 2.45833 22.0156 2.71875C22.0156 3.15625 21.9115 3.53646 21.7031 3.85938C21.5052 4.17188 21.2292 4.4375 20.875 4.65625C20.5208 4.86458 20.1042 5.02083 19.625 5.125C19.1458 5.21875 18.6302 5.26562 18.0781 5.26562C17.9531 5.26562 17.8229 5.26562 17.6875 5.26562C17.5625 5.26562 17.4375 5.25521 17.3125 5.23438C17.2292 5.75521 17.1615 6.33854 17.1094 6.98438C17.0677 7.61979 17.0469 8.33854 17.0469 9.14062V14.2031H19.1406L18.8125 15.1562H17.0469V19C17.0469 19.875 17.0365 20.6406 17.0156 21.2969C16.9948 21.9427 16.9375 22.5208 16.8438 23.0312C16.75 23.5312 16.6094 23.9844 16.4219 24.3906C16.2344 24.7865 15.974 25.1771 15.6406 25.5625C15.0677 26.2188 14.2708 26.7552 13.25 27.1719C12.2292 27.5885 10.9896 27.7969 9.53125 27.7969C8.63542 27.7969 7.78125 27.6719 6.96875 27.4219C6.15625 27.1719 5.44271 26.8229 4.82812 26.375C4.21354 25.9271 3.72396 25.3906 3.35938 24.7656C2.99479 24.1406 2.8125 23.4479 2.8125 22.6875C2.8125 22.125 2.90104 21.6198 3.07812 21.1719C3.26562 20.724 3.50521 20.3281 3.79688 19.9844C4.08854 19.6302 4.40625 19.3281 4.75 19.0781C5.10417 18.8281 5.44792 18.6198 5.78125 18.4531C6.11458 18.2865 6.41667 18.1562 6.6875 18.0625C6.95833 17.9688 7.16146 17.9062 7.29688 17.875L7.60938 18.5156C7.36979 18.6406 7.09896 18.8125 6.79688 19.0312C6.50521 19.2396 6.22917 19.5104 5.96875 19.8438C5.70833 20.1667 5.48958 20.5625 5.3125 21.0312C5.13542 21.5 5.04688 22.0521 5.04688 22.6875C5.04688 23.3646 5.16146 23.974 5.39062 24.5156C5.61979 25.0469 5.9375 25.5 6.34375 25.875C6.76042 26.2396 7.25 26.5208 7.8125 26.7188C8.38542 26.9062 9.01042 27 9.6875 27C10.4479 27 11.1406 26.8958 11.7656 26.6875C12.401 26.4792 12.9427 26.1302 13.3906 25.6406C13.8385 25.151 14.1875 24.5 14.4375 23.6875C14.6875 22.875 14.8125 21.8646 14.8125 20.6562V15.1562H11.7812L12.0938 14.2031H14.8125ZM19.9375 1.625C19.4688 1.625 19.0365 1.79688 18.6406 2.14062C18.2448 2.47396 17.9167 3.04688 17.6562 3.85938C17.9792 3.91146 18.2917 3.95312 18.5938 3.98438C18.8958 4.01562 19.1823 4.03125 19.4531 4.03125C19.7344 4.03125 19.974 3.99479 20.1719 3.92188C20.3802 3.83854 20.5469 3.73438 20.6719 3.60938C20.7969 3.48438 20.8906 3.34375 20.9531 3.1875C21.0156 3.03125 21.0469 2.875 21.0469 2.71875C21.0469 2.41667 20.9427 2.16146 20.7344 1.95312C20.526 1.73438 20.2604 1.625 19.9375 1.625Z" fill="black"/>
<path d="M27 23.6094C26.9479 23.6927 26.8698 23.8385 26.7656 24.0469C26.6719 24.2448 26.5469 24.4688 26.3906 24.7188C26.2448 24.9688 26.0677 25.2292 25.8594 25.5C25.6615 25.7708 25.4323 26.0156 25.1719 26.2344C24.9115 26.4531 24.6198 26.6354 24.2969 26.7812C23.9844 26.9271 23.6354 27 23.25 27C22.9479 27 22.6354 26.9375 22.3125 26.8125C21.9896 26.6875 21.6875 26.4583 21.4062 26.125C21.1354 25.7917 20.9115 25.3385 20.7344 24.7656C20.5573 24.1823 20.4688 23.4323 20.4688 22.5156C20.4688 21.6406 20.5 20.7656 20.5625 19.8906C20.625 19.0052 20.6979 18.1979 20.7812 17.4688C20.875 16.7396 20.9635 16.1302 21.0469 15.6406C21.1302 15.151 21.1927 14.8542 21.2344 14.75C21.276 14.6562 21.3594 14.5729 21.4844 14.5C21.6094 14.4271 21.75 14.3698 21.9062 14.3281C22.0729 14.2865 22.2396 14.2552 22.4062 14.2344C22.5833 14.2135 22.7344 14.2031 22.8594 14.2031C23.026 14.2031 23.1562 14.2448 23.25 14.3281C23.3542 14.4115 23.4062 14.5521 23.4062 14.75C23.4062 14.8438 23.3854 15.0312 23.3438 15.3125C23.3125 15.5833 23.2708 15.9167 23.2188 16.3125C23.1667 16.7083 23.1094 17.1458 23.0469 17.625C22.9948 18.1042 22.9427 18.5938 22.8906 19.0938C22.8385 19.5833 22.7917 20.0729 22.75 20.5625C22.7188 21.0417 22.7031 21.4792 22.7031 21.875C22.7031 23.0104 22.8229 23.8542 23.0625 24.4062C23.3125 24.9583 23.7188 25.2344 24.2812 25.2344C24.7604 25.2344 25.2448 24.8854 25.7344 24.1875C26.2344 23.4896 26.6667 22.474 27.0312 21.1406C27.0833 20.5781 27.1302 19.9792 27.1719 19.3438C27.224 18.6979 27.2708 18.0885 27.3125 17.5156C27.3542 16.9323 27.3906 16.4115 27.4219 15.9531C27.4635 15.4948 27.5 15.1667 27.5312 14.9688C27.5625 14.8229 27.6458 14.7031 27.7812 14.6094C27.9167 14.5052 28.0677 14.4271 28.2344 14.375C28.4115 14.3125 28.5781 14.2708 28.7344 14.25C28.901 14.2188 29.026 14.2031 29.1094 14.2031C29.2865 14.2031 29.4062 14.2448 29.4688 14.3281C29.5417 14.401 29.5781 14.5208 29.5781 14.6875C29.5781 14.8333 29.5625 15.1146 29.5312 15.5312C29.5104 15.9375 29.4792 16.4167 29.4375 16.9688C29.4062 17.5104 29.3698 18.0938 29.3281 18.7188C29.2865 19.3438 29.2448 19.9479 29.2031 20.5312C29.1719 21.1042 29.1406 21.625 29.1094 22.0938C29.0885 22.5625 29.0781 22.9167 29.0781 23.1562C29.0781 23.8646 29.1146 24.4219 29.1875 24.8281C29.2708 25.2344 29.4479 25.4375 29.7188 25.4375C29.9167 25.4375 30.1302 25.3125 30.3594 25.0625C30.599 24.8021 30.8542 24.4427 31.125 23.9844C31.4062 23.526 31.7083 22.9844 32.0312 22.3594C32.3542 21.724 32.7031 21.0312 33.0781 20.2812L33.2344 19.9531L33.875 20.4375L33.7188 20.7656C33.2188 21.7552 32.776 22.6406 32.3906 23.4219C32.0156 24.1927 31.6562 24.8438 31.3125 25.375C30.9688 25.9062 30.6198 26.3125 30.2656 26.5938C29.9115 26.8646 29.5156 27 29.0781 27C28.6719 27 28.3333 26.9219 28.0625 26.7656C27.8021 26.6094 27.5938 26.3854 27.4375 26.0938C27.2812 25.8021 27.1667 25.4479 27.0938 25.0312C27.0312 24.6146 27 24.1406 27 23.6094Z" fill="black"/>
<path d="M39.2656 15.2812C38.974 15.2812 38.6458 15.4115 38.2812 15.6719C37.9271 15.9323 37.5677 16.2708 37.2031 16.6875C36.8385 17.0938 36.4844 17.5521 36.1406 18.0625C35.8073 18.5729 35.5156 19.0781 35.2656 19.5781C35.2344 20.4948 35.2031 21.4948 35.1719 22.5781C35.151 23.6615 35.1406 24.8177 35.1406 26.0469C35.1406 26.2031 35.0677 26.3438 34.9219 26.4688C34.7865 26.5833 34.625 26.6823 34.4375 26.7656C34.25 26.8385 34.0573 26.8958 33.8594 26.9375C33.6615 26.9792 33.5 27 33.375 27C33.2188 27 33.0729 26.9531 32.9375 26.8594C32.8021 26.7656 32.7344 26.5573 32.7344 26.2344C32.7344 26.0781 32.75 25.8854 32.7812 25.6562C32.8125 25.4167 32.8542 25.1615 32.9062 24.8906C32.9479 24.6198 33 24.3438 33.0625 24.0625C33.1146 23.7708 33.1667 23.5 33.2188 23.25V15.6094C33.2188 15.401 33.224 15.2396 33.2344 15.125C33.2344 15 33.25 14.9062 33.2812 14.8438C33.3438 14.6979 33.4531 14.5833 33.6094 14.5C33.7656 14.4167 33.9323 14.3542 34.1094 14.3125C34.2865 14.2604 34.4583 14.2292 34.625 14.2188C34.7917 14.2083 34.9219 14.2031 35.0156 14.2031C35.1927 14.2031 35.3125 14.25 35.375 14.3438C35.4479 14.4375 35.4844 14.6042 35.4844 14.8438C35.4844 14.8125 35.4583 15.0677 35.4062 15.6094C35.3646 16.151 35.3281 16.9271 35.2969 17.9375C35.6094 17.4479 35.9479 16.9792 36.3125 16.5312C36.6771 16.0833 37.0573 15.6875 37.4531 15.3438C37.849 15 38.2552 14.724 38.6719 14.5156C39.099 14.3073 39.5312 14.2031 39.9688 14.2031C40.75 14.2031 41.3229 14.4531 41.6875 14.9531C42.0521 15.4427 42.2344 16.1094 42.2344 16.9531C42.2344 17.4844 42.1979 18.0781 42.125 18.7344C42.0625 19.3802 41.9844 20.0417 41.8906 20.7188C41.8073 21.3854 41.7292 22.0417 41.6562 22.6875C41.5938 23.3229 41.5625 23.9062 41.5625 24.4375C41.5625 25.125 41.776 25.4688 42.2031 25.4688C42.3385 25.4688 42.4948 25.401 42.6719 25.2656C42.8594 25.1198 43.0885 24.8542 43.3594 24.4688C43.6406 24.0833 43.974 23.5573 44.3594 22.8906C44.7448 22.2135 45.2031 21.3438 45.7344 20.2812L45.8906 19.9531L46.5312 20.4375L46.375 20.7656C45.75 22.0156 45.1927 23.0417 44.7031 23.8438C44.224 24.6458 43.7865 25.2812 43.3906 25.75C42.9948 26.2188 42.625 26.5469 42.2812 26.7344C41.9375 26.9115 41.5938 27 41.25 27C41.0312 27 40.8125 26.9688 40.5938 26.9062C40.375 26.8438 40.1823 26.7344 40.0156 26.5781C39.849 26.4219 39.7135 26.2135 39.6094 25.9531C39.5052 25.6823 39.4531 25.3385 39.4531 24.9219C39.4531 24.2969 39.4948 23.5938 39.5781 22.8125C39.6615 22.0312 39.7552 21.25 39.8594 20.4688C39.9635 19.6875 40.0573 18.9531 40.1406 18.2656C40.224 17.5677 40.2656 17 40.2656 16.5625C40.2656 16.1771 40.1823 15.8698 40.0156 15.6406C39.849 15.401 39.599 15.2812 39.2656 15.2812Z" fill="black"/>
<path d="M56.125 9.23438C56.6875 8.75521 57.1198 8.16667 57.4219 7.46875C57.7344 6.76042 57.8906 5.96354 57.8906 5.07812C57.8906 4.59896 57.8281 4.14583 57.7031 3.71875C57.5885 3.29167 57.4115 2.92188 57.1719 2.60938C56.9427 2.28646 56.6562 2.03125 56.3125 1.84375C55.9792 1.65625 55.599 1.5625 55.1719 1.5625C54.8073 1.5625 54.4583 1.64583 54.125 1.8125C53.8021 1.96875 53.5156 2.20833 53.2656 2.53125C53.0156 2.84375 52.8125 3.24479 52.6562 3.73438C52.5104 4.21354 52.4375 4.77083 52.4375 5.40625C52.4375 6.04167 52.4844 6.80208 52.5781 7.6875C52.6823 8.5625 52.7969 9.54167 52.9219 10.625C53.0469 11.6979 53.1562 12.8594 53.25 14.1094C53.3542 15.3594 53.4062 16.6719 53.4062 18.0469C53.4062 18.7552 53.3438 19.4271 53.2188 20.0625C53.1042 20.6875 52.9375 21.2708 52.7188 21.8125C52.5 22.3542 52.2396 22.8542 51.9375 23.3125C51.6458 23.7708 51.3229 24.1875 50.9688 24.5625C51.5521 24.8333 52.125 25.1302 52.6875 25.4531C53.2604 25.776 53.8229 26.1042 54.375 26.4375C54.9271 26.7604 55.4844 27.0729 56.0469 27.375C56.6094 27.6875 57.1771 27.9583 57.75 28.1875C58.3229 28.4271 58.9115 28.6198 59.5156 28.7656C60.1198 28.9115 60.75 28.9844 61.4062 28.9844C62.6458 28.9844 63.6042 28.8021 64.2812 28.4375L64.6094 28.8594C64.3906 29.0469 64.0885 29.2448 63.7031 29.4531C63.3281 29.6719 62.901 29.8698 62.4219 30.0469C61.9531 30.2344 61.4531 30.3854 60.9219 30.5C60.3906 30.625 59.8594 30.6875 59.3281 30.6875C58.1927 30.6875 57.1458 30.526 56.1875 30.2031C55.2292 29.8906 54.3438 29.5 53.5312 29.0312C52.7188 28.5625 51.9635 28.0573 51.2656 27.5156C50.5677 26.974 49.9062 26.474 49.2812 26.0156C48.6667 26.401 48.0469 26.6875 47.4219 26.875C46.8073 27.0625 46.2396 27.1562 45.7188 27.1562C45.2812 27.1562 44.9167 27.1042 44.625 27C44.3229 26.8854 44.0833 26.7448 43.9062 26.5781C43.7188 26.4115 43.5885 26.224 43.5156 26.0156C43.4323 25.8073 43.3906 25.6042 43.3906 25.4062C43.3906 25.1667 43.4635 24.9323 43.6094 24.7031C43.7552 24.474 43.9688 24.2708 44.25 24.0938C44.5208 23.9062 44.849 23.7604 45.2344 23.6562C45.6198 23.5417 46.0521 23.4844 46.5312 23.4844C47.0625 23.4844 47.5729 23.5312 48.0625 23.625C48.5625 23.7188 49.0521 23.8385 49.5312 23.9844C49.9167 23.3802 50.2292 22.6354 50.4688 21.75C50.7188 20.8542 50.8438 19.776 50.8438 18.5156C50.8438 17.1406 50.7917 15.8906 50.6875 14.7656C50.5938 13.6302 50.4844 12.5677 50.3594 11.5781C50.2448 10.5781 50.1354 9.61979 50.0312 8.70312C49.9375 7.77604 49.8906 6.83333 49.8906 5.875C49.8906 5.03125 50.0417 4.29167 50.3438 3.65625C50.6562 3.01042 51.0521 2.47396 51.5312 2.04688C52.0208 1.61979 52.5677 1.30208 53.1719 1.09375C53.7865 0.875 54.3958 0.765625 55 0.765625C55.6771 0.765625 56.2969 0.869792 56.8594 1.07812C57.4323 1.28646 57.9219 1.57292 58.3281 1.9375C58.7448 2.29167 59.0677 2.71354 59.2969 3.20312C59.526 3.68229 59.6406 4.20312 59.6406 4.76562C59.6406 5.36979 59.5417 5.9375 59.3438 6.46875C59.1458 6.98958 58.8958 7.46875 58.5938 7.90625C58.3021 8.33333 57.9792 8.71354 57.625 9.04688C57.2708 9.38021 56.9323 9.65625 56.6094 9.875L56.125 9.23438ZM45.7188 26.3594C46.1146 26.3594 46.5417 26.2865 47 26.1406C47.4583 25.9844 47.9062 25.7292 48.3438 25.375C47.9062 25.1042 47.4844 24.8802 47.0781 24.7031C46.6823 24.526 46.2865 24.4375 45.8906 24.4375C45.4323 24.4375 45.0521 24.5208 44.75 24.6875C44.4375 24.8438 44.2812 25.0833 44.2812 25.4062C44.2812 25.7292 44.4115 25.9688 44.6719 26.125C44.9323 26.2812 45.2812 26.3594 45.7188 26.3594Z" fill="black"/>
<path d="M68.1562 23.125C68.1562 23.7188 68.2083 24.2188 68.3125 24.625C68.4167 25.0312 68.599 25.2344 68.8594 25.2344C69.0156 25.2344 69.1823 25.1615 69.3594 25.0156C69.5469 24.8594 69.7604 24.6094 70 24.2656C70.2396 23.9219 70.5104 23.4792 70.8125 22.9375C71.125 22.3854 71.4792 21.7135 71.875 20.9219L72.3438 19.9531L72.9844 20.4375L72.5156 21.4062C72.0781 22.2812 71.6667 23.0677 71.2812 23.7656C70.9062 24.4531 70.5469 25.0365 70.2031 25.5156C69.8594 25.9948 69.5208 26.3646 69.1875 26.625C68.8646 26.875 68.5417 27 68.2188 27C67.875 27 67.5833 26.9062 67.3438 26.7188C67.1146 26.5312 66.9219 26.276 66.7656 25.9531C66.6094 25.6198 66.4896 25.2396 66.4062 24.8125C66.3229 24.375 66.2656 23.9115 66.2344 23.4219C65.9844 23.9219 65.7083 24.3906 65.4062 24.8281C65.1042 25.2552 64.7865 25.6302 64.4531 25.9531C64.1302 26.276 63.7917 26.5312 63.4375 26.7188C63.0833 26.9062 62.7292 27 62.375 27C61.8542 27 61.349 26.8906 60.8594 26.6719C60.3698 26.4531 59.9323 26.1198 59.5469 25.6719C59.1719 25.224 58.8698 24.6615 58.6406 23.9844C58.4115 23.2969 58.2969 22.4896 58.2969 21.5625C58.2969 20.4792 58.4375 19.4896 58.7188 18.5938C59 17.6875 59.3802 16.9115 59.8594 16.2656C60.3385 15.6094 60.8906 15.1042 61.5156 14.75C62.1406 14.3854 62.7969 14.2031 63.4844 14.2031C63.901 14.2031 64.2865 14.2969 64.6406 14.4844C64.9948 14.6719 65.3021 14.901 65.5625 15.1719C65.8333 15.4323 66.0573 15.7135 66.2344 16.0156C66.4115 16.3073 66.5312 16.5573 66.5938 16.7656L66.7812 15.25C66.8021 15.0521 66.8958 14.8854 67.0625 14.75C67.2396 14.6146 67.4323 14.5104 67.6406 14.4375C67.849 14.3542 68.0521 14.2969 68.25 14.2656C68.4479 14.224 68.5885 14.2031 68.6719 14.2031C68.7969 14.2031 68.8802 14.224 68.9219 14.2656C68.9635 14.3073 68.9844 14.3906 68.9844 14.5156C68.9844 14.6719 68.9375 14.9896 68.8438 15.4688C68.7604 15.9375 68.6667 16.5417 68.5625 17.2812C68.4688 18.0104 68.375 18.8698 68.2812 19.8594C68.1979 20.849 68.1562 21.9375 68.1562 23.125ZM66.4375 19C66.4375 18.5208 66.3646 18.0521 66.2188 17.5938C66.0729 17.125 65.875 16.7135 65.625 16.3594C65.375 15.9948 65.0833 15.7031 64.75 15.4844C64.4271 15.2656 64.0833 15.1562 63.7188 15.1562C63.2708 15.1562 62.849 15.2865 62.4531 15.5469C62.0677 15.7969 61.7292 16.1562 61.4375 16.625C61.1562 17.0833 60.9323 17.6406 60.7656 18.2969C60.599 18.9427 60.5156 19.6562 60.5156 20.4375C60.5156 22 60.7604 23.1927 61.25 24.0156C61.7396 24.8281 62.3906 25.2344 63.2031 25.2344C63.5573 25.2344 63.9219 25.0938 64.2969 24.8125C64.6823 24.5208 65.0312 24.1094 65.3438 23.5781C65.6667 23.0365 65.9271 22.3802 66.125 21.6094C66.3333 20.8385 66.4375 19.9688 66.4375 19Z" fill="black"/>
<path d="M78.3594 15.2812C78.0677 15.2812 77.7396 15.4115 77.375 15.6719C77.0208 15.9323 76.6615 16.2708 76.2969 16.6875C75.9323 17.0938 75.5781 17.5521 75.2344 18.0625C74.901 18.5729 74.6094 19.0781 74.3594 19.5781C74.3281 20.4948 74.2969 21.4948 74.2656 22.5781C74.2448 23.6615 74.2344 24.8177 74.2344 26.0469C74.2344 26.2031 74.1615 26.3438 74.0156 26.4688C73.8802 26.5833 73.7188 26.6823 73.5312 26.7656C73.3438 26.8385 73.151 26.8958 72.9531 26.9375C72.7552 26.9792 72.5938 27 72.4688 27C72.3125 27 72.1667 26.9531 72.0312 26.8594C71.8958 26.7656 71.8281 26.5573 71.8281 26.2344C71.8281 26.0781 71.8438 25.8854 71.875 25.6562C71.9062 25.4167 71.9479 25.1615 72 24.8906C72.0417 24.6198 72.0938 24.3438 72.1562 24.0625C72.2083 23.7708 72.2604 23.5 72.3125 23.25V15.6094C72.3125 15.401 72.3177 15.2396 72.3281 15.125C72.3281 15 72.3438 14.9062 72.375 14.8438C72.4375 14.6979 72.5469 14.5833 72.7031 14.5C72.8594 14.4167 73.026 14.3542 73.2031 14.3125C73.3802 14.2604 73.5521 14.2292 73.7188 14.2188C73.8854 14.2083 74.0156 14.2031 74.1094 14.2031C74.2865 14.2031 74.4062 14.25 74.4688 14.3438C74.5417 14.4375 74.5781 14.6042 74.5781 14.8438C74.5781 14.8125 74.5521 15.0677 74.5 15.6094C74.4583 16.151 74.4219 16.9271 74.3906 17.9375C74.7031 17.4479 75.0417 16.9792 75.4062 16.5312C75.7708 16.0833 76.151 15.6875 76.5469 15.3438C76.9427 15 77.349 14.724 77.7656 14.5156C78.1927 14.3073 78.625 14.2031 79.0625 14.2031C79.8438 14.2031 80.4167 14.4531 80.7812 14.9531C81.1458 15.4427 81.3281 16.1094 81.3281 16.9531C81.3281 17.4844 81.2917 18.0781 81.2188 18.7344C81.1562 19.3802 81.0781 20.0417 80.9844 20.7188C80.901 21.3854 80.8229 22.0417 80.75 22.6875C80.6875 23.3229 80.6562 23.9062 80.6562 24.4375C80.6562 25.125 80.8698 25.4688 81.2969 25.4688C81.4323 25.4688 81.5885 25.401 81.7656 25.2656C81.9531 25.1198 82.1823 24.8542 82.4531 24.4688C82.7344 24.0833 83.0677 23.5573 83.4531 22.8906C83.8385 22.2135 84.2969 21.3438 84.8281 20.2812L84.9844 19.9531L85.625 20.4375L85.4688 20.7656C84.8438 22.0156 84.2865 23.0417 83.7969 23.8438C83.3177 24.6458 82.8802 25.2812 82.4844 25.75C82.0885 26.2188 81.7188 26.5469 81.375 26.7344C81.0312 26.9115 80.6875 27 80.3438 27C80.125 27 79.9062 26.9688 79.6875 26.9062C79.4688 26.8438 79.276 26.7344 79.1094 26.5781C78.9427 26.4219 78.8073 26.2135 78.7031 25.9531C78.599 25.6823 78.5469 25.3385 78.5469 24.9219C78.5469 24.2969 78.5885 23.5938 78.6719 22.8125C78.7552 22.0312 78.849 21.25 78.9531 20.4688C79.0573 19.6875 79.151 18.9531 79.2344 18.2656C79.3177 17.5677 79.3594 17 79.3594 16.5625C79.3594 16.1771 79.276 15.8698 79.1094 15.6406C78.9427 15.401 78.6927 15.2812 78.3594 15.2812Z" fill="black"/>
<path d="M88.1719 27C87.5365 27 86.9844 26.8646 86.5156 26.5938C86.0573 26.3229 85.6771 25.9583 85.375 25.5C85.0729 25.0312 84.849 24.4948 84.7031 23.8906C84.5573 23.2865 84.4844 22.6458 84.4844 21.9688C84.4844 21.375 84.5417 20.7708 84.6562 20.1562C84.7708 19.5417 84.9323 18.9479 85.1406 18.375C85.3594 17.7917 85.6302 17.25 85.9531 16.75C86.276 16.2396 86.6458 15.7969 87.0625 15.4219C87.4792 15.0469 87.9427 14.75 88.4531 14.5312C88.974 14.3125 89.5312 14.2031 90.125 14.2031C90.8021 14.2031 91.375 14.3542 91.8438 14.6562C92.3229 14.9583 92.7083 15.3281 93 15.7656C93.0104 13.7969 93.1094 12.0573 93.2969 10.5469C93.4844 9.03646 93.7448 7.77083 94.0781 6.75C94.4219 5.72917 94.8281 4.95833 95.2969 4.4375C95.7656 3.90625 96.2812 3.64062 96.8438 3.64062C97.0417 3.64062 97.2188 3.66667 97.375 3.71875C97.5417 3.76042 97.6771 3.84375 97.7812 3.96875C97.8958 4.09375 97.9792 4.26562 98.0312 4.48438C98.0938 4.69271 98.125 4.96354 98.125 5.29688C98.125 5.98438 98.0573 6.77604 97.9219 7.67188C97.7865 8.55729 97.5938 9.52604 97.3438 10.5781C97.0938 11.6198 96.7865 12.7344 96.4219 13.9219C96.0677 15.099 95.6719 16.3229 95.2344 17.5938C95.2448 18.7083 95.2604 19.6719 95.2812 20.4844C95.3021 21.2969 95.3281 21.9844 95.3594 22.5469C95.401 23.1094 95.4479 23.5677 95.5 23.9219C95.5625 24.276 95.6302 24.5521 95.7031 24.75C95.7865 24.9375 95.8802 25.0677 95.9844 25.1406C96.099 25.2031 96.224 25.2344 96.3594 25.2344C96.599 25.2344 96.8385 25.1302 97.0781 24.9219C97.3281 24.7031 97.5938 24.3854 97.875 23.9688C98.1562 23.5417 98.4583 23.0208 98.7812 22.4062C99.1146 21.7917 99.4792 21.0833 99.875 20.2812L100.047 19.9531L100.688 20.4375L100.516 20.7656C99.9115 21.9844 99.3802 22.9948 98.9219 23.7969C98.4635 24.5885 98.0417 25.224 97.6562 25.7031C97.2812 26.1823 96.9219 26.5208 96.5781 26.7188C96.2344 26.9062 95.875 27 95.5 27C95.1354 27 94.8177 26.9115 94.5469 26.7344C94.2865 26.5469 94.0625 26.2604 93.875 25.875C93.6875 25.4792 93.5365 24.9792 93.4219 24.375C93.3073 23.7604 93.2188 23.026 93.1562 22.1719C92.7917 22.901 92.4167 23.5625 92.0312 24.1562C91.6458 24.75 91.2448 25.2604 90.8281 25.6875C90.4219 26.1042 89.9948 26.4271 89.5469 26.6562C89.099 26.8854 88.6406 27 88.1719 27ZM90.4375 15C89.8646 15 89.3646 15.1771 88.9375 15.5312C88.5104 15.875 88.1562 16.3281 87.875 16.8906C87.5938 17.4427 87.3854 18.0677 87.25 18.7656C87.1146 19.4635 87.0469 20.1615 87.0469 20.8594C87.0469 21.4323 87.0885 21.9844 87.1719 22.5156C87.2656 23.0365 87.401 23.5 87.5781 23.9062C87.7656 24.3125 87.9896 24.6354 88.25 24.875C88.5104 25.1146 88.8125 25.2344 89.1562 25.2344C89.4896 25.2344 89.8125 25.151 90.125 24.9844C90.4479 24.8177 90.7656 24.5521 91.0781 24.1875C91.3906 23.8125 91.7083 23.3333 92.0312 22.75C92.3542 22.1562 92.6979 21.4375 93.0625 20.5938C93.0417 20.0938 93.026 19.5625 93.0156 19C93.0052 18.4271 93 17.8177 93 17.1719C92.7708 16.4948 92.4219 15.9635 91.9531 15.5781C91.4948 15.1927 90.9896 15 90.4375 15ZM97 5.875C97 5.39583 96.9427 5.0625 96.8281 4.875C96.724 4.6875 96.599 4.59375 96.4531 4.59375C96.2031 4.59375 96 4.83854 95.8438 5.32812C95.6875 5.80729 95.5625 6.45833 95.4688 7.28125C95.3854 8.10417 95.3229 9.05729 95.2812 10.1406C95.25 11.224 95.2344 12.3646 95.2344 13.5625V15.2812C95.5573 14.2292 95.8333 13.2812 96.0625 12.4375C96.2917 11.5938 96.474 10.8073 96.6094 10.0781C96.7448 9.34896 96.8438 8.64583 96.9062 7.96875C96.9688 7.29167 97 6.59375 97 5.875Z" fill="black"/>
<path d="M3.08496 33.0029C3.53841 33.0029 3.91211 33.0576 4.20605 33.167C4.50228 33.2764 4.72217 33.4416 4.86572 33.6626C5.00928 33.8836 5.08105 34.1628 5.08105 34.5C5.08105 34.7279 5.03776 34.9272 4.95117 35.0981C4.86458 35.269 4.75065 35.4137 4.60938 35.5322C4.4681 35.6507 4.31543 35.7476 4.15137 35.8228L5.62109 38H4.44531L3.25244 36.0825H2.68848V38H1.62891V33.0029H3.08496ZM3.00977 33.8711H2.68848V35.2212H3.03027C3.38118 35.2212 3.63184 35.1631 3.78223 35.0469C3.9349 34.9284 4.01123 34.7552 4.01123 34.5273C4.01123 34.2904 3.9292 34.1217 3.76514 34.0215C3.60335 33.9212 3.35156 33.8711 3.00977 33.8711Z" fill="black"/>
<path d="M9.12793 38H6.25V33.0029H9.12793V33.8711H7.30957V34.9683H9.00146V35.8364H7.30957V37.125H9.12793V38Z" fill="black"/>
<path d="M13.1235 36.6123C13.1235 36.9085 13.0518 37.166 12.9082 37.3848C12.7646 37.6035 12.555 37.7721 12.2793 37.8906C12.0059 38.0091 11.6732 38.0684 11.2812 38.0684C11.1081 38.0684 10.9383 38.057 10.772 38.0342C10.6079 38.0114 10.4495 37.9784 10.2969 37.9351C10.1465 37.8895 10.0029 37.8337 9.86621 37.7676V36.7832C10.1032 36.888 10.3493 36.9826 10.6045 37.0669C10.8597 37.1512 11.1126 37.1934 11.3633 37.1934C11.5365 37.1934 11.6755 37.1706 11.7803 37.125C11.8874 37.0794 11.9648 37.0168 12.0127 36.937C12.0605 36.8573 12.0845 36.7661 12.0845 36.6636C12.0845 36.5382 12.0423 36.4312 11.958 36.3423C11.8737 36.2534 11.7575 36.1702 11.6094 36.0928C11.4635 36.0153 11.2983 35.9321 11.1138 35.8433C10.9976 35.7886 10.8711 35.7225 10.7344 35.645C10.5977 35.5653 10.4678 35.4684 10.3447 35.3545C10.2217 35.2406 10.1203 35.1027 10.0405 34.9409C9.96305 34.7769 9.92432 34.5809 9.92432 34.353C9.92432 34.0545 9.99268 33.7993 10.1294 33.5874C10.2661 33.3755 10.4609 33.2137 10.7139 33.1021C10.9691 32.9881 11.2699 32.9312 11.6162 32.9312C11.876 32.9312 12.1232 32.9619 12.3579 33.0234C12.5949 33.0827 12.8421 33.1693 13.0996 33.2832L12.7578 34.1069C12.5277 34.0135 12.3215 33.9417 12.1392 33.8916C11.9569 33.8392 11.7712 33.813 11.582 33.813C11.4499 33.813 11.3371 33.8346 11.2437 33.8779C11.1502 33.9189 11.0796 33.9782 11.0317 34.0557C10.9839 34.1309 10.96 34.2186 10.96 34.3188C10.96 34.4373 10.9941 34.5376 11.0625 34.6196C11.1331 34.6994 11.238 34.7769 11.377 34.8521C11.5182 34.9272 11.6937 35.015 11.9033 35.1152C12.1585 35.236 12.3761 35.3625 12.5562 35.4946C12.7384 35.6245 12.8786 35.7783 12.9766 35.9561C13.0745 36.1315 13.1235 36.3503 13.1235 36.6123Z" fill="black"/>
<path d="M18.5649 35.4946C18.5649 35.8797 18.5171 36.2306 18.4214 36.5474C18.3257 36.8618 18.1799 37.133 17.9839 37.3608C17.7902 37.5887 17.5441 37.7642 17.2456 37.8872C16.9471 38.008 16.5939 38.0684 16.186 38.0684C15.7782 38.0684 15.425 38.008 15.1265 37.8872C14.828 37.7642 14.5807 37.5887 14.3848 37.3608C14.1911 37.133 14.0464 36.8607 13.9507 36.5439C13.855 36.2272 13.8071 35.8752 13.8071 35.4878C13.8071 34.9705 13.8914 34.5205 14.0601 34.1377C14.231 33.7526 14.493 33.4541 14.8462 33.2422C15.1994 33.0303 15.6483 32.9243 16.1929 32.9243C16.7352 32.9243 17.1807 33.0303 17.5293 33.2422C17.8802 33.4541 18.14 33.7526 18.3086 34.1377C18.4795 34.5228 18.5649 34.9751 18.5649 35.4946ZM14.918 35.4946C14.918 35.8433 14.9613 36.144 15.0479 36.397C15.1367 36.6476 15.2746 36.8413 15.4614 36.978C15.6483 37.1125 15.8898 37.1797 16.186 37.1797C16.4868 37.1797 16.7306 37.1125 16.9175 36.978C17.1043 36.8413 17.2399 36.6476 17.3242 36.397C17.4108 36.144 17.4541 35.8433 17.4541 35.4946C17.4541 34.9705 17.3561 34.5581 17.1602 34.2573C16.9642 33.9565 16.6418 33.8062 16.1929 33.8062C15.8944 33.8062 15.6506 33.8745 15.4614 34.0112C15.2746 34.1457 15.1367 34.3394 15.0479 34.5923C14.9613 34.8429 14.918 35.1437 14.918 35.4946Z" fill="black"/>
<path d="M21.0566 33.0029C21.5101 33.0029 21.8838 33.0576 22.1777 33.167C22.474 33.2764 22.6938 33.4416 22.8374 33.6626C22.981 33.8836 23.0527 34.1628 23.0527 34.5C23.0527 34.7279 23.0094 34.9272 22.9229 35.0981C22.8363 35.269 22.7223 35.4137 22.5811 35.5322C22.4398 35.6507 22.2871 35.7476 22.123 35.8228L23.5928 38H22.417L21.2241 36.0825H20.6602V38H19.6006V33.0029H21.0566ZM20.9814 33.8711H20.6602V35.2212H21.002C21.3529 35.2212 21.6035 35.1631 21.7539 35.0469C21.9066 34.9284 21.9829 34.7552 21.9829 34.5273C21.9829 34.2904 21.9009 34.1217 21.7368 34.0215C21.575 33.9212 21.3232 33.8711 20.9814 33.8711Z" fill="black"/>
<path d="M26.1494 38H25.0898V33.8848H23.7329V33.0029H27.5063V33.8848H26.1494V38Z" fill="black"/>
<path d="M31.6353 32.9312C31.9041 32.9312 32.1434 32.9733 32.353 33.0576C32.5627 33.1419 32.7279 33.265 32.8486 33.4268C32.9717 33.5885 33.0332 33.7856 33.0332 34.0181C33.0332 34.3394 32.9375 34.6094 32.7461 34.8281C32.557 35.0469 32.32 35.2383 32.0352 35.4023L33.0059 36.3491C33.1016 36.1919 33.1825 36.0256 33.2485 35.8501C33.3169 35.6746 33.3761 35.498 33.4263 35.3203H34.5132C34.4425 35.5824 34.3389 35.8626 34.2021 36.1611C34.0677 36.4574 33.8957 36.7365 33.686 36.9985L34.7148 38H33.4263L33.0332 37.6138C32.8988 37.7072 32.7541 37.7881 32.5991 37.8564C32.4465 37.9248 32.2824 37.9772 32.1069 38.0137C31.9338 38.0501 31.7503 38.0684 31.5566 38.0684C31.1784 38.0684 30.8537 38.0091 30.5825 37.8906C30.3114 37.7721 30.104 37.6069 29.9604 37.395C29.8169 37.1808 29.7451 36.9325 29.7451 36.6499C29.7451 36.4129 29.7816 36.2101 29.8545 36.0415C29.9274 35.8706 30.0322 35.7214 30.1689 35.5938C30.3057 35.4639 30.4697 35.3442 30.6611 35.2349C30.5404 35.0936 30.4435 34.9614 30.3706 34.8384C30.3 34.7153 30.2487 34.5934 30.2168 34.4727C30.1872 34.3496 30.1724 34.2209 30.1724 34.0864C30.1724 33.8494 30.2339 33.6455 30.3569 33.4746C30.4823 33.3014 30.6543 33.1681 30.873 33.0747C31.0941 32.979 31.3481 32.9312 31.6353 32.9312ZM31.2695 35.8569C31.1829 35.923 31.1066 35.9914 31.0405 36.062C30.9767 36.1326 30.9277 36.2078 30.8936 36.2876C30.8594 36.3674 30.8423 36.4551 30.8423 36.5508C30.8423 36.7513 30.9175 36.9085 31.0679 37.0225C31.2183 37.1364 31.4051 37.1934 31.6284 37.1934C31.7788 37.1934 31.9189 37.1751 32.0488 37.1387C32.1787 37.1022 32.2972 37.0509 32.4043 36.9849L31.2695 35.8569ZM31.6284 33.7378C31.5122 33.7378 31.4006 33.7674 31.2935 33.8267C31.1886 33.8859 31.1362 33.9964 31.1362 34.1582C31.1362 34.2721 31.1659 34.3838 31.2251 34.4932C31.2843 34.6003 31.363 34.7096 31.4609 34.8213C31.6569 34.7142 31.8073 34.6071 31.9121 34.5C32.0169 34.3906 32.0693 34.2664 32.0693 34.1274C32.0693 33.9884 32.0215 33.8893 31.9258 33.8301C31.8324 33.7686 31.7332 33.7378 31.6284 33.7378Z" fill="black"/>
<path d="M40.2212 38L39.8589 36.8105H38.0371L37.6748 38H36.5332L38.2969 32.9824H39.5923L41.3628 38H40.2212ZM39.606 35.9219L39.2437 34.7598C39.2209 34.6823 39.1901 34.5832 39.1514 34.4624C39.1149 34.3394 39.0773 34.2152 39.0386 34.0898C39.0021 33.9622 38.9725 33.8517 38.9497 33.7583C38.9269 33.8517 38.895 33.9679 38.854 34.1069C38.8153 34.2437 38.7777 34.3735 38.7412 34.4966C38.7048 34.6196 38.6785 34.7074 38.6626 34.7598L38.3037 35.9219H39.606Z" fill="black"/>
<path d="M44.1108 38L42.9077 34.0796H42.877C42.8815 34.173 42.8883 34.3143 42.8975 34.5034C42.9089 34.6903 42.9191 34.8896 42.9282 35.1016C42.9373 35.3135 42.9419 35.5049 42.9419 35.6758V38H41.9951V33.0029H43.4375L44.6201 36.8242H44.6406L45.895 33.0029H47.3374V38H46.3496V35.6348C46.3496 35.4775 46.3519 35.2964 46.3564 35.0913C46.3633 34.8862 46.3713 34.6914 46.3804 34.5068C46.3895 34.32 46.3963 34.1799 46.4009 34.0864H46.3701L45.0815 38H44.1108Z" fill="black"/>
<path d="M52.666 33.0029V36.2363C52.666 36.5804 52.5897 36.8914 52.437 37.1694C52.2866 37.4451 52.0576 37.6639 51.75 37.8257C51.4447 37.9875 51.0596 38.0684 50.5947 38.0684C49.9339 38.0684 49.4303 37.8997 49.084 37.5625C48.7376 37.2253 48.5645 36.7786 48.5645 36.2227V33.0029H49.6206V36.062C49.6206 36.4744 49.7049 36.7638 49.8735 36.9302C50.0422 37.0965 50.2917 37.1797 50.6221 37.1797C50.8545 37.1797 51.0425 37.1398 51.186 37.0601C51.3319 36.9803 51.439 36.8573 51.5073 36.6909C51.5757 36.5246 51.6099 36.3127 51.6099 36.0552V33.0029H52.666Z" fill="black"/>
<path d="M56.8394 36.6123C56.8394 36.9085 56.7676 37.166 56.624 37.3848C56.4805 37.6035 56.2708 37.7721 55.9951 37.8906C55.7217 38.0091 55.389 38.0684 54.9971 38.0684C54.8239 38.0684 54.6541 38.057 54.4878 38.0342C54.3237 38.0114 54.1654 37.9784 54.0127 37.9351C53.8623 37.8895 53.7188 37.8337 53.582 37.7676V36.7832C53.819 36.888 54.0651 36.9826 54.3203 37.0669C54.5755 37.1512 54.8285 37.1934 55.0791 37.1934C55.2523 37.1934 55.3913 37.1706 55.4961 37.125C55.6032 37.0794 55.6807 37.0168 55.7285 36.937C55.7764 36.8573 55.8003 36.7661 55.8003 36.6636C55.8003 36.5382 55.7581 36.4312 55.6738 36.3423C55.5895 36.2534 55.4733 36.1702 55.3252 36.0928C55.1794 36.0153 55.0142 35.9321 54.8296 35.8433C54.7134 35.7886 54.5869 35.7225 54.4502 35.645C54.3135 35.5653 54.1836 35.4684 54.0605 35.3545C53.9375 35.2406 53.8361 35.1027 53.7563 34.9409C53.6789 34.7769 53.6401 34.5809 53.6401 34.353C53.6401 34.0545 53.7085 33.7993 53.8452 33.5874C53.9819 33.3755 54.1768 33.2137 54.4297 33.1021C54.6849 32.9881 54.9857 32.9312 55.332 32.9312C55.5918 32.9312 55.839 32.9619 56.0737 33.0234C56.3107 33.0827 56.5579 33.1693 56.8154 33.2832L56.4736 34.1069C56.2435 34.0135 56.0373 33.9417 55.855 33.8916C55.6727 33.8392 55.487 33.813 55.2979 33.813C55.1657 33.813 55.0529 33.8346 54.9595 33.8779C54.866 33.9189 54.7954 33.9782 54.7476 34.0557C54.6997 34.1309 54.6758 34.2186 54.6758 34.3188C54.6758 34.4373 54.71 34.5376 54.7783 34.6196C54.849 34.6994 54.9538 34.7769 55.0928 34.8521C55.234 34.9272 55.4095 35.015 55.6191 35.1152C55.8743 35.236 56.092 35.3625 56.272 35.4946C56.4543 35.6245 56.5944 35.7783 56.6924 35.9561C56.7904 36.1315 56.8394 36.3503 56.8394 36.6123Z" fill="black"/>
<path d="M60.623 38H57.7451V33.0029H60.623V33.8711H58.8047V34.9683H60.4966V35.8364H58.8047V37.125H60.623V38Z" fill="black"/>
<path d="M63.7847 38L62.5815 34.0796H62.5508C62.5553 34.173 62.5622 34.3143 62.5713 34.5034C62.5827 34.6903 62.5929 34.8896 62.6021 35.1016C62.6112 35.3135 62.6157 35.5049 62.6157 35.6758V38H61.6689V33.0029H63.1113L64.2939 36.8242H64.3145L65.5688 33.0029H67.0112V38H66.0234V35.6348C66.0234 35.4775 66.0257 35.2964 66.0303 35.0913C66.0371 34.8862 66.0451 34.6914 66.0542 34.5068C66.0633 34.32 66.0701 34.1799 66.0747 34.0864H66.0439L64.7554 38H63.7847Z" fill="black"/>
<path d="M71.1504 38H68.2725V33.0029H71.1504V33.8711H69.332V34.9683H71.0239V35.8364H69.332V37.125H71.1504V38Z" fill="black"/>
<path d="M76.6294 38H75.2827L73.1089 34.2197H73.0781C73.0872 34.377 73.0952 34.5353 73.1021 34.6948C73.1089 34.8543 73.1157 35.0138 73.1226 35.1733C73.1294 35.3306 73.1362 35.4889 73.1431 35.6484V38H72.1963V33.0029H73.5327L75.7031 36.7456H75.7271C75.7225 36.5907 75.7168 36.4368 75.71 36.2842C75.7031 36.1315 75.6963 35.9788 75.6895 35.8262C75.6849 35.6735 75.6803 35.5208 75.6758 35.3682V33.0029H76.6294V38Z" fill="black"/>
<path d="M79.8184 38H78.7588V33.8848H77.4019V33.0029H81.1753V33.8848H79.8184V38Z" fill="black"/>
<path d="M85.3589 33.0029C86.0037 33.0029 86.4743 33.1419 86.7705 33.4199C87.0667 33.6956 87.2148 34.0762 87.2148 34.5615C87.2148 34.7803 87.1818 34.9899 87.1157 35.1904C87.0496 35.3887 86.9414 35.5653 86.791 35.7202C86.6429 35.8752 86.4447 35.9982 86.1963 36.0894C85.9479 36.1782 85.6414 36.2227 85.2769 36.2227H84.8223V38H83.7627V33.0029H85.3589ZM85.3042 33.8711H84.8223V35.3545H85.1709C85.3691 35.3545 85.5412 35.3283 85.687 35.2759C85.8328 35.2235 85.9456 35.1414 86.0254 35.0298C86.1051 34.9181 86.145 34.7746 86.145 34.5991C86.145 34.353 86.0767 34.1707 85.9399 34.0522C85.8032 33.9315 85.5913 33.8711 85.3042 33.8711Z" fill="black"/>
<path d="M91.2173 38L90.855 36.8105H89.0332L88.6709 38H87.5293L89.293 32.9824H90.5884L92.3589 38H91.2173ZM90.6021 35.9219L90.2397 34.7598C90.217 34.6823 90.1862 34.5832 90.1475 34.4624C90.111 34.3394 90.0734 34.2152 90.0347 34.0898C89.9982 33.9622 89.9686 33.8517 89.9458 33.7583C89.923 33.8517 89.8911 33.9679 89.8501 34.1069C89.8114 34.2437 89.7738 34.3735 89.7373 34.4966C89.7008 34.6196 89.6746 34.7074 89.6587 34.7598L89.2998 35.9219H90.6021Z" fill="black"/>
<path d="M94.4473 33.0029C94.9007 33.0029 95.2744 33.0576 95.5684 33.167C95.8646 33.2764 96.0845 33.4416 96.228 33.6626C96.3716 33.8836 96.4434 34.1628 96.4434 34.5C96.4434 34.7279 96.4001 34.9272 96.3135 35.0981C96.2269 35.269 96.113 35.4137 95.9717 35.5322C95.8304 35.6507 95.6777 35.7476 95.5137 35.8228L96.9834 38H95.8076L94.6147 36.0825H94.0508V38H92.9912V33.0029H94.4473ZM94.3721 33.8711H94.0508V35.2212H94.3926C94.7435 35.2212 94.9941 35.1631 95.1445 35.0469C95.2972 34.9284 95.3735 34.7552 95.3735 34.5273C95.3735 34.2904 95.2915 34.1217 95.1274 34.0215C94.9657 33.9212 94.7139 33.8711 94.3721 33.8711Z" fill="black"/>
<path d="M101.632 38H100.429L99.1196 35.8945L98.6719 36.2158V38H97.6123V33.0029H98.6719V35.2896C98.7425 35.1916 98.812 35.0936 98.8804 34.9956C98.9487 34.8976 99.0182 34.7996 99.0889 34.7017L100.442 33.0029H101.618L99.875 35.2144L101.632 38Z" fill="black"/>
</svg>
