<svg width="136" height="11" viewBox="0 0 136 11" fill="none" xmlns="http://www.w3.org/2000/svg">
<path d="M9.512 7.088V1.502H8.616V9.104C9.21333 8.86133 9.512 8.18933 9.512 7.088ZM4.458 0.899999H16.05V1.502H14.664C14.188 1.502 13.8147 1.65133 13.544 1.95C13.2733 2.24867 13.138 2.61267 13.138 3.042V7.256C13.138 7.75067 13.04 8.18 12.844 8.544C12.6573 8.89867 12.34 9.216 11.892 9.496C11.0053 10.0373 9.484 10.308 7.328 10.308C5.18133 10.308 3.23533 9.96733 1.49 9.286V10H0.804V6.332H1.49C1.602 6.60267 1.82133 6.962 2.148 7.41C2.47467 7.858 2.80133 8.23133 3.128 8.53C3.464 8.82867 3.90267 9.09933 4.444 9.342C4.98533 9.58467 5.51733 9.706 6.04 9.706C7.132 9.706 7.678 9.202 7.678 8.194V3.042C7.678 2.61267 7.538 2.24867 7.258 1.95C6.98733 1.65133 6.61867 1.502 6.152 1.502H4.458V0.899999ZM34.0525 0.899999V1.502H33.3385L25.3865 10.322H24.8825L16.9725 1.502H16.0345V0.899999H25.8905V1.502H25.4985C25.2185 1.502 24.9991 1.6 24.8405 1.796C24.6911 1.992 24.6165 2.23933 24.6165 2.538C24.6165 2.986 24.7798 3.37333 25.1065 3.7L27.7245 6.36L29.5445 4.372C29.8245 4.08267 29.9645 3.72333 29.9645 3.294C29.9645 2.85533 29.7311 2.44933 29.2645 2.076C28.7978 1.69333 28.2098 1.502 27.5005 1.502H26.8005V0.899999H34.0525ZM25.7365 9.034L18.9885 1.502H17.7705L25.1205 9.706L25.7365 9.034ZM57.3203 1.502V9.398H58.2303V1.502H57.3203ZM65.7063 1.502H63.3683C62.9109 1.502 62.5423 1.59533 62.2623 1.782C61.9823 1.95933 61.8423 2.244 61.8423 2.636V7.886C61.8423 8.40867 61.9823 8.79133 62.2623 9.034C62.5423 9.27667 62.9109 9.398 63.3683 9.398H65.7063V10H53.1763V9.398H54.8563C55.3136 9.398 55.6823 9.27667 55.9623 9.034C56.2423 8.79133 56.3823 8.40867 56.3823 7.886V2.174L52.0983 8.81H51.3703L45.9663 4.246V6.122C45.9663 6.69133 46.1063 7.2 46.3863 7.648C46.6663 8.08667 47.0303 8.42733 47.4783 8.67C48.3743 9.15533 49.3403 9.398 50.3763 9.398V10H40.6463V9.398C41.6823 9.398 42.6483 9.15533 43.5443 8.67C43.9923 8.42733 44.3563 8.08667 44.6363 7.648C44.9163 7.2 45.0563 6.69133 45.0563 6.122V4.652C45.0563 4.036 44.8323 3.48533 44.3843 3C43.9363 2.50533 43.3669 2.132 42.6763 1.88C41.9856 1.628 41.2483 1.502 40.4643 1.502V0.899999H49.5223L53.8203 4.554L56.1723 0.899999H65.7063V1.502ZM51.8603 7.634V6.752L45.7003 1.53H44.3003L51.5103 7.634H51.8603ZM69.4218 8.194C68.8525 7.578 68.5678 6.87333 68.5678 6.08C68.5678 5.28667 68.8525 4.59133 69.4218 3.994C70.0005 3.38733 70.8078 2.93 71.8438 2.622L71.8158 2.496C70.5092 2.79467 69.4825 3.26133 68.7358 3.896C67.9892 4.53067 67.6158 5.25867 67.6158 6.08C67.6158 6.90133 67.9845 7.634 68.7218 8.278C69.4685 8.91267 70.4952 9.384 71.8018 9.692L71.8298 9.552C70.8032 9.25333 70.0005 8.80067 69.4218 8.194ZM73.8738 1.88C75.9552 1.88 77.6632 2.27667 78.9978 3.07C80.3325 3.854 80.9998 4.84333 80.9998 6.038C80.9998 7.23267 80.3045 8.24533 78.9138 9.076C77.5232 9.89733 75.8432 10.308 73.8738 10.308C72.5765 10.308 71.3772 10.1213 70.2758 9.748C69.1838 9.36533 68.3205 8.852 67.6858 8.208C67.0512 7.55467 66.7338 6.84533 66.7338 6.08C66.7338 4.85733 67.4012 3.854 68.7358 3.07C70.0798 2.27667 71.7925 1.88 73.8738 1.88ZM76.0438 2.72C76.4825 3.84 76.7018 4.96467 76.7018 6.094C76.7018 7.22333 76.4778 8.348 76.0298 9.468L76.0858 9.51C77.1405 8.614 77.6678 7.47533 77.6678 6.094C77.6678 4.71267 77.1452 3.574 76.0998 2.678L76.0438 2.72ZM75.3718 8.866C75.6705 8.31533 75.8198 7.39133 75.8198 6.094C75.8198 4.79667 75.6705 3.87267 75.3718 3.322C75.0732 2.77133 74.5738 2.496 73.8738 2.496C73.1738 2.496 72.6745 2.77133 72.3758 3.322C72.0772 3.87267 71.9278 4.79667 71.9278 6.094C71.9278 7.39133 72.0772 8.31533 72.3758 8.866C72.6745 9.41667 73.1738 9.692 73.8738 9.692C74.5738 9.692 75.0732 9.41667 75.3718 8.866ZM87.3927 10.308C86.086 10.308 85.1854 10.098 84.6907 9.678C84.2707 9.32333 84.0607 8.796 84.0607 8.096V4.036C84.0607 3.20533 83.6407 2.79 82.8007 2.79H81.8347V2.188H82.3947C83.1414 2.188 83.8367 2.00133 84.4807 1.628C85.0127 1.32933 85.4187 1.04933 85.6987 0.787999L85.8667 0.62H88.7787V2.188H91.9567V2.79H88.7787V7.13C88.7787 7.72733 88.9234 8.17533 89.2127 8.474C89.502 8.77267 89.8847 8.922 90.3607 8.922C90.8367 8.922 91.3407 8.796 91.8727 8.544L92.0967 9.104C90.678 9.90667 89.11 10.308 87.3927 10.308ZM84.9427 4.036V8.096C84.9427 9.06667 85.4234 9.64067 86.3847 9.818L86.3987 9.706C85.904 9.454 85.6567 8.91733 85.6567 8.096V4.036C85.6567 3.28 85.1014 2.79933 83.9907 2.594L83.9627 2.692C84.616 2.92533 84.9427 3.37333 84.9427 4.036ZM95.3437 8.194C94.7744 7.578 94.4897 6.87333 94.4897 6.08C94.4897 5.28667 94.7744 4.59133 95.3437 3.994C95.9224 3.38733 96.7297 2.93 97.7657 2.622L97.7377 2.496C96.431 2.79467 95.4044 3.26133 94.6577 3.896C93.911 4.53067 93.5377 5.25867 93.5377 6.08C93.5377 6.90133 93.9064 7.634 94.6437 8.278C95.3904 8.91267 96.417 9.384 97.7237 9.692L97.7517 9.552C96.725 9.25333 95.9224 8.80067 95.3437 8.194ZM99.7957 1.88C101.877 1.88 103.585 2.27667 104.92 3.07C106.254 3.854 106.922 4.84333 106.922 6.038C106.922 7.23267 106.226 8.24533 104.836 9.076C103.445 9.89733 101.765 10.308 99.7957 10.308C98.4984 10.308 97.299 10.1213 96.1977 9.748C95.1057 9.36533 94.2424 8.852 93.6077 8.208C92.973 7.55467 92.6557 6.84533 92.6557 6.08C92.6557 4.85733 93.323 3.854 94.6577 3.07C96.0017 2.27667 97.7144 1.88 99.7957 1.88ZM101.966 2.72C102.404 3.84 102.624 4.96467 102.624 6.094C102.624 7.22333 102.4 8.348 101.952 9.468L102.008 9.51C103.062 8.614 103.59 7.47533 103.59 6.094C103.59 4.71267 103.067 3.574 102.022 2.678L101.966 2.72ZM101.294 8.866C101.592 8.31533 101.742 7.39133 101.742 6.094C101.742 4.79667 101.592 3.87267 101.294 3.322C100.995 2.77133 100.496 2.496 99.7957 2.496C99.0957 2.496 98.5964 2.77133 98.2977 3.322C97.999 3.87267 97.8497 4.79667 97.8497 6.094C97.8497 7.39133 97.999 8.31533 98.2977 8.866C98.5964 9.41667 99.0957 9.692 99.7957 9.692C100.496 9.692 100.995 9.41667 101.294 8.866ZM115.219 4.624C115.732 3.70933 116.325 3.02333 116.997 2.566C117.678 2.10867 118.364 1.88 119.055 1.88C119.755 1.88 120.333 2.07133 120.791 2.454C121.257 2.82733 121.491 3.30333 121.491 3.882C121.491 4.45133 121.267 4.90867 120.819 5.254C120.38 5.59933 119.867 5.772 119.279 5.772C118.7 5.772 118.177 5.62733 117.711 5.338C117.253 5.03933 116.95 4.61467 116.801 4.064C116.175 4.53067 115.648 5.17467 115.219 5.996V8.152C115.219 8.98267 115.639 9.398 116.479 9.398H117.963V10H108.317V9.398H109.241C110.081 9.398 110.501 8.98267 110.501 8.152V4.036C110.501 3.7 110.375 3.41067 110.123 3.168C109.88 2.916 109.586 2.79 109.241 2.79H108.317V2.188H115.219V4.624ZM112.083 9.398V2.79H111.369V9.398H112.083ZM118.383 5.17C118.075 4.778 117.921 4.31133 117.921 3.77C117.921 3.22867 118.075 2.776 118.383 2.412C118.056 2.552 117.79 2.748 117.585 3C117.379 3.24267 117.277 3.50867 117.277 3.798C117.277 4.078 117.379 4.344 117.585 4.596C117.79 4.83867 118.056 5.03 118.383 5.17ZM134.23 2.748C134.277 2.57067 134.342 2.40267 134.426 2.244H135.028V4.82H134.44C134.114 4.33467 133.358 3.84 132.172 3.336C130.996 2.82267 129.764 2.566 128.476 2.566C127.543 2.566 127.076 2.76667 127.076 3.168C127.076 3.616 127.8 3.94267 129.246 4.148C130.674 4.36267 132.018 4.67067 133.278 5.072C133.894 5.27733 134.408 5.59467 134.818 6.024C135.238 6.45333 135.448 6.962 135.448 7.55C135.448 9.38867 133.652 10.308 130.058 10.308C127.958 10.308 125.966 9.99533 124.08 9.37L123.772 10.056H123.17V6.64H123.772C124.099 7.508 124.855 8.24067 126.04 8.838C127.226 9.43533 128.49 9.734 129.834 9.734C131.178 9.734 131.85 9.552 131.85 9.188C131.85 8.95467 131.552 8.73067 130.954 8.516C130.357 8.30133 129.634 8.09133 128.784 7.886C127.935 7.68067 127.086 7.44733 126.236 7.186C125.396 6.92467 124.678 6.57 124.08 6.122C123.483 5.674 123.184 5.16533 123.184 4.596C123.184 3.784 123.497 3.196 124.122 2.832C124.776 2.44933 125.48 2.216 126.236 2.132C126.946 2.048 127.702 2.006 128.504 2.006C129.316 2.006 130.278 2.08067 131.388 2.23C132.499 2.37933 133.446 2.552 134.23 2.748ZM123.982 4.526C123.982 5.15133 124.444 5.69267 125.368 6.15C126.292 6.598 127.818 7.08333 129.946 7.606C130.861 7.83 131.542 8.04 131.99 8.236C132.438 8.42267 132.812 8.698 133.11 9.062L133.222 9.048C133.222 8.572 133.05 8.19867 132.704 7.928C132.518 7.788 132.336 7.66667 132.158 7.564C131.99 7.46133 131.738 7.36333 131.402 7.27C131.066 7.16733 130.791 7.088 130.576 7.032C130.371 6.976 130.049 6.90133 129.61 6.808C129.181 6.70533 128.761 6.60733 128.35 6.514C127.949 6.41133 127.515 6.28533 127.048 6.136C126.582 5.97733 126.134 5.786 125.704 5.562C124.808 5.09533 124.332 4.512 124.276 3.812H124.178C124.048 4.07333 123.982 4.31133 123.982 4.526Z" fill="#0140A8"/>
</svg>
