<svg width="98" height="19" viewBox="0 0 98 19" fill="none" xmlns="http://www.w3.org/2000/svg">
<path d="M4.29297 5.78125C4.54688 5.83333 4.80404 5.86914 5.06445 5.88867C5.32487 5.9082 5.58854 5.91797 5.85547 5.91797C6.71484 5.91797 7.41797 5.77148 7.96484 5.47852C8.51172 5.18555 8.94141 4.7819 9.25391 4.26758C9.56641 3.75326 9.78451 3.14779 9.9082 2.45117C10.0319 1.74805 10.1003 0.989583 10.1133 0.175781C10.6732 0.201823 11.2005 0.240885 11.6953 0.292969C12.1901 0.338542 12.6296 0.38737 13.0137 0.439453C13.4564 0.498047 13.8698 0.559896 14.2539 0.625V3.10547C14.1562 3.07292 14.0293 3.03711 13.873 2.99805C13.7233 2.95898 13.554 2.91992 13.3652 2.88086C13.1829 2.83529 12.9844 2.79297 12.7695 2.75391C12.5612 2.70833 12.3464 2.66276 12.125 2.61719C12.0794 3.03385 12.0111 3.44727 11.9199 3.85742C11.8353 4.26107 11.7148 4.64844 11.5586 5.01953C11.4023 5.39062 11.2038 5.73242 10.9629 6.04492C10.7285 6.35091 10.4388 6.61458 10.0938 6.83594C10.5495 6.98568 10.9531 7.20703 11.3047 7.5C11.6562 7.79297 11.959 8.13151 12.2129 8.51562C12.4733 8.89323 12.6882 9.30664 12.8574 9.75586C13.0332 10.2051 13.1732 10.6608 13.2773 11.123C13.3815 11.5853 13.4564 12.0475 13.502 12.5098C13.5475 12.9655 13.5703 13.3919 13.5703 13.7891C13.5703 14.0039 13.5638 14.2122 13.5508 14.4141C13.5443 14.6094 13.5312 14.7917 13.5117 14.9609H11.207C11.2396 14.7266 11.2591 14.502 11.2656 14.2871C11.2786 14.0658 11.2852 13.8477 11.2852 13.6328C11.2852 12.7865 11.1842 12.0247 10.9824 11.3477C10.7806 10.6706 10.4974 10.0977 10.1328 9.62891C9.76823 9.15365 9.33203 8.79232 8.82422 8.54492C8.32292 8.29102 7.76953 8.16406 7.16406 8.16406C6.75391 8.16406 6.4056 8.17383 6.11914 8.19336C5.83268 8.21289 5.58203 8.24219 5.36719 8.28125C5.15234 8.3138 4.96029 8.35286 4.79102 8.39844C4.62826 8.44401 4.46224 8.48958 4.29297 8.53516V14.9609H1.89062V2.69531C1.51953 2.77344 1.17448 2.84831 0.855469 2.91992C0.542969 2.98503 0.308594 3.04688 0.152344 3.10547V0.625C0.523438 0.559896 0.933594 0.498047 1.38281 0.439453C1.76042 0.38737 2.19987 0.338542 2.70117 0.292969C3.20247 0.240885 3.73307 0.201823 4.29297 0.175781V5.78125ZM28.043 11.0156C27.8802 10.8724 27.6784 10.7324 27.4375 10.5957C27.1966 10.459 26.9004 10.3385 26.5488 10.2344C26.1973 10.1237 25.7773 10.0358 25.2891 9.9707C24.8073 9.89909 24.2409 9.86328 23.5898 9.86328C23.0104 9.86328 22.4603 9.8763 21.9395 9.90234C21.4251 9.92188 20.9727 9.98698 20.582 10.0977C20.1914 10.2018 19.8822 10.3711 19.6543 10.6055C19.4264 10.8398 19.3125 11.1654 19.3125 11.582V12.832C19.8854 12.9232 20.5169 12.998 21.207 13.0566C21.8971 13.1152 22.6654 13.1445 23.5117 13.1445C24.1888 13.1445 24.9082 13.1217 25.6699 13.0762C26.4382 13.0241 27.2292 12.9232 28.043 12.7734V11.0156ZM23.6484 3.86719C23.974 3.86719 24.3678 3.88346 24.8301 3.91602C25.2923 3.94857 25.7741 4.00716 26.2754 4.0918C26.7767 4.16992 27.2715 4.2806 27.7598 4.42383C28.2546 4.56055 28.6973 4.74284 29.0879 4.9707C29.485 5.19206 29.804 5.45898 30.0449 5.77148C30.2858 6.08398 30.4062 6.45182 30.4062 6.875V14.4336C29.8594 14.5443 29.2409 14.6387 28.5508 14.7168C27.9583 14.7884 27.252 14.8535 26.4316 14.9121C25.6113 14.9707 24.6966 15 23.6875 15C22.6849 15 21.6172 14.9577 20.4844 14.873C19.3581 14.7884 18.1797 14.6419 16.9492 14.4336V10.918C16.9492 10.5404 17.0371 10.2116 17.2129 9.93164C17.3952 9.64518 17.6426 9.40104 17.9551 9.19922C18.2676 8.9974 18.6354 8.83138 19.0586 8.70117C19.4818 8.57096 19.9375 8.4668 20.4258 8.38867C20.9141 8.31055 21.4219 8.25846 21.9492 8.23242C22.4766 8.19987 23.0039 8.18359 23.5312 8.18359C24.332 8.18359 25.0124 8.23568 25.5723 8.33984C26.1387 8.4375 26.6074 8.54492 26.9785 8.66211C27.4082 8.80534 27.763 8.96484 28.043 9.14062V7.55859C28.043 7.29167 27.9779 7.0638 27.8477 6.875C27.7174 6.67969 27.5417 6.51693 27.3203 6.38672C27.099 6.25 26.8451 6.14258 26.5586 6.06445C26.2721 5.97982 25.9727 5.91471 25.6602 5.86914C25.3477 5.82357 25.0286 5.79427 24.7031 5.78125C24.3841 5.76823 24.0846 5.76172 23.8047 5.76172C23.5117 5.76172 23.1992 5.77148 22.8672 5.79102C22.5352 5.80404 22.2031 5.83333 21.8711 5.87891C21.5456 5.92448 21.2298 5.98958 20.9238 6.07422C20.6243 6.15234 20.3574 6.25977 20.123 6.39648C19.8887 6.5332 19.6999 6.69922 19.5566 6.89453C19.4199 7.08333 19.3516 7.3112 19.3516 7.57812L16.9297 6.95312C16.9297 6.51693 17.0371 6.13932 17.252 5.82031C17.4668 5.49479 17.75 5.2181 18.1016 4.99023C18.4596 4.76237 18.8698 4.57682 19.332 4.43359C19.7943 4.28385 20.2728 4.16992 20.7676 4.0918C21.2689 4.00716 21.7669 3.94857 22.2617 3.91602C22.7565 3.88346 23.2188 3.86719 23.6484 3.86719ZM36.0312 15H33.8047V0.332031H36.0312V15ZM42.4375 15H39.957V3.86719H42.4375V15ZM41.207 0C41.6888 0 42.0697 0.0813802 42.3496 0.244141C42.6296 0.400391 42.7695 0.651042 42.7695 0.996094V1.48438C42.7695 1.79688 42.6296 2.02148 42.3496 2.1582C42.0697 2.29492 41.6888 2.36328 41.207 2.36328C40.7448 2.36328 40.3704 2.29492 40.084 2.1582C39.804 2.02148 39.6641 1.79688 39.6641 1.48438V0.996094C39.6641 0.651042 39.804 0.400391 40.084 0.244141C40.3704 0.0813802 40.7448 0 41.207 0ZM46.5 6.93359C46.474 6.72526 46.4121 6.54948 46.3145 6.40625C46.2233 6.26302 46.1224 6.14583 46.0117 6.05469C45.888 5.94401 45.7513 5.85286 45.6016 5.78125L46.6953 3.86719C46.9362 3.95182 47.1771 4.06576 47.418 4.20898C47.6198 4.33268 47.8314 4.49219 48.0527 4.6875C48.2806 4.8763 48.4792 5.11068 48.6484 5.39062C48.974 5.18229 49.306 4.98698 49.6445 4.80469C49.9896 4.61589 50.3477 4.45312 50.7188 4.31641C51.0964 4.17969 51.4902 4.07227 51.9004 3.99414C52.3171 3.90951 52.763 3.86719 53.2383 3.86719C54.2409 3.86719 55.1003 3.95182 55.8164 4.12109C56.5391 4.28385 57.1283 4.53125 57.584 4.86328C58.0462 5.1888 58.3848 5.5957 58.5996 6.08398C58.8145 6.57227 58.9219 7.14193 58.9219 7.79297V15H56.3633V8.39844C56.3633 8.03385 56.3145 7.72135 56.2168 7.46094C56.1191 7.19401 55.9857 6.9694 55.8164 6.78711C55.6536 6.59831 55.4616 6.44531 55.2402 6.32812C55.0189 6.21094 54.7878 6.12305 54.5469 6.06445C54.3125 5.99935 54.0716 5.95703 53.8242 5.9375C53.5768 5.91146 53.3424 5.89844 53.1211 5.89844C52.7044 5.89844 52.3073 5.92773 51.9297 5.98633C51.5521 6.04492 51.194 6.1263 50.8555 6.23047C50.5169 6.32812 50.1979 6.44531 49.8984 6.58203C49.599 6.71875 49.319 6.86198 49.0586 7.01172V15H46.5V6.93359ZM64.0586 11.7188C64.293 11.7188 64.5241 11.7383 64.752 11.7773C64.9863 11.8164 65.1947 11.875 65.377 11.9531C65.5592 12.0312 65.7057 12.1322 65.8164 12.2559C65.9336 12.3796 65.9922 12.526 65.9922 12.6953V14.1211C65.9922 14.2773 65.9336 14.4108 65.8164 14.5215C65.7057 14.6322 65.5592 14.7233 65.377 14.7949C65.1947 14.8665 64.9863 14.9186 64.752 14.9512C64.5241 14.9837 64.293 15 64.0586 15C63.8242 15 63.5931 14.9837 63.3652 14.9512C63.1374 14.9186 62.9323 14.8665 62.75 14.7949C62.5677 14.7233 62.4212 14.6322 62.3105 14.5215C62.1999 14.4108 62.1445 14.2773 62.1445 14.1211V12.6953C62.1445 12.526 62.1999 12.3796 62.3105 12.2559C62.4212 12.1322 62.5677 12.0312 62.75 11.9531C62.9323 11.875 63.1374 11.8164 63.3652 11.7773C63.5931 11.7383 63.8242 11.7188 64.0586 11.7188ZM74.7812 3.86719C75.3346 3.86719 75.8978 3.88997 76.4707 3.93555C77.0436 3.97461 77.5938 4.02995 78.1211 4.10156C78.6549 4.16667 79.153 4.24479 79.6152 4.33594C80.084 4.42708 80.4909 4.52474 80.8359 4.62891H80.9922V15.4883C80.9922 15.9505 80.8945 16.3802 80.6992 16.7773C80.5039 17.1745 80.2207 17.5163 79.8496 17.8027C79.4785 18.0957 79.0228 18.3236 78.4824 18.4863C77.9421 18.6491 77.3268 18.7305 76.6367 18.7305V17.0312C76.8971 17.0312 77.138 17.0052 77.3594 16.9531C77.5807 16.901 77.7728 16.8197 77.9355 16.709C78.1048 16.6048 78.235 16.4714 78.3262 16.3086C78.4238 16.1523 78.4727 15.9701 78.4727 15.7617V14.2578C77.8802 14.4857 77.265 14.668 76.627 14.8047C75.9954 14.9349 75.3802 15 74.7812 15C73.7786 15 72.8835 14.9316 72.0957 14.7949C71.3079 14.6517 70.6406 14.4336 70.0938 14.1406C69.5469 13.8477 69.1302 13.4766 68.8438 13.0273C68.5573 12.5781 68.4141 12.0443 68.4141 11.4258V7.44141C68.4141 6.82292 68.5573 6.28906 68.8438 5.83984C69.1302 5.39062 69.5469 5.01953 70.0938 4.72656C70.6406 4.43359 71.3079 4.21875 72.0957 4.08203C72.8835 3.9388 73.7786 3.86719 74.7812 3.86719ZM75.4844 13.0469C75.8424 13.0469 76.1712 13.0241 76.4707 12.9785C76.7702 12.9264 77.0404 12.8613 77.2812 12.7832C77.5286 12.7051 77.75 12.6237 77.9453 12.5391C78.1471 12.4479 78.3229 12.3633 78.4727 12.2852V6.21094C78.2969 6.14583 78.0918 6.08073 77.8574 6.01562C77.6296 5.95052 77.3822 5.89518 77.1152 5.84961C76.8548 5.79753 76.5846 5.75846 76.3047 5.73242C76.0247 5.69987 75.7513 5.68359 75.4844 5.68359C74.8789 5.68359 74.3027 5.69987 73.7559 5.73242C73.209 5.76497 72.7305 5.85286 72.3203 5.99609C71.9102 6.13932 71.5814 6.36068 71.334 6.66016C71.0931 6.95312 70.9727 7.36328 70.9727 7.89062V10.7617C70.9727 11.1068 71.028 11.403 71.1387 11.6504C71.2493 11.8978 71.4023 12.1061 71.5977 12.2754C71.7995 12.4447 72.0404 12.5814 72.3203 12.6855C72.6003 12.7832 72.9062 12.8613 73.2383 12.9199C73.5703 12.972 73.9251 13.0078 74.3027 13.0273C74.6868 13.0404 75.0807 13.0469 75.4844 13.0469ZM90.5234 3.69141C91.0703 3.69141 91.6139 3.71745 92.1543 3.76953C92.7012 3.82161 93.2253 3.90625 93.7266 4.02344C94.2279 4.14062 94.6966 4.28711 95.1328 4.46289C95.569 4.63867 95.9466 4.85026 96.2656 5.09766C96.5911 5.34505 96.8451 5.63151 97.0273 5.95703C97.2096 6.27604 97.3008 6.63411 97.3008 7.03125V12.0898C97.3008 12.4414 97.2096 12.7637 97.0273 13.0566C96.8451 13.3496 96.5911 13.6133 96.2656 13.8477C95.9466 14.0755 95.569 14.2741 95.1328 14.4434C94.6966 14.6126 94.2279 14.7526 93.7266 14.8633C93.2253 14.974 92.7012 15.0553 92.1543 15.1074C91.6074 15.166 91.0638 15.1953 90.5234 15.1953C89.9831 15.1953 89.4395 15.166 88.8926 15.1074C88.3522 15.0553 87.8314 14.974 87.3301 14.8633C86.8288 14.7526 86.36 14.6126 85.9238 14.4434C85.4941 14.2741 85.1165 14.0755 84.791 13.8477C84.472 13.6133 84.2214 13.3529 84.0391 13.0664C83.8568 12.7734 83.7656 12.4479 83.7656 12.0898V7.03125C83.7656 6.63411 83.8568 6.27604 84.0391 5.95703C84.2214 5.63151 84.472 5.34505 84.791 5.09766C85.1165 4.85026 85.4941 4.63867 85.9238 4.46289C86.36 4.28711 86.8288 4.14062 87.3301 4.02344C87.8314 3.90625 88.3522 3.82161 88.8926 3.76953C89.4395 3.71745 89.9831 3.69141 90.5234 3.69141ZM86.2461 11.4648C86.2461 11.7643 86.3698 12.0247 86.6172 12.2461C86.8711 12.4609 87.1999 12.6432 87.6035 12.793C88.0072 12.9362 88.4629 13.0436 88.9707 13.1152C89.485 13.1868 90.0026 13.2227 90.5234 13.2227C91.0703 13.2227 91.5977 13.1836 92.1055 13.1055C92.6198 13.0273 93.0755 12.9167 93.4727 12.7734C93.8698 12.6237 94.1855 12.4414 94.4199 12.2266C94.6608 12.0052 94.7812 11.7513 94.7812 11.4648V7.40234C94.7812 7.1224 94.6608 6.87174 94.4199 6.65039C94.1855 6.42253 93.8698 6.23372 93.4727 6.08398C93.0755 5.92773 92.6198 5.81055 92.1055 5.73242C91.5977 5.64779 91.0703 5.60547 90.5234 5.60547C90.0026 5.60547 89.485 5.64453 88.9707 5.72266C88.4629 5.79427 88.0072 5.90495 87.6035 6.05469C87.1999 6.20443 86.8711 6.39323 86.6172 6.62109C86.3698 6.84245 86.2461 7.10286 86.2461 7.40234V11.4648Z" fill="black"/>
</svg>
