<svg width="95" height="18" viewBox="0 0 95 18" fill="none" xmlns="http://www.w3.org/2000/svg">
<path d="M0.960938 17V0.59375H2.55469V15.4297H9.77344V17H0.960938ZM10.9219 17L14.0625 3.07812H14.4609L15.0234 5.67969L12.4922 17H10.9219ZM14.2266 14.1641L14.5547 12.6172H17.6719L15.0234 0.617188H16.6172L20.2734 17H18.6797L18.0703 14.1641H14.2266ZM21.7734 17H23.3672V0.59375H21.7734V17ZM24.4922 17.0234H26.9297C28.6797 17.0234 30.0156 16.3984 30.9375 15.1484C31.5625 14.3203 31.875 13.3594 31.875 12.2656C31.8594 10.7812 31.2969 9.61719 30.1875 8.77344C31.0938 8.10156 31.625 7.13281 31.7812 5.86719C31.7969 5.67969 31.8047 5.49219 31.8047 5.30469C31.8047 3.89844 31.3203 2.74219 30.3516 1.83594C29.4453 1.00781 28.2812 0.59375 26.8594 0.59375H24.4922V2.04688H26.6953C28.1953 2.04688 29.2422 2.64062 29.8359 3.82812C30.0859 4.32812 30.2109 4.84375 30.2109 5.375C30.1797 7.14062 29.1953 8.03125 27.2578 8.04688H24.4922V9.47656H27.2578C28.9922 9.47656 29.9844 10.1719 30.2344 11.5625C30.2656 11.7656 30.2812 11.9766 30.2812 12.1953C30.2812 13.3672 29.8047 14.2656 28.8516 14.8906C28.1484 15.3438 27.25 15.5703 26.1562 15.5703H24.4922V17.0234ZM33.7031 17V0.59375H42.2344V2.16406H35.2969V8.04688H40.0312V9.61719H35.2969V15.4297H42.2344V17H33.7031ZM44.1094 17V0.59375H45.7031V15.4297H52.9219V17H44.1094ZM53.5547 0.59375H55.1719L59.4844 15.3828L58.9219 17H58.3125L53.5547 0.59375ZM59.1797 10.8359L62.6484 0.59375H64.2422C64.1641 0.859375 63.5703 2.65625 62.4609 5.98438C60.9766 10.4219 60.1875 12.8125 60.0938 13.1562H59.8594L59.1797 10.8359ZM65.2031 17L68.3438 3.07812H68.7422L69.3047 5.67969L66.7734 17H65.2031ZM68.5078 14.1641L68.8359 12.6172H71.9531L69.3047 0.617188H70.8984L74.5547 17H72.9609L72.3516 14.1641H68.5078ZM76.1484 17V0.59375H77.7422V15.4297H84.9609V17H76.1484ZM86.3438 17V0.59375H94.875V2.16406H87.9375V8.04688H92.6719V9.61719H87.9375V15.4297H94.875V17H86.3438Z" fill="#0F4634"/>
</svg>
