<svg width="99" height="21" viewBox="0 0 99 21" fill="none" xmlns="http://www.w3.org/2000/svg">
<path d="M2.896 2.52H4.336V15.216H17.896V16.68H2.896V2.52ZM1.576 18.024H19.216V13.872H5.68V1.176H1.576V18.024ZM0.976 0.576H6.28L8.608 3.048V13.272H19.816L22.144 15.744V20.952H3.448L0.976 18.624V0.576ZM35.503 15.216C36.431 15.216 37.295 15.12 38.095 14.928C38.911 14.72 39.615 14.4 40.207 13.968C40.815 13.52 41.287 12.944 41.623 12.24C41.959 11.52 42.127 10.64 42.127 9.6C42.127 8.576 41.951 7.704 41.599 6.984C41.263 6.264 40.799 5.688 40.207 5.256C39.615 4.808 38.911 4.488 38.095 4.296C37.295 4.088 36.431 3.984 35.503 3.984H32.863C31.919 3.984 31.039 4.088 30.223 4.296C29.423 4.488 28.727 4.808 28.135 5.256C27.543 5.688 27.071 6.264 26.719 6.984C26.383 7.704 26.215 8.576 26.215 9.6C26.215 10.64 26.383 11.52 26.719 12.24C27.071 12.944 27.543 13.52 28.135 13.968C28.727 14.416 29.423 14.736 30.223 14.928C31.039 15.12 31.919 15.216 32.863 15.216H35.503ZM32.863 13.872C32.143 13.872 31.463 13.8 30.823 13.656C30.183 13.512 29.623 13.28 29.143 12.96C28.663 12.624 28.279 12.184 27.991 11.64C27.703 11.096 27.559 10.416 27.559 9.6C27.559 8.8 27.703 8.128 27.991 7.584C28.279 7.04 28.663 6.6 29.143 6.264C29.639 5.928 30.207 5.688 30.847 5.544C31.487 5.4 32.159 5.328 32.863 5.328H35.503C36.207 5.328 36.879 5.4 37.519 5.544C38.159 5.688 38.719 5.928 39.199 6.264C39.679 6.6 40.063 7.04 40.351 7.584C40.639 8.128 40.783 8.8 40.783 9.6C40.783 10.4 40.639 11.072 40.351 11.616C40.079 12.16 39.703 12.6 39.223 12.936C38.743 13.272 38.183 13.512 37.543 13.656C36.903 13.8 36.223 13.872 35.503 13.872H32.863ZM24.703 9.6C24.703 8.304 24.903 7.208 25.303 6.312C25.719 5.416 26.287 4.688 27.007 4.128C27.743 3.552 28.607 3.144 29.599 2.904C30.607 2.648 31.695 2.52 32.863 2.52H35.503C36.671 2.52 37.751 2.648 38.743 2.904C39.735 3.16 40.591 3.568 41.311 4.128C42.047 4.688 42.615 5.416 43.015 6.312C43.431 7.208 43.639 8.304 43.639 9.6C43.639 10.896 43.431 11.992 43.015 12.888C42.615 13.784 42.047 14.512 41.311 15.072C40.591 15.632 39.735 16.04 38.743 16.296C37.751 16.552 36.671 16.68 35.503 16.68H32.863C31.695 16.68 30.607 16.56 29.599 16.32C28.607 16.064 27.743 15.656 27.007 15.096C26.287 14.52 25.719 13.784 25.303 12.888C24.903 11.992 24.703 10.896 24.703 9.6ZM23.359 9.6C23.359 11.12 23.591 12.416 24.055 13.488C24.535 14.544 25.191 15.408 26.023 16.08C26.871 16.752 27.871 17.248 29.023 17.568C30.191 17.872 31.471 18.024 32.863 18.024H35.503C36.895 18.024 38.167 17.872 39.319 17.568C40.471 17.248 41.463 16.752 42.295 16.08C43.143 15.408 43.799 14.544 44.263 13.488C44.727 12.416 44.959 11.12 44.959 9.6C44.959 8.08 44.727 6.792 44.263 5.736C43.799 4.664 43.143 3.792 42.295 3.12C41.463 2.448 40.471 1.96 39.319 1.656C38.167 1.336 36.895 1.176 35.503 1.176H32.863C31.471 1.176 30.191 1.336 29.023 1.656C27.871 1.96 26.871 2.448 26.023 3.12C25.191 3.792 24.535 4.664 24.055 5.736C23.591 6.792 23.359 8.08 23.359 9.6ZM22.759 9.6C22.759 7.968 23.007 6.584 23.503 5.448C23.999 4.296 24.695 3.36 25.591 2.64C26.487 1.92 27.551 1.4 28.783 1.08C30.031 0.743999 31.391 0.576 32.863 0.576H35.503C36.431 0.576 37.303 0.631999 38.119 0.743999C38.951 0.839999 39.767 1.056 40.567 1.392C41.367 1.712 42.159 2.176 42.943 2.784C43.743 3.376 44.567 4.176 45.415 5.184C46.135 5.904 46.727 6.856 47.191 8.04C47.655 9.224 47.887 10.544 47.887 12C47.887 13.616 47.639 14.992 47.143 16.128C46.663 17.264 45.975 18.184 45.079 18.888C44.199 19.608 43.143 20.128 41.911 20.448C40.695 20.784 39.359 20.952 37.903 20.952H35.263C33.631 20.952 32.111 20.768 30.703 20.4C29.295 20.032 28.135 19.4 27.223 18.504C26.311 17.704 25.567 16.952 24.991 16.248C24.415 15.528 23.959 14.816 23.623 14.112C23.303 13.408 23.079 12.688 22.951 11.952C22.823 11.216 22.759 10.432 22.759 9.6ZM35.503 13.272C36.127 13.272 36.719 13.216 37.279 13.104C37.855 12.976 38.359 12.768 38.791 12.48C39.223 12.192 39.559 11.816 39.799 11.352C40.055 10.872 40.183 10.288 40.183 9.6C40.183 9.216 40.135 8.864 40.039 8.544C39.383 8.352 38.671 8.256 37.903 8.256H35.263C34.623 8.256 34.015 8.32 33.439 8.448C32.863 8.576 32.351 8.784 31.903 9.072C31.471 9.36 31.127 9.744 30.871 10.224C30.615 10.704 30.487 11.296 30.487 12C30.487 12.384 30.519 12.704 30.583 12.96C30.919 13.072 31.279 13.152 31.663 13.2C32.047 13.248 32.447 13.272 32.863 13.272H35.503ZM65.2797 11.472L60.2157 4.296L55.0317 11.472H65.2797ZM62.6877 10.176H57.5997L60.1677 6.576L62.6877 10.176ZM68.8557 16.68L66.2637 12.96H53.9997C53.5517 13.568 53.1117 14.192 52.6797 14.832C52.2637 15.456 51.8317 16.072 51.3837 16.68H49.4637C51.1597 14.296 52.8477 11.936 54.5277 9.6C56.2237 7.264 57.9117 4.904 59.5917 2.52H60.7437L70.6557 16.68H68.8557ZM58.9437 1.176L46.9437 18.024H52.0317L54.6717 14.304H65.5197L68.1357 18.024H73.2237L61.4637 1.176H58.9437ZM64.1517 3.048L76.6317 20.952H70.2477L67.8237 18.624L66.8397 17.232H57.3597C57.1677 17.52 56.9517 17.824 56.7117 18.144C56.4877 18.464 56.2557 18.784 56.0157 19.104C55.7917 19.44 55.5677 19.76 55.3437 20.064C55.1197 20.384 54.9117 20.68 54.7197 20.952H48.3117L45.7677 18.624L58.6317 0.576H61.7757L64.1517 3.048ZM81.307 16.68C79.611 14.296 77.923 11.936 76.243 9.6C74.563 7.264 72.875 4.904 71.179 2.52H73.099L81.931 14.904C83.387 12.84 84.827 10.784 86.251 8.736C87.691 6.672 89.131 4.6 90.571 2.52H92.371L82.459 16.68H81.307ZM89.851 1.176C88.523 3.096 87.203 5.008 85.891 6.912C84.579 8.816 83.243 10.72 81.883 12.624L73.747 1.176H68.659L80.659 18.024H83.179L94.939 1.176H89.851ZM98.347 3.048L85.867 20.952H82.771L80.347 18.624L67.483 0.576H74.539L76.435 3.048L82.171 11.184C82.667 10.496 83.163 9.792 83.659 9.072C84.171 8.336 84.715 7.552 85.291 6.72C85.883 5.872 86.523 4.952 87.211 3.96C87.899 2.952 88.675 1.824 89.539 0.576H96.067L98.347 3.048Z" fill="#FF0099"/>
</svg>
