<svg width="96" height="16" viewBox="0 0 96 16" fill="none" xmlns="http://www.w3.org/2000/svg">
<path d="M0.703125 0.46875H6.79688L10.418 7.33594L13.8457 0.46875H19.4531V2.34375H17.5781V13.125H19.4531V15H11.9531V13.125H13.8281V4.66992L10.0781 12.1875H8.90625L4.92188 4.64062V13.125H6.79688V15H0.703125V13.125H2.57812V2.34375H0.703125V0.46875ZM27.4219 0.46875H30L35.6074 13.125H37.0312V15H29.5312V13.125H31.4062L30.5742 11.25H25.2773L24.498 13.125H28.125V15H20.625V13.125H22.1543L27.4219 0.46875ZM26.0566 9.375H29.7422L28.2891 6.09375C28.1016 5.66406 27.9531 5.24219 27.8438 4.82812C27.6914 5.36719 27.5508 5.78906 27.4219 6.09375L26.0566 9.375ZM38.2031 0.46875H46.1719V2.34375H43.8281V13.125H47.5781C47.7422 13.125 47.8887 13.0625 48.0176 12.9375C48.1465 12.8086 48.2441 12.6445 48.3105 12.4453C48.3809 12.2461 48.4316 12.0449 48.4629 11.8418C48.498 11.6387 48.5156 11.4414 48.5156 11.25V9.375H50.625V15H38.2031V13.125H40.0781V2.34375H38.2031V0.46875ZM49.6641 0.46875H63.2578V5.15625H61.1484V4.21875C61.1484 4.02734 61.1309 3.83008 61.0957 3.62695C61.0645 3.42383 61.0137 3.22266 60.9434 3.02344C60.877 2.82422 60.7793 2.66211 60.6504 2.53711C60.5215 2.4082 60.375 2.34375 60.2109 2.34375H58.3359V13.125H60.2109V15H52.7109V13.125H54.5859V2.34375H52.7109C52.5469 2.34375 52.4004 2.4082 52.2715 2.53711C52.1426 2.66211 52.043 2.82422 51.9727 3.02344C51.9062 3.22266 51.8555 3.42383 51.8203 3.62695C51.7891 3.83008 51.7734 4.02734 51.7734 4.21875V5.15625H49.6641V0.46875ZM69.8086 0.457031C70.4453 0.308594 71.1133 0.234375 71.8125 0.234375C72.5117 0.234375 73.1777 0.308594 73.8105 0.457031C74.4473 0.601562 75.0215 0.804688 75.5332 1.06641C76.0488 1.32812 76.5234 1.64062 76.957 2.00391C77.3906 2.36719 77.7656 2.76953 78.082 3.21094C78.3984 3.64844 78.666 4.11523 78.8848 4.61133C79.1074 5.10352 79.2734 5.61328 79.3828 6.14062C79.4922 6.66406 79.5469 7.19531 79.5469 7.73438C79.5469 8.27344 79.4922 8.80664 79.3828 9.33398C79.2734 9.85742 79.1074 10.3672 78.8848 10.8633C78.666 11.3555 78.3984 11.8223 78.082 12.2637C77.7656 12.7012 77.3906 13.1016 76.957 13.4648C76.5234 13.8281 76.0488 14.1406 75.5332 14.4023C75.0215 14.6641 74.4473 14.8672 73.8105 15.0117C73.1777 15.1602 72.5117 15.2344 71.8125 15.2344C71.1133 15.2344 70.4453 15.1602 69.8086 15.0117C69.1758 14.8672 68.6016 14.6641 68.0859 14.4023C67.5742 14.1406 67.1016 13.8281 66.668 13.4648C66.2344 13.1016 65.8594 12.7012 65.543 12.2637C65.2266 11.8223 64.957 11.3555 64.7344 10.8633C64.5156 10.3672 64.3516 9.85742 64.2422 9.33398C64.1328 8.80664 64.0781 8.27344 64.0781 7.73438C64.0781 7.19531 64.1328 6.66406 64.2422 6.14062C64.3516 5.61328 64.5156 5.10352 64.7344 4.61133C64.957 4.11523 65.2266 3.64844 65.543 3.21094C65.8594 2.76953 66.2344 2.36719 66.668 2.00391C67.1016 1.64062 67.5742 1.32812 68.0859 1.06641C68.6016 0.804688 69.1758 0.601562 69.8086 0.457031ZM73.1016 2.40234C72.7148 2.20703 72.2852 2.10938 71.8125 2.10938C71.3398 2.10938 70.9082 2.20703 70.5176 2.40234C70.1309 2.59375 69.8008 2.85938 69.5273 3.19922C69.2578 3.53906 69.0293 3.94727 68.8418 4.42383C68.6543 4.89648 68.5156 5.41016 68.4258 5.96484C68.3398 6.51953 68.2969 7.10938 68.2969 7.73438C68.2969 8.51562 68.3711 9.24414 68.5195 9.91992C68.6719 10.5918 68.8906 11.1855 69.1758 11.7012C69.4609 12.2168 69.8281 12.623 70.2773 12.9199C70.7305 13.2129 71.2422 13.3594 71.8125 13.3594C72.3828 13.3594 72.8926 13.2129 73.3418 12.9199C73.7949 12.623 74.1641 12.2168 74.4492 11.7012C74.7344 11.1855 74.9512 10.5918 75.0996 9.91992C75.252 9.24414 75.3281 8.51562 75.3281 7.73438C75.3281 7.10938 75.2832 6.51953 75.1934 5.96484C75.1074 5.41016 74.9707 4.89648 74.7832 4.42383C74.5957 3.94727 74.3652 3.53906 74.0918 3.19922C73.8223 2.85938 73.4922 2.59375 73.1016 2.40234ZM87.8672 8.39648C88.1289 9.00195 88.3633 9.71875 88.5703 10.5469C88.7734 9.73828 89.0078 9.02148 89.2734 8.39648L91.8516 2.34375H89.2734V0.46875H95.6016V2.34375H94.1953L88.8047 15H86.2266L80.8359 2.34375H79.4297V0.46875H86.9297V2.34375H85.2891L87.8672 8.39648Z" fill="#0140A8"/>
</svg>
