<svg width="96" height="96" viewBox="0 0 96 96" fill="none" xmlns="http://www.w3.org/2000/svg">
<path d="M20.8457 73.7201C18.3467 73.7201 16.3962 73.0191 14.9943 71.6172C13.6534 70.1544 12.9829 68.1125 12.9829 65.4915C12.9829 63.0534 13.6838 61.0724 15.0857 59.5486C16.5486 57.9639 18.4686 57.1715 20.8457 57.1715C23.3448 57.1715 25.2953 57.9029 26.6972 59.3658C28.0991 60.7677 28.8 62.8096 28.8 65.4915C28.8 67.9296 28.0381 69.9105 26.5143 71.4344C25.0515 72.9582 23.1619 73.7201 20.8457 73.7201ZM50.3607 72.7144L30.0636 24.1658H46.2465L58.315 60.0972L54.7493 60.5544L67.1836 24.1658H83.275L61.8807 72.7144H50.3607Z" fill="#4DFA92"/>
</svg>
