<svg width="583" height="342" viewBox="0 0 583 342" fill="none" xmlns="http://www.w3.org/2000/svg">
<path d="M60.7189 63L529.686 0L574.114 312L0 330.5L60.7189 63Z" fill="#4DFA92"/>
<path d="M69.6046 74.5L538.572 11.5L583 323.5L8.88569 342L69.6046 74.5Z" fill="#474747"/>
<path d="M164.48 196V168H171.32V189.96H183.8V196H164.48ZM197.593 196.4C195.246 196.4 193.193 195.933 191.433 195C189.699 194.067 188.353 192.787 187.393 191.16C186.459 189.507 185.993 187.627 185.993 185.52C185.993 183.867 186.259 182.36 186.793 181C187.326 179.613 188.073 178.427 189.033 177.44C190.019 176.453 191.166 175.693 192.473 175.16C193.806 174.6 195.259 174.32 196.833 174.32C198.326 174.32 199.686 174.587 200.913 175.12C202.139 175.653 203.206 176.4 204.113 177.36C205.019 178.32 205.713 179.453 206.193 180.76C206.673 182.067 206.899 183.493 206.873 185.04L206.833 186.8H189.953L188.993 183.16H201.593L200.913 183.88V183.08C200.859 182.413 200.646 181.84 200.273 181.36C199.926 180.853 199.459 180.453 198.873 180.16C198.313 179.867 197.673 179.72 196.953 179.72C195.886 179.72 194.979 179.933 194.233 180.36C193.513 180.76 192.966 181.347 192.593 182.12C192.219 182.893 192.033 183.853 192.033 185C192.033 186.147 192.273 187.16 192.753 188.04C193.259 188.92 193.979 189.6 194.913 190.08C195.873 190.56 197.006 190.8 198.313 190.8C199.193 190.8 199.993 190.667 200.713 190.4C201.433 190.133 202.206 189.68 203.033 189.04L206.033 193.28C205.206 193.973 204.326 194.56 203.393 195.04C202.459 195.493 201.499 195.827 200.513 196.04C199.553 196.28 198.579 196.4 197.593 196.4ZM222.269 196V182.96C222.269 181.867 221.963 181.067 221.349 180.56C220.763 180.027 219.936 179.76 218.869 179.76C217.829 179.76 216.896 179.96 216.069 180.36C215.269 180.733 214.496 181.36 213.749 182.24L209.909 178.52C211.189 177.213 212.656 176.187 214.309 175.44C215.963 174.693 217.763 174.32 219.709 174.32C221.496 174.32 223.043 174.587 224.349 175.12C225.656 175.653 226.669 176.467 227.389 177.56C228.109 178.653 228.469 180.04 228.469 181.72V196H222.269ZM216.749 196.4C215.416 196.4 214.203 196.133 213.109 195.6C212.043 195.067 211.189 194.333 210.549 193.4C209.936 192.44 209.629 191.32 209.629 190.04C209.629 188.947 209.829 187.987 210.229 187.16C210.629 186.333 211.216 185.653 211.989 185.12C212.789 184.56 213.776 184.147 214.949 183.88C216.149 183.587 217.536 183.44 219.109 183.44H225.549L225.189 187.48H219.269C218.709 187.48 218.216 187.533 217.789 187.64C217.363 187.72 217.003 187.867 216.709 188.08C216.416 188.267 216.189 188.493 216.029 188.76C215.896 189.027 215.829 189.347 215.829 189.72C215.829 190.12 215.936 190.467 216.149 190.76C216.363 191.053 216.643 191.28 216.989 191.44C217.363 191.6 217.789 191.68 218.269 191.68C218.963 191.68 219.616 191.573 220.229 191.36C220.869 191.12 221.429 190.787 221.909 190.36C222.416 189.933 222.816 189.44 223.109 188.88L224.229 191.76C223.669 192.667 222.989 193.467 222.189 194.16C221.416 194.853 220.563 195.4 219.629 195.8C218.723 196.2 217.763 196.4 216.749 196.4ZM241.686 196.4C239.872 196.4 238.232 195.933 236.766 195C235.326 194.067 234.192 192.773 233.366 191.12C232.539 189.44 232.126 187.533 232.126 185.4C232.126 183.267 232.539 181.373 233.366 179.72C234.192 178.04 235.326 176.72 236.766 175.76C238.232 174.8 239.886 174.32 241.726 174.32C242.686 174.32 243.606 174.467 244.486 174.76C245.392 175.053 246.192 175.453 246.886 175.96C247.606 176.467 248.192 177.04 248.646 177.68C249.099 178.32 249.379 179 249.486 179.72L247.926 180.08V166.4H254.366V196H248.366L248.006 191.2L249.286 191.44C249.232 192.08 248.992 192.707 248.566 193.32C248.139 193.907 247.566 194.44 246.846 194.92C246.152 195.373 245.366 195.733 244.486 196C243.606 196.267 242.672 196.4 241.686 196.4ZM243.286 191.08C244.272 191.08 245.112 190.853 245.806 190.4C246.526 189.92 247.086 189.253 247.486 188.4C247.886 187.547 248.086 186.547 248.086 185.4C248.086 184.227 247.886 183.213 247.486 182.36C247.086 181.507 246.526 180.853 245.806 180.4C245.112 179.92 244.272 179.68 243.286 179.68C242.326 179.68 241.486 179.92 240.766 180.4C240.072 180.853 239.526 181.507 239.126 182.36C238.726 183.213 238.526 184.227 238.526 185.4C238.526 186.547 238.726 187.547 239.126 188.4C239.526 189.253 240.072 189.92 240.766 190.4C241.486 190.853 242.326 191.08 243.286 191.08ZM302.827 196.4C300.481 196.4 298.427 195.933 296.667 195C294.934 194.067 293.587 192.787 292.627 191.16C291.694 189.507 291.227 187.627 291.227 185.52C291.227 183.867 291.494 182.36 292.027 181C292.561 179.613 293.307 178.427 294.267 177.44C295.254 176.453 296.401 175.693 297.707 175.16C299.041 174.6 300.494 174.32 302.067 174.32C303.561 174.32 304.921 174.587 306.147 175.12C307.374 175.653 308.441 176.4 309.347 177.36C310.254 178.32 310.947 179.453 311.427 180.76C311.907 182.067 312.134 183.493 312.107 185.04L312.067 186.8H295.187L294.227 183.16H306.827L306.147 183.88V183.08C306.094 182.413 305.881 181.84 305.507 181.36C305.161 180.853 304.694 180.453 304.107 180.16C303.547 179.867 302.907 179.72 302.187 179.72C301.121 179.72 300.214 179.933 299.467 180.36C298.747 180.76 298.201 181.347 297.827 182.12C297.454 182.893 297.267 183.853 297.267 185C297.267 186.147 297.507 187.16 297.987 188.04C298.494 188.92 299.214 189.6 300.147 190.08C301.107 190.56 302.241 190.8 303.547 190.8C304.427 190.8 305.227 190.667 305.947 190.4C306.667 190.133 307.441 189.68 308.267 189.04L311.267 193.28C310.441 193.973 309.561 194.56 308.627 195.04C307.694 195.493 306.734 195.827 305.747 196.04C304.787 196.28 303.814 196.4 302.827 196.4ZM316.184 196V174.76H322.304L322.544 179.08L321.224 179.56C321.517 178.6 322.037 177.733 322.784 176.96C323.557 176.16 324.477 175.52 325.544 175.04C326.61 174.56 327.73 174.32 328.904 174.32C330.504 174.32 331.85 174.653 332.944 175.32C334.037 175.96 334.85 176.933 335.384 178.24C335.944 179.52 336.224 181.107 336.224 183V196H329.784V183.48C329.784 182.627 329.664 181.92 329.424 181.36C329.184 180.8 328.824 180.387 328.344 180.12C327.864 179.853 327.264 179.733 326.544 179.76C325.984 179.76 325.464 179.853 324.984 180.04C324.504 180.2 324.077 180.453 323.704 180.8C323.357 181.12 323.09 181.493 322.904 181.92C322.717 182.347 322.624 182.827 322.624 183.36V196H319.384C318.69 196 318.064 196 317.504 196C316.97 196 316.53 196 316.184 196ZM343.373 196V169.4H349.813V196H343.373ZM339.613 180.4V174.76H353.893V180.4H339.613ZM364.83 196.4C363.283 196.4 361.95 196.067 360.83 195.4C359.71 194.707 358.843 193.733 358.23 192.48C357.643 191.2 357.35 189.667 357.35 187.88V174.76H363.79V186.92C363.79 188.227 364.097 189.253 364.71 190C365.35 190.72 366.23 191.08 367.35 191.08C367.91 191.08 368.417 191 368.87 190.84C369.323 190.653 369.71 190.4 370.03 190.08C370.377 189.733 370.643 189.333 370.83 188.88C371.017 188.427 371.11 187.933 371.11 187.4V174.76H377.55V196H371.51L371.27 191.64L372.43 191.16C372.137 192.147 371.603 193.04 370.83 193.84C370.083 194.64 369.19 195.267 368.15 195.72C367.11 196.173 366.003 196.4 364.83 196.4ZM383.293 196V174.76H389.413L389.693 181.68L388.493 180.32C388.84 179.2 389.373 178.187 390.093 177.28C390.813 176.373 391.666 175.653 392.653 175.12C393.666 174.587 394.72 174.32 395.813 174.32C396.293 174.32 396.733 174.36 397.133 174.44C397.56 174.493 397.933 174.587 398.253 174.72L396.533 181.8C396.24 181.64 395.84 181.507 395.333 181.4C394.853 181.267 394.346 181.2 393.813 181.2C393.226 181.2 392.68 181.307 392.173 181.52C391.693 181.707 391.266 181.987 390.893 182.36C390.546 182.733 390.266 183.173 390.053 183.68C389.866 184.187 389.773 184.76 389.773 185.4V196H383.293ZM410.757 196.4C408.41 196.4 406.357 195.933 404.597 195C402.864 194.067 401.517 192.787 400.557 191.16C399.624 189.507 399.157 187.627 399.157 185.52C399.157 183.867 399.424 182.36 399.957 181C400.49 179.613 401.237 178.427 402.197 177.44C403.184 176.453 404.33 175.693 405.637 175.16C406.97 174.6 408.424 174.32 409.997 174.32C411.49 174.32 412.85 174.587 414.077 175.12C415.304 175.653 416.37 176.4 417.277 177.36C418.184 178.32 418.877 179.453 419.357 180.76C419.837 182.067 420.064 183.493 420.037 185.04L419.997 186.8H403.117L402.157 183.16H414.757L414.077 183.88V183.08C414.024 182.413 413.81 181.84 413.437 181.36C413.09 180.853 412.624 180.453 412.037 180.16C411.477 179.867 410.837 179.72 410.117 179.72C409.05 179.72 408.144 179.933 407.397 180.36C406.677 180.76 406.13 181.347 405.757 182.12C405.384 182.893 405.197 183.853 405.197 185C405.197 186.147 405.437 187.16 405.917 188.04C406.424 188.92 407.144 189.6 408.077 190.08C409.037 190.56 410.17 190.8 411.477 190.8C412.357 190.8 413.157 190.667 413.877 190.4C414.597 190.133 415.37 189.68 416.197 189.04L419.197 193.28C418.37 193.973 417.49 194.56 416.557 195.04C415.624 195.493 414.664 195.827 413.677 196.04C412.717 196.28 411.744 196.4 410.757 196.4Z" fill="white"/>
<path d="M262.058 196.44C260.964 196.44 260.111 196.133 259.498 195.52C258.911 194.88 258.618 193.987 258.618 192.84C258.618 191.773 258.924 190.907 259.538 190.24C260.178 189.547 261.018 189.2 262.058 189.2C263.151 189.2 264.004 189.52 264.618 190.16C265.231 190.773 265.538 191.667 265.538 192.84C265.538 193.907 265.204 194.773 264.538 195.44C263.898 196.107 263.071 196.44 262.058 196.44ZM274.97 196L266.09 174.76H273.17L278.45 190.48L276.89 190.68L282.33 174.76H289.37L280.01 196H274.97Z" fill="#4DFA92"/>
</svg>
