<svg width="257" height="31" viewBox="0 0 257 31" fill="none" xmlns="http://www.w3.org/2000/svg">
<path d="M0.48 30V2H7.32V23.96H19.8V30H0.48ZM33.5928 30.4C31.2461 30.4 29.1928 29.9333 27.4328 29C25.6995 28.0667 24.3528 26.7867 23.3928 25.16C22.4595 23.5067 21.9928 21.6267 21.9928 19.52C21.9928 17.8667 22.2595 16.36 22.7928 15C23.3261 13.6133 24.0728 12.4267 25.0328 11.44C26.0195 10.4533 27.1661 9.69333 28.4728 9.16C29.8061 8.6 31.2595 8.32 32.8328 8.32C34.3261 8.32 35.6861 8.58666 36.9128 9.12C38.1395 9.65333 39.2061 10.4 40.1128 11.36C41.0195 12.32 41.7128 13.4533 42.1928 14.76C42.6728 16.0667 42.8995 17.4933 42.8728 19.04L42.8328 20.8H25.9528L24.9928 17.16H37.5928L36.9128 17.88V17.08C36.8595 16.4133 36.6461 15.84 36.2728 15.36C35.9261 14.8533 35.4595 14.4533 34.8728 14.16C34.3128 13.8667 33.6728 13.72 32.9528 13.72C31.8861 13.72 30.9795 13.9333 30.2328 14.36C29.5128 14.76 28.9661 15.3467 28.5928 16.12C28.2195 16.8933 28.0328 17.8533 28.0328 19C28.0328 20.1467 28.2728 21.16 28.7528 22.04C29.2595 22.92 29.9795 23.6 30.9128 24.08C31.8728 24.56 33.0061 24.8 34.3128 24.8C35.1928 24.8 35.9928 24.6667 36.7128 24.4C37.4328 24.1333 38.2061 23.68 39.0328 23.04L42.0328 27.28C41.2061 27.9733 40.3261 28.56 39.3928 29.04C38.4595 29.4933 37.4995 29.8267 36.5128 30.04C35.5528 30.28 34.5795 30.4 33.5928 30.4ZM58.2694 30V16.96C58.2694 15.8667 57.9627 15.0667 57.3494 14.56C56.7627 14.0267 55.936 13.76 54.8694 13.76C53.8294 13.76 52.896 13.96 52.0694 14.36C51.2694 14.7333 50.496 15.36 49.7494 16.24L45.9094 12.52C47.1894 11.2133 48.656 10.1867 50.3094 9.44C51.9627 8.69333 53.7627 8.32 55.7094 8.32C57.496 8.32 59.0427 8.58666 60.3494 9.12C61.656 9.65333 62.6694 10.4667 63.3894 11.56C64.1094 12.6533 64.4694 14.04 64.4694 15.72V30H58.2694ZM52.7494 30.4C51.416 30.4 50.2027 30.1333 49.1094 29.6C48.0427 29.0667 47.1894 28.3333 46.5494 27.4C45.936 26.44 45.6294 25.32 45.6294 24.04C45.6294 22.9467 45.8294 21.9867 46.2294 21.16C46.6294 20.3333 47.216 19.6533 47.9894 19.12C48.7894 18.56 49.776 18.1467 50.9494 17.88C52.1494 17.5867 53.536 17.44 55.1094 17.44H61.5494L61.1894 21.48H55.2694C54.7094 21.48 54.216 21.5333 53.7894 21.64C53.3627 21.72 53.0027 21.8667 52.7094 22.08C52.416 22.2667 52.1894 22.4933 52.0294 22.76C51.896 23.0267 51.8294 23.3467 51.8294 23.72C51.8294 24.12 51.936 24.4667 52.1494 24.76C52.3627 25.0533 52.6427 25.28 52.9894 25.44C53.3627 25.6 53.7894 25.68 54.2694 25.68C54.9627 25.68 55.616 25.5733 56.2294 25.36C56.8694 25.12 57.4294 24.7867 57.9094 24.36C58.416 23.9333 58.816 23.44 59.1094 22.88L60.2294 25.76C59.6694 26.6667 58.9894 27.4667 58.1894 28.16C57.416 28.8533 56.5627 29.4 55.6294 29.8C54.7227 30.2 53.7627 30.4 52.7494 30.4ZM77.6856 30.4C75.8723 30.4 74.2323 29.9333 72.7656 29C71.3256 28.0667 70.1923 26.7733 69.3656 25.12C68.539 23.44 68.1256 21.5333 68.1256 19.4C68.1256 17.2667 68.539 15.3733 69.3656 13.72C70.1923 12.04 71.3256 10.72 72.7656 9.76C74.2323 8.8 75.8856 8.32 77.7256 8.32C78.6856 8.32 79.6056 8.46666 80.4856 8.76C81.3923 9.05333 82.1923 9.45333 82.8856 9.96C83.6056 10.4667 84.1923 11.04 84.6456 11.68C85.099 12.32 85.379 13 85.4856 13.72L83.9256 14.08V0.4H90.3656V30H84.3656L84.0056 25.2L85.2856 25.44C85.2323 26.08 84.9923 26.7067 84.5656 27.32C84.139 27.9067 83.5656 28.44 82.8456 28.92C82.1523 29.3733 81.3656 29.7333 80.4856 30C79.6056 30.2667 78.6723 30.4 77.6856 30.4ZM79.2856 25.08C80.2723 25.08 81.1123 24.8533 81.8056 24.4C82.5256 23.92 83.0856 23.2533 83.4856 22.4C83.8856 21.5467 84.0856 20.5467 84.0856 19.4C84.0856 18.2267 83.8856 17.2133 83.4856 16.36C83.0856 15.5067 82.5256 14.8533 81.8056 14.4C81.1123 13.92 80.2723 13.68 79.2856 13.68C78.3256 13.68 77.4856 13.92 76.7656 14.4C76.0723 14.8533 75.5256 15.5067 75.1256 16.36C74.7256 17.2133 74.5256 18.2267 74.5256 19.4C74.5256 20.5467 74.7256 21.5467 75.1256 22.4C75.5256 23.2533 76.0723 23.92 76.7656 24.4C77.4856 24.8533 78.3256 25.08 79.2856 25.08ZM138.827 30.4C136.481 30.4 134.427 29.9333 132.667 29C130.934 28.0667 129.587 26.7867 128.627 25.16C127.694 23.5067 127.227 21.6267 127.227 19.52C127.227 17.8667 127.494 16.36 128.027 15C128.561 13.6133 129.307 12.4267 130.267 11.44C131.254 10.4533 132.401 9.69333 133.707 9.16C135.041 8.6 136.494 8.32 138.067 8.32C139.561 8.32 140.921 8.58666 142.147 9.12C143.374 9.65333 144.441 10.4 145.347 11.36C146.254 12.32 146.947 13.4533 147.427 14.76C147.907 16.0667 148.134 17.4933 148.107 19.04L148.067 20.8H131.187L130.227 17.16H142.827L142.147 17.88V17.08C142.094 16.4133 141.881 15.84 141.507 15.36C141.161 14.8533 140.694 14.4533 140.107 14.16C139.547 13.8667 138.907 13.72 138.187 13.72C137.121 13.72 136.214 13.9333 135.467 14.36C134.747 14.76 134.201 15.3467 133.827 16.12C133.454 16.8933 133.267 17.8533 133.267 19C133.267 20.1467 133.507 21.16 133.987 22.04C134.494 22.92 135.214 23.6 136.147 24.08C137.107 24.56 138.241 24.8 139.547 24.8C140.427 24.8 141.227 24.6667 141.947 24.4C142.667 24.1333 143.441 23.68 144.267 23.04L147.267 27.28C146.441 27.9733 145.561 28.56 144.627 29.04C143.694 29.4933 142.734 29.8267 141.747 30.04C140.787 30.28 139.814 30.4 138.827 30.4ZM152.184 30V8.76H158.304L158.544 13.08L157.224 13.56C157.517 12.6 158.037 11.7333 158.784 10.96C159.557 10.16 160.477 9.52 161.544 9.04C162.61 8.56 163.73 8.32 164.904 8.32C166.504 8.32 167.85 8.65333 168.944 9.32C170.037 9.96 170.85 10.9333 171.384 12.24C171.944 13.52 172.224 15.1067 172.224 17V30H165.784V17.48C165.784 16.6267 165.664 15.92 165.424 15.36C165.184 14.8 164.824 14.3867 164.344 14.12C163.864 13.8533 163.264 13.7333 162.544 13.76C161.984 13.76 161.464 13.8533 160.984 14.04C160.504 14.2 160.077 14.4533 159.704 14.8C159.357 15.12 159.09 15.4933 158.904 15.92C158.717 16.3467 158.624 16.8267 158.624 17.36V30H155.384C154.69 30 154.064 30 153.504 30C152.97 30 152.53 30 152.184 30ZM179.373 30V3.4H185.813V30H179.373ZM175.613 14.4V8.76H189.893V14.4H175.613ZM200.83 30.4C199.283 30.4 197.95 30.0667 196.83 29.4C195.71 28.7067 194.843 27.7333 194.23 26.48C193.643 25.2 193.35 23.6667 193.35 21.88V8.76H199.79V20.92C199.79 22.2267 200.097 23.2533 200.71 24C201.35 24.72 202.23 25.08 203.35 25.08C203.91 25.08 204.417 25 204.87 24.84C205.323 24.6533 205.71 24.4 206.03 24.08C206.377 23.7333 206.643 23.3333 206.83 22.88C207.017 22.4267 207.11 21.9333 207.11 21.4V8.76H213.55V30H207.51L207.27 25.64L208.43 25.16C208.137 26.1467 207.603 27.04 206.83 27.84C206.083 28.64 205.19 29.2667 204.15 29.72C203.11 30.1733 202.003 30.4 200.83 30.4ZM219.293 30V8.76H225.413L225.693 15.68L224.493 14.32C224.84 13.2 225.373 12.1867 226.093 11.28C226.813 10.3733 227.666 9.65333 228.653 9.12C229.666 8.58666 230.72 8.32 231.813 8.32C232.293 8.32 232.733 8.36 233.133 8.44C233.56 8.49333 233.933 8.58667 234.253 8.72L232.533 15.8C232.24 15.64 231.84 15.5067 231.333 15.4C230.853 15.2667 230.346 15.2 229.813 15.2C229.226 15.2 228.68 15.3067 228.173 15.52C227.693 15.7067 227.266 15.9867 226.893 16.36C226.546 16.7333 226.266 17.1733 226.053 17.68C225.866 18.1867 225.773 18.76 225.773 19.4V30H219.293ZM246.757 30.4C244.41 30.4 242.357 29.9333 240.597 29C238.864 28.0667 237.517 26.7867 236.557 25.16C235.624 23.5067 235.157 21.6267 235.157 19.52C235.157 17.8667 235.424 16.36 235.957 15C236.49 13.6133 237.237 12.4267 238.197 11.44C239.184 10.4533 240.33 9.69333 241.637 9.16C242.97 8.6 244.424 8.32 245.997 8.32C247.49 8.32 248.85 8.58666 250.077 9.12C251.304 9.65333 252.37 10.4 253.277 11.36C254.184 12.32 254.877 13.4533 255.357 14.76C255.837 16.0667 256.064 17.4933 256.037 19.04L255.997 20.8H239.117L238.157 17.16H250.757L250.077 17.88V17.08C250.024 16.4133 249.81 15.84 249.437 15.36C249.09 14.8533 248.624 14.4533 248.037 14.16C247.477 13.8667 246.837 13.72 246.117 13.72C245.05 13.72 244.144 13.9333 243.397 14.36C242.677 14.76 242.13 15.3467 241.757 16.12C241.384 16.8933 241.197 17.8533 241.197 19C241.197 20.1467 241.437 21.16 241.917 22.04C242.424 22.92 243.144 23.6 244.077 24.08C245.037 24.56 246.17 24.8 247.477 24.8C248.357 24.8 249.157 24.6667 249.877 24.4C250.597 24.1333 251.37 23.68 252.197 23.04L255.197 27.28C254.37 27.9733 253.49 28.56 252.557 29.04C251.624 29.4933 250.664 29.8267 249.677 30.04C248.717 30.28 247.744 30.4 246.757 30.4Z" fill="white"/>
<path d="M98.0575 30.44C96.9642 30.44 96.1108 30.1333 95.4975 29.52C94.9108 28.88 94.6175 27.9867 94.6175 26.84C94.6175 25.7733 94.9242 24.9067 95.5375 24.24C96.1775 23.5467 97.0175 23.2 98.0575 23.2C99.1508 23.2 100.004 23.52 100.618 24.16C101.231 24.7733 101.538 25.6667 101.538 26.84C101.538 27.9067 101.204 28.7733 100.538 29.44C99.8975 30.1067 99.0708 30.44 98.0575 30.44ZM110.97 30L102.09 8.76H109.17L114.45 24.48L112.89 24.68L118.33 8.76H125.37L116.01 30H110.97Z" fill="#4DFA92"/>
</svg>
