<svg width="594" height="533" viewBox="0 0 594 533" fill="none" xmlns="http://www.w3.org/2000/svg">
<line x1="104.715" y1="254.249" x2="123.249" y2="372.285" stroke="#4DFA92" stroke-width="3" stroke-linecap="round" stroke-dasharray="6 12 18 24"/>
<line x1="567.915" y1="204.823" x2="294.823" y2="274.085" stroke="#4DFA92" stroke-width="3" stroke-linecap="round" stroke-dasharray="6 12 18 24"/>
<line x1="215.593" y1="90.4007" x2="224.401" y2="227.407" stroke="#4DFA92" stroke-width="3" stroke-linecap="round" stroke-dasharray="6 12 18 24"/>
<line x1="212.386" y1="316.086" x2="159.086" y2="393.614" stroke="#4DFA92" stroke-width="3" stroke-linecap="round" stroke-dasharray="6 12 18 24"/>
<line x1="181.945" y1="256.525" x2="125.525" y2="223.055" stroke="#4DFA92" stroke-width="3" stroke-linecap="round" stroke-dasharray="6 12 18 24"/>
<line x1="188.337" y1="85.0908" x2="115.091" y2="188.642" stroke="#4DFA92" stroke-width="3" stroke-linecap="round" stroke-dasharray="6 12 18 24"/>
<line x1="326.678" y1="359.1" x2="209.1" y2="447.3" stroke="#4DFA92" stroke-width="3" stroke-linecap="round" stroke-dasharray="6 12 18 24"/>
<line x1="418.661" y1="187.681" x2="563.681" y2="204.339" stroke="#4DFA92" stroke-width="3" stroke-linecap="round" stroke-dasharray="6 12 18 24"/>
<line x1="564.558" y1="208.075" x2="382.075" y2="326.442" stroke="#4DFA92" stroke-width="3" stroke-linecap="round" stroke-dasharray="6 12 18 24"/>
<line x1="255.118" y1="88.883" x2="338.883" y2="163.882" stroke="#4DFA92" stroke-width="3" stroke-linecap="round" stroke-dasharray="6 12 18 24"/>
<circle cx="213.549" cy="54.9099" r="52.4511" fill="#4DFA92"/>
<circle cx="209.451" cy="52.4511" r="52.4511" fill="white"/>
<path d="M187.08 45.152V62H182.976V55.064H176.592V62H172.488V45.152H176.592V51.752H182.976V45.152H187.08ZM202.667 55.088C202.667 55.472 202.643 55.872 202.595 56.288H193.307C193.371 57.12 193.635 57.76 194.099 58.208C194.579 58.64 195.163 58.856 195.851 58.856C196.875 58.856 197.587 58.424 197.987 57.56H202.355C202.131 58.44 201.723 59.232 201.131 59.936C200.555 60.64 199.827 61.192 198.947 61.592C198.067 61.992 197.083 62.192 195.995 62.192C194.683 62.192 193.515 61.912 192.491 61.352C191.467 60.792 190.667 59.992 190.091 58.952C189.515 57.912 189.227 56.696 189.227 55.304C189.227 53.912 189.507 52.696 190.067 51.656C190.643 50.616 191.443 49.816 192.467 49.256C193.491 48.696 194.667 48.416 195.995 48.416C197.291 48.416 198.443 48.688 199.451 49.232C200.459 49.776 201.243 50.552 201.803 51.56C202.379 52.568 202.667 53.744 202.667 55.088ZM198.467 54.008C198.467 53.304 198.227 52.744 197.747 52.328C197.267 51.912 196.667 51.704 195.947 51.704C195.259 51.704 194.675 51.904 194.195 52.304C193.731 52.704 193.443 53.272 193.331 54.008H198.467ZM204.016 55.28C204.016 53.904 204.272 52.696 204.784 51.656C205.312 50.616 206.024 49.816 206.92 49.256C207.816 48.696 208.816 48.416 209.92 48.416C210.864 48.416 211.688 48.608 212.392 48.992C213.112 49.376 213.664 49.88 214.048 50.504V48.608H218.152V62H214.048V60.104C213.648 60.728 213.088 61.232 212.368 61.616C211.664 62 210.84 62.192 209.896 62.192C208.808 62.192 207.816 61.912 206.92 61.352C206.024 60.776 205.312 59.968 204.784 58.928C204.272 57.872 204.016 56.656 204.016 55.28ZM214.048 55.304C214.048 54.28 213.76 53.472 213.184 52.88C212.624 52.288 211.936 51.992 211.12 51.992C210.304 51.992 209.608 52.288 209.032 52.88C208.472 53.456 208.192 54.256 208.192 55.28C208.192 56.304 208.472 57.12 209.032 57.728C209.608 58.32 210.304 58.616 211.12 58.616C211.936 58.616 212.624 58.32 213.184 57.728C213.76 57.136 214.048 56.328 214.048 55.304ZM225.225 44.24V62H221.121V44.24H225.225ZM235.663 58.52V62H233.575C232.087 62 230.927 61.64 230.095 60.92C229.263 60.184 228.847 58.992 228.847 57.344V52.016H227.215V48.608H228.847V45.344H232.951V48.608H235.639V52.016H232.951V57.392C232.951 57.792 233.047 58.08 233.239 58.256C233.431 58.432 233.751 58.52 234.199 58.52H235.663ZM246.181 48.464C247.717 48.464 248.949 48.976 249.877 50C250.805 51.008 251.269 52.4 251.269 54.176V62H247.189V54.728C247.189 53.832 246.957 53.136 246.493 52.64C246.029 52.144 245.405 51.896 244.621 51.896C243.837 51.896 243.213 52.144 242.749 52.64C242.285 53.136 242.053 53.832 242.053 54.728V62H237.949V44.24H242.053V50.408C242.469 49.816 243.037 49.344 243.757 48.992C244.477 48.64 245.285 48.464 246.181 48.464Z" fill="#0F4634"/>
<circle cx="69" cy="201" r="64" fill="#4DFA92"/>
<circle cx="64" cy="198" r="64" fill="white"/>
<path d="M32.584 193.168C31.352 193.168 30.248 192.968 29.272 192.568C28.296 192.168 27.512 191.576 26.92 190.792C26.344 190.008 26.04 189.064 26.008 187.96H30.376C30.44 188.584 30.656 189.064 31.024 189.4C31.392 189.72 31.872 189.88 32.464 189.88C33.072 189.88 33.552 189.744 33.904 189.472C34.256 189.184 34.432 188.792 34.432 188.296C34.432 187.88 34.288 187.536 34 187.264C33.728 186.992 33.384 186.768 32.968 186.592C32.568 186.416 31.992 186.216 31.24 185.992C30.152 185.656 29.264 185.32 28.576 184.984C27.888 184.648 27.296 184.152 26.8 183.496C26.304 182.84 26.056 181.984 26.056 180.928C26.056 179.36 26.624 178.136 27.76 177.256C28.896 176.36 30.376 175.912 32.2 175.912C34.056 175.912 35.552 176.36 36.688 177.256C37.824 178.136 38.432 179.368 38.512 180.952H34.072C34.04 180.408 33.84 179.984 33.472 179.68C33.104 179.36 32.632 179.2 32.056 179.2C31.56 179.2 31.16 179.336 30.856 179.608C30.552 179.864 30.4 180.24 30.4 180.736C30.4 181.28 30.656 181.704 31.168 182.008C31.68 182.312 32.48 182.64 33.568 182.992C34.656 183.36 35.536 183.712 36.208 184.048C36.896 184.384 37.488 184.872 37.984 185.512C38.48 186.152 38.728 186.976 38.728 187.984C38.728 188.944 38.48 189.816 37.984 190.6C37.504 191.384 36.8 192.008 35.872 192.472C34.944 192.936 33.848 193.168 32.584 193.168ZM47.3496 193.192C46.0376 193.192 44.8536 192.912 43.7976 192.352C42.7576 191.792 41.9336 190.992 41.3256 189.952C40.7336 188.912 40.4376 187.696 40.4376 186.304C40.4376 184.928 40.7416 183.72 41.3496 182.68C41.9576 181.624 42.7896 180.816 43.8456 180.256C44.9016 179.696 46.0856 179.416 47.3976 179.416C48.7096 179.416 49.8936 179.696 50.9496 180.256C52.0056 180.816 52.8376 181.624 53.4456 182.68C54.0536 183.72 54.3576 184.928 54.3576 186.304C54.3576 187.68 54.0456 188.896 53.4216 189.952C52.8136 190.992 51.9736 191.792 50.9016 192.352C49.8456 192.912 48.6616 193.192 47.3496 193.192ZM47.3496 189.64C48.1336 189.64 48.7976 189.352 49.3416 188.776C49.9016 188.2 50.1816 187.376 50.1816 186.304C50.1816 185.232 49.9096 184.408 49.3656 183.832C48.8376 183.256 48.1816 182.968 47.3976 182.968C46.5976 182.968 45.9336 183.256 45.4056 183.832C44.8776 184.392 44.6136 185.216 44.6136 186.304C44.6136 187.376 44.8696 188.2 45.3816 188.776C45.9096 189.352 46.5656 189.64 47.3496 189.64ZM55.7189 186.304C55.7189 184.912 55.9989 183.696 56.5589 182.656C57.1349 181.616 57.9269 180.816 58.9349 180.256C59.9589 179.696 61.1269 179.416 62.4389 179.416C64.1189 179.416 65.5189 179.856 66.6389 180.736C67.7749 181.616 68.5189 182.856 68.8709 184.456H64.5029C64.1349 183.432 63.4229 182.92 62.3669 182.92C61.6149 182.92 61.0149 183.216 60.5669 183.808C60.1189 184.384 59.8949 185.216 59.8949 186.304C59.8949 187.392 60.1189 188.232 60.5669 188.824C61.0149 189.4 61.6149 189.688 62.3669 189.688C63.4229 189.688 64.1349 189.176 64.5029 188.152H68.8709C68.5189 189.72 67.7749 190.952 66.6389 191.848C65.5029 192.744 64.1029 193.192 62.4389 193.192C61.1269 193.192 59.9589 192.912 58.9349 192.352C57.9269 191.792 57.1349 190.992 56.5589 189.952C55.9989 188.912 55.7189 187.696 55.7189 186.304ZM73.1301 178.216C72.4101 178.216 71.8181 178.008 71.3541 177.592C70.9061 177.16 70.6821 176.632 70.6821 176.008C70.6821 175.368 70.9061 174.84 71.3541 174.424C71.8181 173.992 72.4101 173.776 73.1301 173.776C73.8341 173.776 74.4101 173.992 74.8581 174.424C75.3221 174.84 75.5541 175.368 75.5541 176.008C75.5541 176.632 75.3221 177.16 74.8581 177.592C74.4101 178.008 73.8341 178.216 73.1301 178.216ZM75.1701 179.608V193H71.0661V179.608H75.1701ZM77.3283 186.28C77.3283 184.904 77.5843 183.696 78.0963 182.656C78.6243 181.616 79.3363 180.816 80.2323 180.256C81.1283 179.696 82.1283 179.416 83.2323 179.416C84.1763 179.416 85.0003 179.608 85.7043 179.992C86.4243 180.376 86.9763 180.88 87.3603 181.504V179.608H91.4643V193H87.3603V191.104C86.9603 191.728 86.4003 192.232 85.6803 192.616C84.9763 193 84.1523 193.192 83.2083 193.192C82.1203 193.192 81.1283 192.912 80.2323 192.352C79.3363 191.776 78.6243 190.968 78.0963 189.928C77.5843 188.872 77.3283 187.656 77.3283 186.28ZM87.3603 186.304C87.3603 185.28 87.0723 184.472 86.4963 183.88C85.9363 183.288 85.2483 182.992 84.4323 182.992C83.6163 182.992 82.9203 183.288 82.3443 183.88C81.7843 184.456 81.5043 185.256 81.5043 186.28C81.5043 187.304 81.7843 188.12 82.3443 188.728C82.9203 189.32 83.6163 189.616 84.4323 189.616C85.2483 189.616 85.9363 189.32 86.4963 188.728C87.0723 188.136 87.3603 187.328 87.3603 186.304ZM98.5373 175.24V193H94.4333V175.24H98.5373ZM30.592 208.44V211.848H36.088V215.016H30.592V218.712H36.808V222H26.488V205.152H36.808V208.44H30.592ZM38.6564 215.328C38.6564 214 38.9284 212.816 39.4724 211.776C40.0324 210.736 40.7764 209.928 41.7044 209.352C42.6484 208.76 43.6724 208.464 44.7764 208.464C45.6244 208.464 46.3844 208.616 47.0564 208.92C47.7284 209.208 48.2724 209.616 48.6884 210.144V208.608H52.7924V228.384H48.6884V220.32C48.2244 220.88 47.6564 221.328 46.9844 221.664C46.3284 222 45.5764 222.168 44.7284 222.168C43.6404 222.168 42.6324 221.88 41.7044 221.304C40.7764 220.728 40.0324 219.92 39.4724 218.88C38.9284 217.84 38.6564 216.656 38.6564 215.328ZM48.6884 215.304C48.6884 214.584 48.5444 213.984 48.2564 213.504C47.9844 213.008 47.6244 212.64 47.1764 212.4C46.7284 212.144 46.2564 212.016 45.7604 212.016C45.2804 212.016 44.8164 212.144 44.3684 212.4C43.9204 212.64 43.5524 213.008 43.2644 213.504C42.9764 214 42.8324 214.608 42.8324 215.328C42.8324 216.048 42.9764 216.656 43.2644 217.152C43.5524 217.632 43.9204 218 44.3684 218.256C44.8164 218.496 45.2804 218.616 45.7604 218.616C46.2404 218.616 46.7044 218.496 47.1524 218.256C47.6164 218 47.9844 217.624 48.2564 217.128C48.5444 216.632 48.6884 216.024 48.6884 215.304ZM68.9854 208.608V222H64.8814V220.176C64.4654 220.768 63.8974 221.248 63.1774 221.616C62.4734 221.968 61.6894 222.144 60.8254 222.144C59.8014 222.144 58.8974 221.92 58.1134 221.472C57.3294 221.008 56.7214 220.344 56.2894 219.48C55.8574 218.616 55.6414 217.6 55.6414 216.432V208.608H59.7214V215.88C59.7214 216.776 59.9534 217.472 60.4174 217.968C60.8814 218.464 61.5054 218.712 62.2894 218.712C63.0894 218.712 63.7214 218.464 64.1854 217.968C64.6494 217.472 64.8814 216.776 64.8814 215.88V208.608H68.9854ZM73.9973 207.216C73.2773 207.216 72.6853 207.008 72.2213 206.592C71.7733 206.16 71.5493 205.632 71.5493 205.008C71.5493 204.368 71.7733 203.84 72.2213 203.424C72.6853 202.992 73.2773 202.776 73.9973 202.776C74.7013 202.776 75.2773 202.992 75.7253 203.424C76.1893 203.84 76.4213 204.368 76.4213 205.008C76.4213 205.632 76.1893 206.16 75.7253 206.592C75.2773 207.008 74.7013 207.216 73.9973 207.216ZM76.0373 208.608V222H71.9333V208.608H76.0373ZM86.4754 218.52V222H84.3874C82.8994 222 81.7394 221.64 80.9074 220.92C80.0754 220.184 79.6594 218.992 79.6594 217.344V212.016H78.0274V208.608H79.6594V205.344H83.7634V208.608H86.4514V212.016H83.7634V217.392C83.7634 217.792 83.8594 218.08 84.0514 218.256C84.2434 218.432 84.5634 218.52 85.0114 218.52H86.4754ZM102.441 208.608L94.0414 228.36H89.6254L92.6974 221.544L87.2494 208.608H91.8334L94.9294 216.984L98.0014 208.608H102.441Z" fill="#0F4634"/>
<circle cx="234" cy="282" r="64" fill="#4DFA92"/>
<circle cx="229" cy="279" r="64" fill="white"/>
<path d="M181.66 277.7V280.54H186.24V283.18H181.66V286.26H186.84V289H178.24V274.96H186.84V277.7H181.66ZM188.38 283.4C188.38 282.253 188.594 281.247 189.02 280.38C189.46 279.513 190.054 278.847 190.8 278.38C191.547 277.913 192.38 277.68 193.3 277.68C194.034 277.68 194.7 277.833 195.3 278.14C195.914 278.447 196.394 278.86 196.74 279.38V274.2H200.16V289H196.74V287.4C196.42 287.933 195.96 288.36 195.36 288.68C194.774 289 194.087 289.16 193.3 289.16C192.38 289.16 191.547 288.927 190.8 288.46C190.054 287.98 189.46 287.307 189.02 286.44C188.594 285.56 188.38 284.547 188.38 283.4ZM196.74 283.42C196.74 282.567 196.5 281.893 196.02 281.4C195.554 280.907 194.98 280.66 194.3 280.66C193.62 280.66 193.04 280.907 192.56 281.4C192.094 281.88 191.86 282.547 191.86 283.4C191.86 284.253 192.094 284.933 192.56 285.44C193.04 285.933 193.62 286.18 194.3 286.18C194.98 286.18 195.554 285.933 196.02 285.44C196.5 284.947 196.74 284.273 196.74 283.42ZM213.655 277.84V289H210.235V287.48C209.888 287.973 209.415 288.373 208.815 288.68C208.228 288.973 207.575 289.12 206.855 289.12C206.001 289.12 205.248 288.933 204.595 288.56C203.941 288.173 203.435 287.62 203.075 286.9C202.715 286.18 202.535 285.333 202.535 284.36V277.84H205.935V283.9C205.935 284.647 206.128 285.227 206.515 285.64C206.901 286.053 207.421 286.26 208.075 286.26C208.741 286.26 209.268 286.053 209.655 285.64C210.041 285.227 210.235 284.647 210.235 283.9V277.84H213.655ZM215.431 283.42C215.431 282.26 215.664 281.247 216.131 280.38C216.611 279.513 217.271 278.847 218.111 278.38C218.964 277.913 219.938 277.68 221.031 277.68C222.431 277.68 223.598 278.047 224.531 278.78C225.478 279.513 226.098 280.547 226.391 281.88H222.751C222.444 281.027 221.851 280.6 220.971 280.6C220.344 280.6 219.844 280.847 219.471 281.34C219.098 281.82 218.911 282.513 218.911 283.42C218.911 284.327 219.098 285.027 219.471 285.52C219.844 286 220.344 286.24 220.971 286.24C221.851 286.24 222.444 285.813 222.751 284.96H226.391C226.098 286.267 225.478 287.293 224.531 288.04C223.584 288.787 222.418 289.16 221.031 289.16C219.938 289.16 218.964 288.927 218.111 288.46C217.271 287.993 216.611 287.327 216.131 286.46C215.664 285.593 215.431 284.58 215.431 283.42ZM227.54 283.4C227.54 282.253 227.754 281.247 228.18 280.38C228.62 279.513 229.214 278.847 229.96 278.38C230.707 277.913 231.54 277.68 232.46 277.68C233.247 277.68 233.934 277.84 234.52 278.16C235.12 278.48 235.58 278.9 235.9 279.42V277.84H239.32V289H235.9V287.42C235.567 287.94 235.1 288.36 234.5 288.68C233.914 289 233.227 289.16 232.44 289.16C231.534 289.16 230.707 288.927 229.96 288.46C229.214 287.98 228.62 287.307 228.18 286.44C227.754 285.56 227.54 284.547 227.54 283.4ZM235.9 283.42C235.9 282.567 235.66 281.893 235.18 281.4C234.714 280.907 234.14 280.66 233.46 280.66C232.78 280.66 232.2 280.907 231.72 281.4C231.254 281.88 231.02 282.547 231.02 283.4C231.02 284.253 231.254 284.933 231.72 285.44C232.2 285.933 232.78 286.18 233.46 286.18C234.14 286.18 234.714 285.933 235.18 285.44C235.66 284.947 235.9 284.273 235.9 283.42ZM248.015 286.1V289H246.275C245.035 289 244.068 288.7 243.375 288.1C242.681 287.487 242.335 286.493 242.335 285.12V280.68H240.975V277.84H242.335V275.12H245.755V277.84H247.995V280.68H245.755V285.16C245.755 285.493 245.835 285.733 245.995 285.88C246.155 286.027 246.421 286.1 246.795 286.1H248.015ZM251.64 276.68C251.04 276.68 250.546 276.507 250.16 276.16C249.786 275.8 249.6 275.36 249.6 274.84C249.6 274.307 249.786 273.867 250.16 273.52C250.546 273.16 251.04 272.98 251.64 272.98C252.226 272.98 252.706 273.16 253.08 273.52C253.466 273.867 253.66 274.307 253.66 274.84C253.66 275.36 253.466 275.8 253.08 276.16C252.706 276.507 252.226 276.68 251.64 276.68ZM253.34 277.84V289H249.92V277.84H253.34ZM260.898 289.16C259.805 289.16 258.818 288.927 257.938 288.46C257.071 287.993 256.385 287.327 255.878 286.46C255.385 285.593 255.138 284.58 255.138 283.42C255.138 282.273 255.391 281.267 255.898 280.4C256.405 279.52 257.098 278.847 257.978 278.38C258.858 277.913 259.845 277.68 260.938 277.68C262.031 277.68 263.018 277.913 263.898 278.38C264.778 278.847 265.471 279.52 265.978 280.4C266.485 281.267 266.738 282.273 266.738 283.42C266.738 284.567 266.478 285.58 265.958 286.46C265.451 287.327 264.751 287.993 263.858 288.46C262.978 288.927 261.991 289.16 260.898 289.16ZM260.898 286.2C261.551 286.2 262.105 285.96 262.558 285.48C263.025 285 263.258 284.313 263.258 283.42C263.258 282.527 263.031 281.84 262.578 281.36C262.138 280.88 261.591 280.64 260.938 280.64C260.271 280.64 259.718 280.88 259.278 281.36C258.838 281.827 258.618 282.513 258.618 283.42C258.618 284.313 258.831 285 259.258 285.48C259.698 285.96 260.245 286.2 260.898 286.2ZM275.353 277.72C276.659 277.72 277.699 278.147 278.473 279C279.259 279.84 279.653 281 279.653 282.48V289H276.253V282.94C276.253 282.193 276.059 281.613 275.673 281.2C275.286 280.787 274.766 280.58 274.113 280.58C273.459 280.58 272.939 280.787 272.553 281.2C272.166 281.613 271.973 282.193 271.973 282.94V289H268.553V277.84H271.973V279.32C272.319 278.827 272.786 278.44 273.373 278.16C273.959 277.867 274.619 277.72 275.353 277.72Z" fill="#0F4634"/>
<circle cx="375.248" cy="185.85" r="44.7519" fill="#4DFA92"/>
<circle cx="371.752" cy="183.752" r="44.7519" fill="white"/>
<path d="M339.528 183.368C339.528 182.259 339.768 181.272 340.248 180.408C340.728 179.533 341.395 178.856 342.248 178.376C343.112 177.885 344.088 177.64 345.176 177.64C346.509 177.64 347.651 177.992 348.6 178.696C349.549 179.4 350.184 180.36 350.504 181.576H347.496C347.272 181.107 346.952 180.749 346.536 180.504C346.131 180.259 345.667 180.136 345.144 180.136C344.301 180.136 343.619 180.429 343.096 181.016C342.573 181.603 342.312 182.387 342.312 183.368C342.312 184.349 342.573 185.133 343.096 185.72C343.619 186.307 344.301 186.6 345.144 186.6C345.667 186.6 346.131 186.477 346.536 186.232C346.952 185.987 347.272 185.629 347.496 185.16H350.504C350.184 186.376 349.549 187.336 348.6 188.04C347.651 188.733 346.509 189.08 345.176 189.08C344.088 189.08 343.112 188.84 342.248 188.36C341.395 187.869 340.728 187.192 340.248 186.328C339.768 185.464 339.528 184.477 339.528 183.368ZM354.916 177.16V189H352.18V177.16H354.916ZM358.274 179.144C357.794 179.144 357.4 179.005 357.09 178.728C356.792 178.44 356.642 178.088 356.642 177.672C356.642 177.245 356.792 176.893 357.09 176.616C357.4 176.328 357.794 176.184 358.274 176.184C358.744 176.184 359.128 176.328 359.426 176.616C359.736 176.893 359.89 177.245 359.89 177.672C359.89 178.088 359.736 178.44 359.426 178.728C359.128 179.005 358.744 179.144 358.274 179.144ZM359.634 180.072V189H356.898V180.072H359.634ZM373.009 179.976C374.118 179.976 374.998 180.312 375.649 180.984C376.31 181.656 376.641 182.589 376.641 183.784V189H373.921V184.152C373.921 183.576 373.766 183.133 373.457 182.824C373.158 182.504 372.742 182.344 372.209 182.344C371.676 182.344 371.254 182.504 370.945 182.824C370.646 183.133 370.497 183.576 370.497 184.152V189H367.777V184.152C367.777 183.576 367.622 183.133 367.313 182.824C367.014 182.504 366.598 182.344 366.065 182.344C365.532 182.344 365.11 182.504 364.801 182.824C364.502 183.133 364.353 183.576 364.353 184.152V189H361.617V180.072H364.353V181.192C364.63 180.819 364.993 180.525 365.441 180.312C365.889 180.088 366.396 179.976 366.961 179.976C367.633 179.976 368.23 180.12 368.753 180.408C369.286 180.696 369.702 181.107 370.001 181.64C370.31 181.149 370.732 180.749 371.265 180.44C371.798 180.131 372.38 179.976 373.009 179.976ZM378.011 184.52C378.011 183.603 378.181 182.797 378.523 182.104C378.875 181.411 379.349 180.877 379.947 180.504C380.544 180.131 381.211 179.944 381.947 179.944C382.576 179.944 383.125 180.072 383.595 180.328C384.075 180.584 384.443 180.92 384.699 181.336V180.072H387.435V189H384.699V187.736C384.432 188.152 384.059 188.488 383.579 188.744C383.109 189 382.56 189.128 381.931 189.128C381.205 189.128 380.544 188.941 379.947 188.568C379.349 188.184 378.875 187.645 378.523 186.952C378.181 186.248 378.011 185.437 378.011 184.52ZM384.699 184.536C384.699 183.853 384.507 183.315 384.123 182.92C383.749 182.525 383.291 182.328 382.747 182.328C382.203 182.328 381.739 182.525 381.355 182.92C380.981 183.304 380.795 183.837 380.795 184.52C380.795 185.203 380.981 185.747 381.355 186.152C381.739 186.547 382.203 186.744 382.747 186.744C383.291 186.744 383.749 186.547 384.123 186.152C384.507 185.757 384.699 185.219 384.699 184.536ZM394.39 186.68V189H392.998C392.006 189 391.233 188.76 390.678 188.28C390.123 187.789 389.846 186.995 389.846 185.896V182.344H388.758V180.072H389.846V177.896H392.582V180.072H394.374V182.344H392.582V185.928C392.582 186.195 392.646 186.387 392.774 186.504C392.902 186.621 393.115 186.68 393.414 186.68H394.39ZM404.33 184.392C404.33 184.648 404.314 184.915 404.282 185.192H398.09C398.133 185.747 398.309 186.173 398.618 186.472C398.938 186.76 399.327 186.904 399.786 186.904C400.469 186.904 400.943 186.616 401.21 186.04H404.122C403.973 186.627 403.701 187.155 403.306 187.624C402.922 188.093 402.437 188.461 401.85 188.728C401.263 188.995 400.607 189.128 399.882 189.128C399.007 189.128 398.229 188.941 397.546 188.568C396.863 188.195 396.33 187.661 395.946 186.968C395.562 186.275 395.37 185.464 395.37 184.536C395.37 183.608 395.557 182.797 395.93 182.104C396.314 181.411 396.847 180.877 397.53 180.504C398.213 180.131 398.997 179.944 399.882 179.944C400.746 179.944 401.514 180.125 402.186 180.488C402.858 180.851 403.381 181.368 403.754 182.04C404.138 182.712 404.33 183.496 404.33 184.392ZM401.53 183.672C401.53 183.203 401.37 182.829 401.05 182.552C400.73 182.275 400.33 182.136 399.85 182.136C399.391 182.136 399.002 182.269 398.682 182.536C398.373 182.803 398.181 183.181 398.106 183.672H401.53Z" fill="#0F4634"/>
<circle cx="379" cy="349" r="64" fill="#4DFA92"/>
<circle cx="374" cy="346" r="64" fill="white"/>
<path d="M321.056 354.112C320.235 354.112 319.499 353.979 318.848 353.712C318.197 353.445 317.675 353.051 317.28 352.528C316.896 352.005 316.693 351.376 316.672 350.64H319.584C319.627 351.056 319.771 351.376 320.016 351.6C320.261 351.813 320.581 351.92 320.976 351.92C321.381 351.92 321.701 351.829 321.936 351.648C322.171 351.456 322.288 351.195 322.288 350.864C322.288 350.587 322.192 350.357 322 350.176C321.819 349.995 321.589 349.845 321.312 349.728C321.045 349.611 320.661 349.477 320.16 349.328C319.435 349.104 318.843 348.88 318.384 348.656C317.925 348.432 317.531 348.101 317.2 347.664C316.869 347.227 316.704 346.656 316.704 345.952C316.704 344.907 317.083 344.091 317.84 343.504C318.597 342.907 319.584 342.608 320.8 342.608C322.037 342.608 323.035 342.907 323.792 343.504C324.549 344.091 324.955 344.912 325.008 345.968H322.048C322.027 345.605 321.893 345.323 321.648 345.12C321.403 344.907 321.088 344.8 320.704 344.8C320.373 344.8 320.107 344.891 319.904 345.072C319.701 345.243 319.6 345.493 319.6 345.824C319.6 346.187 319.771 346.469 320.112 346.672C320.453 346.875 320.987 347.093 321.712 347.328C322.437 347.573 323.024 347.808 323.472 348.032C323.931 348.256 324.325 348.581 324.656 349.008C324.987 349.435 325.152 349.984 325.152 350.656C325.152 351.296 324.987 351.877 324.656 352.4C324.336 352.923 323.867 353.339 323.248 353.648C322.629 353.957 321.899 354.112 321.056 354.112ZM335.652 345.072V354H332.916V352.784C332.638 353.179 332.26 353.499 331.78 353.744C331.31 353.979 330.788 354.096 330.212 354.096C329.529 354.096 328.926 353.947 328.404 353.648C327.881 353.339 327.476 352.896 327.188 352.32C326.9 351.744 326.756 351.067 326.756 350.288V345.072H329.476V349.92C329.476 350.517 329.63 350.981 329.94 351.312C330.249 351.643 330.665 351.808 331.188 351.808C331.721 351.808 332.142 351.643 332.452 351.312C332.761 350.981 332.916 350.517 332.916 349.92V345.072H335.652ZM341.249 354.128C340.47 354.128 339.777 353.995 339.169 353.728C338.561 353.461 338.081 353.099 337.729 352.64C337.377 352.171 337.18 351.648 337.137 351.072H339.841C339.873 351.381 340.017 351.632 340.273 351.824C340.529 352.016 340.844 352.112 341.217 352.112C341.558 352.112 341.82 352.048 342.001 351.92C342.193 351.781 342.289 351.605 342.289 351.392C342.289 351.136 342.156 350.949 341.889 350.832C341.622 350.704 341.19 350.565 340.593 350.416C339.953 350.267 339.42 350.112 338.993 349.952C338.566 349.781 338.198 349.52 337.889 349.168C337.58 348.805 337.425 348.32 337.425 347.712C337.425 347.2 337.564 346.736 337.841 346.32C338.129 345.893 338.545 345.557 339.089 345.312C339.644 345.067 340.3 344.944 341.057 344.944C342.177 344.944 343.057 345.221 343.697 345.776C344.348 346.331 344.721 347.067 344.817 347.984H342.289C342.246 347.675 342.108 347.429 341.873 347.248C341.649 347.067 341.35 346.976 340.977 346.976C340.657 346.976 340.412 347.04 340.241 347.168C340.07 347.285 339.985 347.451 339.985 347.664C339.985 347.92 340.118 348.112 340.385 348.24C340.662 348.368 341.089 348.496 341.665 348.624C342.326 348.795 342.865 348.965 343.281 349.136C343.697 349.296 344.06 349.563 344.369 349.936C344.689 350.299 344.854 350.789 344.865 351.408C344.865 351.931 344.716 352.4 344.417 352.816C344.129 353.221 343.708 353.541 343.153 353.776C342.609 354.011 341.974 354.128 341.249 354.128ZM351.515 351.68V354H350.123C349.131 354 348.358 353.76 347.803 353.28C347.248 352.789 346.971 351.995 346.971 350.896V347.344H345.883V345.072H346.971V342.896H349.707V345.072H351.499V347.344H349.707V350.928C349.707 351.195 349.771 351.387 349.899 351.504C350.027 351.621 350.24 351.68 350.539 351.68H351.515ZM352.495 349.52C352.495 348.603 352.666 347.797 353.007 347.104C353.359 346.411 353.834 345.877 354.431 345.504C355.028 345.131 355.695 344.944 356.431 344.944C357.06 344.944 357.61 345.072 358.079 345.328C358.559 345.584 358.927 345.92 359.183 346.336V345.072H361.919V354H359.183V352.736C358.916 353.152 358.543 353.488 358.063 353.744C357.594 354 357.044 354.128 356.415 354.128C355.69 354.128 355.028 353.941 354.431 353.568C353.834 353.184 353.359 352.645 353.007 351.952C352.666 351.248 352.495 350.437 352.495 349.52ZM359.183 349.536C359.183 348.853 358.991 348.315 358.607 347.92C358.234 347.525 357.775 347.328 357.231 347.328C356.687 347.328 356.223 347.525 355.839 347.92C355.466 348.304 355.279 348.837 355.279 349.52C355.279 350.203 355.466 350.747 355.839 351.152C356.223 351.547 356.687 351.744 357.231 351.744C357.775 351.744 358.234 351.547 358.607 351.152C358.991 350.757 359.183 350.219 359.183 349.536ZM365.274 344.144C364.794 344.144 364.4 344.005 364.09 343.728C363.792 343.44 363.642 343.088 363.642 342.672C363.642 342.245 363.792 341.893 364.09 341.616C364.4 341.328 364.794 341.184 365.274 341.184C365.744 341.184 366.128 341.328 366.426 341.616C366.736 341.893 366.89 342.245 366.89 342.672C366.89 343.088 366.736 343.44 366.426 343.728C366.128 344.005 365.744 344.144 365.274 344.144ZM366.634 345.072V354H363.898V345.072H366.634ZM374.057 344.976C375.102 344.976 375.934 345.317 376.553 346C377.182 346.672 377.497 347.6 377.497 348.784V354H374.777V349.152C374.777 348.555 374.622 348.091 374.313 347.76C374.004 347.429 373.588 347.264 373.065 347.264C372.542 347.264 372.126 347.429 371.817 347.76C371.508 348.091 371.353 348.555 371.353 349.152V354H368.617V345.072H371.353V346.256C371.63 345.861 372.004 345.552 372.473 345.328C372.942 345.093 373.47 344.976 374.057 344.976ZM378.854 349.52C378.854 348.603 379.025 347.797 379.366 347.104C379.718 346.411 380.193 345.877 380.79 345.504C381.388 345.131 382.054 344.944 382.79 344.944C383.42 344.944 383.969 345.072 384.438 345.328C384.918 345.584 385.286 345.92 385.542 346.336V345.072H388.278V354H385.542V352.736C385.276 353.152 384.902 353.488 384.422 353.744C383.953 354 383.404 354.128 382.774 354.128C382.049 354.128 381.388 353.941 380.79 353.568C380.193 353.184 379.718 352.645 379.366 351.952C379.025 351.248 378.854 350.437 378.854 349.52ZM385.542 349.536C385.542 348.853 385.35 348.315 384.966 347.92C384.593 347.525 384.134 347.328 383.59 347.328C383.046 347.328 382.582 347.525 382.198 347.92C381.825 348.304 381.638 348.837 381.638 349.52C381.638 350.203 381.825 350.747 382.198 351.152C382.582 351.547 383.046 351.744 383.59 351.744C384.134 351.744 384.593 351.547 384.966 351.152C385.35 350.757 385.542 350.219 385.542 349.536ZM392.994 346.336C393.25 345.92 393.618 345.584 394.098 345.328C394.578 345.072 395.127 344.944 395.746 344.944C396.482 344.944 397.148 345.131 397.746 345.504C398.343 345.877 398.812 346.411 399.154 347.104C399.506 347.797 399.682 348.603 399.682 349.52C399.682 350.437 399.506 351.248 399.154 351.952C398.812 352.645 398.343 353.184 397.746 353.568C397.148 353.941 396.482 354.128 395.746 354.128C395.116 354.128 394.567 354.005 394.098 353.76C393.628 353.504 393.26 353.168 392.994 352.752V354H390.258V342.16H392.994V346.336ZM396.898 349.52C396.898 348.837 396.706 348.304 396.322 347.92C395.948 347.525 395.484 347.328 394.93 347.328C394.386 347.328 393.922 347.525 393.538 347.92C393.164 348.315 392.978 348.853 392.978 349.536C392.978 350.219 393.164 350.757 393.538 351.152C393.922 351.547 394.386 351.744 394.93 351.744C395.474 351.744 395.938 351.547 396.322 351.152C396.706 350.747 396.898 350.203 396.898 349.52ZM402.493 344.144C402.013 344.144 401.618 344.005 401.309 343.728C401.01 343.44 400.861 343.088 400.861 342.672C400.861 342.245 401.01 341.893 401.309 341.616C401.618 341.328 402.013 341.184 402.493 341.184C402.962 341.184 403.346 341.328 403.645 341.616C403.954 341.893 404.109 342.245 404.109 342.672C404.109 343.088 403.954 343.44 403.645 343.728C403.346 344.005 402.962 344.144 402.493 344.144ZM403.853 345.072V354H401.117V345.072H403.853ZM408.572 342.16V354H405.836V342.16H408.572ZM411.931 344.144C411.451 344.144 411.056 344.005 410.747 343.728C410.448 343.44 410.299 343.088 410.299 342.672C410.299 342.245 410.448 341.893 410.747 341.616C411.056 341.328 411.451 341.184 411.931 341.184C412.4 341.184 412.784 341.328 413.083 341.616C413.392 341.893 413.547 342.245 413.547 342.672C413.547 343.088 413.392 343.44 413.083 343.728C412.784 344.005 412.4 344.144 411.931 344.144ZM413.291 345.072V354H410.555V345.072H413.291ZM420.249 351.68V354H418.857C417.865 354 417.092 353.76 416.537 353.28C415.983 352.789 415.705 351.995 415.705 350.896V347.344H414.617V345.072H415.705V342.896H418.441V345.072H420.233V347.344H418.441V350.928C418.441 351.195 418.505 351.387 418.633 351.504C418.761 351.621 418.975 351.68 419.273 351.68H420.249ZM430.893 345.072L425.293 358.24H422.349L424.397 353.696L420.765 345.072H423.821L425.885 350.656L427.933 345.072H430.893Z" fill="#0F4634"/>
<circle cx="298.639" cy="473.128" r="16.3609" fill="#4DFA92"/>
<circle cx="297.361" cy="472.361" r="16.3609" fill="white"/>
<circle cx="504.336" cy="358.573" r="24.4275" fill="#4DFA92"/>
<circle cx="502.427" cy="357.427" r="24.4275" fill="white"/>
<circle cx="444.13" cy="46.1985" r="29.8015" fill="#4DFA92"/>
<circle cx="441.802" cy="44.8015" r="29.8015" fill="white"/>
<circle cx="90.0687" cy="50.458" r="19.542" fill="#4DFA92"/>
<circle cx="88.542" cy="49.542" r="19.542" fill="white"/>
<circle cx="128.827" cy="447.165" r="85.1729" fill="#4DFA92"/>
<circle cx="122.173" cy="443.173" r="85.1729" fill="white"/>
<path d="M80.7282 413.364V426H77.6502V413.364H80.7282ZM95.7748 415.848C97.0228 415.848 98.0128 416.226 98.7448 416.982C99.4888 417.738 99.8608 418.788 99.8608 420.132V426H96.8008V420.546C96.8008 419.898 96.6268 419.4 96.2788 419.052C95.9428 418.692 95.4748 418.512 94.8748 418.512C94.2748 418.512 93.8008 418.692 93.4528 419.052C93.1168 419.4 92.9488 419.898 92.9488 420.546V426H89.8888V420.546C89.8888 419.898 89.7148 419.4 89.3668 419.052C89.0308 418.692 88.5628 418.512 87.9628 418.512C87.3628 418.512 86.8888 418.692 86.5408 419.052C86.2048 419.4 86.0368 419.898 86.0368 420.546V426H82.9588V415.956H86.0368V417.216C86.3488 416.796 86.7568 416.466 87.2608 416.226C87.7648 415.974 88.3348 415.848 88.9708 415.848C89.7268 415.848 90.3988 416.01 90.9868 416.334C91.5868 416.658 92.0548 417.12 92.3908 417.72C92.7388 417.168 93.2128 416.718 93.8128 416.37C94.4128 416.022 95.0668 415.848 95.7748 415.848ZM105.091 417.378C105.391 416.91 105.805 416.532 106.333 416.244C106.861 415.956 107.479 415.812 108.187 415.812C109.015 415.812 109.765 416.022 110.437 416.442C111.109 416.862 111.637 417.462 112.021 418.242C112.417 419.022 112.615 419.928 112.615 420.96C112.615 421.992 112.417 422.904 112.021 423.696C111.637 424.476 111.109 425.082 110.437 425.514C109.765 425.934 109.015 426.144 108.187 426.144C107.491 426.144 106.873 426 106.333 425.712C105.805 425.424 105.391 425.052 105.091 424.596V430.788H102.013V415.956H105.091V417.378ZM109.483 420.96C109.483 420.192 109.267 419.592 108.835 419.16C108.415 418.716 107.893 418.494 107.269 418.494C106.657 418.494 106.135 418.716 105.703 419.16C105.283 419.604 105.073 420.21 105.073 420.978C105.073 421.746 105.283 422.352 105.703 422.796C106.135 423.24 106.657 423.462 107.269 423.462C107.881 423.462 108.403 423.24 108.835 422.796C109.267 422.34 109.483 421.728 109.483 420.96ZM113.618 420.96C113.618 419.928 113.81 419.022 114.194 418.242C114.59 417.462 115.124 416.862 115.796 416.442C116.468 416.022 117.218 415.812 118.046 415.812C118.754 415.812 119.372 415.956 119.9 416.244C120.44 416.532 120.854 416.91 121.142 417.378V415.956H124.22V426H121.142V424.578C120.842 425.046 120.422 425.424 119.882 425.712C119.354 426 118.736 426.144 118.028 426.144C117.212 426.144 116.468 425.934 115.796 425.514C115.124 425.082 114.59 424.476 114.194 423.696C113.81 422.904 113.618 421.992 113.618 420.96ZM121.142 420.978C121.142 420.21 120.926 419.604 120.494 419.16C120.074 418.716 119.558 418.494 118.946 418.494C118.334 418.494 117.812 418.716 117.38 419.16C116.96 419.592 116.75 420.192 116.75 420.96C116.75 421.728 116.96 422.34 117.38 422.796C117.812 423.24 118.334 423.462 118.946 423.462C119.558 423.462 120.074 423.24 120.494 422.796C120.926 422.352 121.142 421.746 121.142 420.978ZM125.835 420.978C125.835 419.934 126.045 419.022 126.465 418.242C126.897 417.462 127.491 416.862 128.247 416.442C129.015 416.022 129.891 415.812 130.875 415.812C132.135 415.812 133.185 416.142 134.025 416.802C134.877 417.462 135.435 418.392 135.699 419.592H132.423C132.147 418.824 131.613 418.44 130.821 418.44C130.257 418.44 129.807 418.662 129.471 419.106C129.135 419.538 128.967 420.162 128.967 420.978C128.967 421.794 129.135 422.424 129.471 422.868C129.807 423.3 130.257 423.516 130.821 423.516C131.613 423.516 132.147 423.132 132.423 422.364H135.699C135.435 423.54 134.877 424.464 134.025 425.136C133.173 425.808 132.123 426.144 130.875 426.144C129.891 426.144 129.015 425.934 128.247 425.514C127.491 425.094 126.897 424.494 126.465 423.714C126.045 422.934 125.835 422.022 125.835 420.978ZM142.943 423.39V426H141.377C140.261 426 139.391 425.73 138.767 425.19C138.143 424.638 137.831 423.744 137.831 422.508V418.512H136.607V415.956H137.831V413.508H140.909V415.956H142.925V418.512H140.909V422.544C140.909 422.844 140.981 423.06 141.125 423.192C141.269 423.324 141.509 423.39 141.845 423.39H142.943ZM149.698 418.512H148.042V426H144.964V418.512H143.848V415.956H144.964V415.668C144.964 414.432 145.318 413.496 146.026 412.86C146.734 412.212 147.772 411.888 149.14 411.888C149.368 411.888 149.536 411.894 149.644 411.906V414.516C149.056 414.48 148.642 414.564 148.402 414.768C148.162 414.972 148.042 415.338 148.042 415.866V415.956H149.698V418.512ZM161.062 415.956V426H157.984V424.632C157.672 425.076 157.246 425.436 156.706 425.712C156.178 425.976 155.59 426.108 154.942 426.108C154.174 426.108 153.496 425.94 152.908 425.604C152.32 425.256 151.864 424.758 151.54 424.11C151.216 423.462 151.054 422.7 151.054 421.824V415.956H154.114V421.41C154.114 422.082 154.288 422.604 154.636 422.976C154.984 423.348 155.452 423.534 156.04 423.534C156.64 423.534 157.114 423.348 157.462 422.976C157.81 422.604 157.984 422.082 157.984 421.41V415.956H161.062ZM166.351 412.68V426H163.273V412.68H166.351ZM80.1254 440.364C81.4574 440.364 82.6214 440.628 83.6174 441.156C84.6134 441.684 85.3814 442.428 85.9214 443.388C86.4734 444.336 86.7494 445.434 86.7494 446.682C86.7494 447.918 86.4734 449.016 85.9214 449.976C85.3814 450.936 84.6074 451.68 83.5994 452.208C82.6034 452.736 81.4454 453 80.1254 453H75.3914V440.364H80.1254ZM79.9274 450.336C81.0914 450.336 81.9974 450.018 82.6454 449.382C83.2934 448.746 83.6174 447.846 83.6174 446.682C83.6174 445.518 83.2934 444.612 82.6454 443.964C81.9974 443.316 81.0914 442.992 79.9274 442.992H78.4694V450.336H79.9274ZM90.0175 441.912C89.4775 441.912 89.0335 441.756 88.6855 441.444C88.3495 441.12 88.1815 440.724 88.1815 440.256C88.1815 439.776 88.3495 439.38 88.6855 439.068C89.0335 438.744 89.4775 438.582 90.0175 438.582C90.5455 438.582 90.9775 438.744 91.3135 439.068C91.6615 439.38 91.8355 439.776 91.8355 440.256C91.8355 440.724 91.6615 441.12 91.3135 441.444C90.9775 441.756 90.5455 441.912 90.0175 441.912ZM91.5475 442.956V453H88.4695V442.956H91.5475ZM97.8641 453.144C96.9881 453.144 96.2081 452.994 95.5241 452.694C94.8401 452.394 94.3001 451.986 93.9041 451.47C93.5081 450.942 93.2861 450.354 93.2381 449.706H96.2801C96.3161 450.054 96.4781 450.336 96.7661 450.552C97.0541 450.768 97.4081 450.876 97.8281 450.876C98.2121 450.876 98.5061 450.804 98.7101 450.66C98.9261 450.504 99.0341 450.306 99.0341 450.066C99.0341 449.778 98.8841 449.568 98.5841 449.436C98.2841 449.292 97.7981 449.136 97.1261 448.968C96.4061 448.8 95.8061 448.626 95.3261 448.446C94.8461 448.254 94.4321 447.96 94.0841 447.564C93.7361 447.156 93.5621 446.61 93.5621 445.926C93.5621 445.35 93.7181 444.828 94.0301 444.36C94.3541 443.88 94.8221 443.502 95.4341 443.226C96.0581 442.95 96.7961 442.812 97.6481 442.812C98.9081 442.812 99.8981 443.124 100.618 443.748C101.35 444.372 101.77 445.2 101.878 446.232H99.0341C98.9861 445.884 98.8301 445.608 98.5661 445.404C98.3141 445.2 97.9781 445.098 97.5581 445.098C97.1981 445.098 96.9221 445.17 96.7301 445.314C96.5381 445.446 96.4421 445.632 96.4421 445.872C96.4421 446.16 96.5921 446.376 96.8921 446.52C97.2041 446.664 97.6841 446.808 98.3321 446.952C99.0761 447.144 99.6821 447.336 100.15 447.528C100.618 447.708 101.026 448.008 101.374 448.428C101.734 448.836 101.92 449.388 101.932 450.084C101.932 450.672 101.764 451.2 101.428 451.668C101.104 452.124 100.63 452.484 100.006 452.748C99.3941 453.012 98.6801 453.144 97.8641 453.144ZM106.893 444.63C107.253 444.078 107.703 443.646 108.243 443.334C108.783 443.01 109.383 442.848 110.043 442.848V446.106H109.197C108.429 446.106 107.853 446.274 107.469 446.61C107.085 446.934 106.893 447.51 106.893 448.338V453H103.815V442.956H106.893V444.63ZM121.432 442.956V453H118.354V451.632C118.042 452.076 117.616 452.436 117.076 452.712C116.548 452.976 115.96 453.108 115.312 453.108C114.544 453.108 113.866 452.94 113.278 452.604C112.69 452.256 112.234 451.758 111.91 451.11C111.586 450.462 111.424 449.7 111.424 448.824V442.956H114.484V448.41C114.484 449.082 114.658 449.604 115.006 449.976C115.354 450.348 115.822 450.534 116.41 450.534C117.01 450.534 117.484 450.348 117.832 449.976C118.18 449.604 118.354 449.082 118.354 448.41V442.956H121.432ZM126.721 444.378C127.021 443.91 127.435 443.532 127.963 443.244C128.491 442.956 129.109 442.812 129.817 442.812C130.645 442.812 131.395 443.022 132.067 443.442C132.739 443.862 133.267 444.462 133.651 445.242C134.047 446.022 134.245 446.928 134.245 447.96C134.245 448.992 134.047 449.904 133.651 450.696C133.267 451.476 132.739 452.082 132.067 452.514C131.395 452.934 130.645 453.144 129.817 453.144C129.121 453.144 128.503 453 127.963 452.712C127.435 452.424 127.021 452.052 126.721 451.596V457.788H123.643V442.956H126.721V444.378ZM131.113 447.96C131.113 447.192 130.897 446.592 130.465 446.16C130.045 445.716 129.523 445.494 128.899 445.494C128.287 445.494 127.765 445.716 127.333 446.16C126.913 446.604 126.703 447.21 126.703 447.978C126.703 448.746 126.913 449.352 127.333 449.796C127.765 450.24 128.287 450.462 128.899 450.462C129.511 450.462 130.033 450.24 130.465 449.796C130.897 449.34 131.113 448.728 131.113 447.96ZM141.458 450.39V453H139.892C138.776 453 137.906 452.73 137.282 452.19C136.658 451.638 136.346 450.744 136.346 449.508V445.512H135.122V442.956H136.346V440.508H139.424V442.956H141.44V445.512H139.424V449.544C139.424 449.844 139.496 450.06 139.64 450.192C139.784 450.324 140.024 450.39 140.36 450.39H141.458ZM144.721 441.912C144.181 441.912 143.737 441.756 143.389 441.444C143.053 441.12 142.885 440.724 142.885 440.256C142.885 439.776 143.053 439.38 143.389 439.068C143.737 438.744 144.181 438.582 144.721 438.582C145.249 438.582 145.681 438.744 146.017 439.068C146.365 439.38 146.539 439.776 146.539 440.256C146.539 440.724 146.365 441.12 146.017 441.444C145.681 441.756 145.249 441.912 144.721 441.912ZM146.251 442.956V453H143.173V442.956H146.251ZM152.999 450.12L155.177 442.956H158.453L154.889 453H151.091L147.527 442.956H150.821L152.999 450.12ZM169.217 447.816C169.217 448.104 169.199 448.404 169.163 448.716H162.197C162.245 449.34 162.443 449.82 162.791 450.156C163.151 450.48 163.589 450.642 164.105 450.642C164.873 450.642 165.407 450.318 165.707 449.67H168.983C168.815 450.33 168.509 450.924 168.065 451.452C167.633 451.98 167.087 452.394 166.427 452.694C165.767 452.994 165.029 453.144 164.213 453.144C163.229 453.144 162.353 452.934 161.585 452.514C160.817 452.094 160.217 451.494 159.785 450.714C159.353 449.934 159.137 449.022 159.137 447.978C159.137 446.934 159.347 446.022 159.767 445.242C160.199 444.462 160.799 443.862 161.567 443.442C162.335 443.022 163.217 442.812 164.213 442.812C165.185 442.812 166.049 443.016 166.805 443.424C167.561 443.832 168.149 444.414 168.569 445.17C169.001 445.926 169.217 446.808 169.217 447.816ZM166.067 447.006C166.067 446.478 165.887 446.058 165.527 445.746C165.167 445.434 164.717 445.278 164.177 445.278C163.661 445.278 163.223 445.428 162.863 445.728C162.515 446.028 162.299 446.454 162.215 447.006H166.067ZM70.3222 467.364V469.83H66.9742V480H63.8962V469.83H60.5482V467.364H70.3222ZM81.335 474.816C81.335 475.104 81.317 475.404 81.281 475.716H74.315C74.363 476.34 74.561 476.82 74.909 477.156C75.269 477.48 75.707 477.642 76.223 477.642C76.991 477.642 77.525 477.318 77.825 476.67H81.101C80.933 477.33 80.627 477.924 80.183 478.452C79.751 478.98 79.205 479.394 78.545 479.694C77.885 479.994 77.147 480.144 76.331 480.144C75.347 480.144 74.471 479.934 73.703 479.514C72.935 479.094 72.335 478.494 71.903 477.714C71.471 476.934 71.255 476.022 71.255 474.978C71.255 473.934 71.465 473.022 71.885 472.242C72.317 471.462 72.917 470.862 73.685 470.442C74.453 470.022 75.335 469.812 76.331 469.812C77.303 469.812 78.167 470.016 78.923 470.424C79.679 470.832 80.267 471.414 80.687 472.17C81.119 472.926 81.335 473.808 81.335 474.816ZM78.185 474.006C78.185 473.478 78.005 473.058 77.645 472.746C77.285 472.434 76.835 472.278 76.295 472.278C75.779 472.278 75.341 472.428 74.981 472.728C74.633 473.028 74.417 473.454 74.333 474.006H78.185ZM82.3468 474.978C82.3468 473.934 82.5568 473.022 82.9768 472.242C83.4088 471.462 84.0028 470.862 84.7588 470.442C85.5268 470.022 86.4028 469.812 87.3868 469.812C88.6468 469.812 89.6968 470.142 90.5368 470.802C91.3888 471.462 91.9468 472.392 92.2108 473.592H88.9348C88.6588 472.824 88.1248 472.44 87.3328 472.44C86.7688 472.44 86.3188 472.662 85.9828 473.106C85.6468 473.538 85.4788 474.162 85.4788 474.978C85.4788 475.794 85.6468 476.424 85.9828 476.868C86.3188 477.3 86.7688 477.516 87.3328 477.516C88.1248 477.516 88.6588 477.132 88.9348 476.364H92.2108C91.9468 477.54 91.3888 478.464 90.5368 479.136C89.6848 479.808 88.6348 480.144 87.3868 480.144C86.4028 480.144 85.5268 479.934 84.7588 479.514C84.0028 479.094 83.4088 478.494 82.9768 477.714C82.5568 476.934 82.3468 476.022 82.3468 474.978ZM100.031 469.848C101.183 469.848 102.107 470.232 102.803 471C103.499 471.756 103.847 472.8 103.847 474.132V480H100.787V474.546C100.787 473.874 100.613 473.352 100.265 472.98C99.9172 472.608 99.4492 472.422 98.8612 472.422C98.2732 472.422 97.8052 472.608 97.4572 472.98C97.1092 473.352 96.9352 473.874 96.9352 474.546V480H93.8572V466.68H96.9352V471.306C97.2472 470.862 97.6732 470.508 98.2132 470.244C98.7532 469.98 99.3592 469.848 100.031 469.848ZM112.106 469.848C113.282 469.848 114.218 470.232 114.914 471C115.622 471.756 115.976 472.8 115.976 474.132V480H112.916V474.546C112.916 473.874 112.742 473.352 112.394 472.98C112.046 472.608 111.578 472.422 110.99 472.422C110.402 472.422 109.934 472.608 109.586 472.98C109.238 473.352 109.064 473.874 109.064 474.546V480H105.986V469.956H109.064V471.288C109.376 470.844 109.796 470.496 110.324 470.244C110.852 469.98 111.446 469.848 112.106 469.848ZM122.687 480.144C121.703 480.144 120.815 479.934 120.023 479.514C119.243 479.094 118.625 478.494 118.169 477.714C117.725 476.934 117.503 476.022 117.503 474.978C117.503 473.946 117.731 473.04 118.187 472.26C118.643 471.468 119.267 470.862 120.059 470.442C120.851 470.022 121.739 469.812 122.723 469.812C123.707 469.812 124.595 470.022 125.387 470.442C126.179 470.862 126.803 471.468 127.259 472.26C127.715 473.04 127.943 473.946 127.943 474.978C127.943 476.01 127.709 476.922 127.241 477.714C126.785 478.494 126.155 479.094 125.351 479.514C124.559 479.934 123.671 480.144 122.687 480.144ZM122.687 477.48C123.275 477.48 123.773 477.264 124.181 476.832C124.601 476.4 124.811 475.782 124.811 474.978C124.811 474.174 124.607 473.556 124.199 473.124C123.803 472.692 123.311 472.476 122.723 472.476C122.123 472.476 121.625 472.692 121.229 473.124C120.833 473.544 120.635 474.162 120.635 474.978C120.635 475.782 120.827 476.4 121.211 476.832C121.607 477.264 122.099 477.48 122.687 477.48ZM132.654 466.68V480H129.576V466.68H132.654ZM139.457 480.144C138.473 480.144 137.585 479.934 136.793 479.514C136.013 479.094 135.395 478.494 134.939 477.714C134.495 476.934 134.273 476.022 134.273 474.978C134.273 473.946 134.501 473.04 134.957 472.26C135.413 471.468 136.037 470.862 136.829 470.442C137.621 470.022 138.509 469.812 139.493 469.812C140.477 469.812 141.365 470.022 142.157 470.442C142.949 470.862 143.573 471.468 144.029 472.26C144.485 473.04 144.713 473.946 144.713 474.978C144.713 476.01 144.479 476.922 144.011 477.714C143.555 478.494 142.925 479.094 142.121 479.514C141.329 479.934 140.441 480.144 139.457 480.144ZM139.457 477.48C140.045 477.48 140.543 477.264 140.951 476.832C141.371 476.4 141.581 475.782 141.581 474.978C141.581 474.174 141.377 473.556 140.969 473.124C140.573 472.692 140.081 472.476 139.493 472.476C138.893 472.476 138.395 472.692 137.999 473.124C137.603 473.544 137.405 474.162 137.405 474.978C137.405 475.782 137.597 476.4 137.981 476.832C138.377 477.264 138.869 477.48 139.457 477.48ZM150.161 469.812C150.869 469.812 151.487 469.956 152.015 470.244C152.555 470.532 152.969 470.91 153.257 471.378V469.956H156.335V479.982C156.335 480.906 156.149 481.74 155.777 482.484C155.417 483.24 154.859 483.84 154.103 484.284C153.359 484.728 152.429 484.95 151.313 484.95C149.825 484.95 148.619 484.596 147.695 483.888C146.771 483.192 146.243 482.244 146.111 481.044H149.153C149.249 481.428 149.477 481.728 149.837 481.944C150.197 482.172 150.641 482.286 151.169 482.286C151.805 482.286 152.309 482.1 152.681 481.728C153.065 481.368 153.257 480.786 153.257 479.982V478.56C152.957 479.028 152.543 479.412 152.015 479.712C151.487 480 150.869 480.144 150.161 480.144C149.333 480.144 148.583 479.934 147.911 479.514C147.239 479.082 146.705 478.476 146.309 477.696C145.925 476.904 145.733 475.992 145.733 474.96C145.733 473.928 145.925 473.022 146.309 472.242C146.705 471.462 147.239 470.862 147.911 470.442C148.583 470.022 149.333 469.812 150.161 469.812ZM153.257 474.978C153.257 474.21 153.041 473.604 152.609 473.16C152.189 472.716 151.673 472.494 151.061 472.494C150.449 472.494 149.927 472.716 149.495 473.16C149.075 473.592 148.865 474.192 148.865 474.96C148.865 475.728 149.075 476.34 149.495 476.796C149.927 477.24 150.449 477.462 151.061 477.462C151.673 477.462 152.189 477.24 152.609 476.796C153.041 476.352 153.257 475.746 153.257 474.978ZM160.11 468.912C159.57 468.912 159.126 468.756 158.778 468.444C158.442 468.12 158.274 467.724 158.274 467.256C158.274 466.776 158.442 466.38 158.778 466.068C159.126 465.744 159.57 465.582 160.11 465.582C160.638 465.582 161.07 465.744 161.406 466.068C161.754 466.38 161.928 466.776 161.928 467.256C161.928 467.724 161.754 468.12 161.406 468.444C161.07 468.756 160.638 468.912 160.11 468.912ZM161.64 469.956V480H158.562V469.956H161.64ZM173.339 474.816C173.339 475.104 173.321 475.404 173.285 475.716H166.319C166.367 476.34 166.565 476.82 166.913 477.156C167.273 477.48 167.711 477.642 168.227 477.642C168.995 477.642 169.529 477.318 169.829 476.67H173.105C172.937 477.33 172.631 477.924 172.187 478.452C171.755 478.98 171.209 479.394 170.549 479.694C169.889 479.994 169.151 480.144 168.335 480.144C167.351 480.144 166.475 479.934 165.707 479.514C164.939 479.094 164.339 478.494 163.907 477.714C163.475 476.934 163.259 476.022 163.259 474.978C163.259 473.934 163.469 473.022 163.889 472.242C164.321 471.462 164.921 470.862 165.689 470.442C166.457 470.022 167.339 469.812 168.335 469.812C169.307 469.812 170.171 470.016 170.927 470.424C171.683 470.832 172.271 471.414 172.691 472.17C173.123 472.926 173.339 473.808 173.339 474.816ZM170.189 474.006C170.189 473.478 170.009 473.058 169.649 472.746C169.289 472.434 168.839 472.278 168.299 472.278C167.783 472.278 167.345 472.428 166.985 472.728C166.637 473.028 166.421 473.454 166.337 474.006H170.189ZM179.049 480.144C178.173 480.144 177.393 479.994 176.709 479.694C176.025 479.394 175.485 478.986 175.089 478.47C174.693 477.942 174.471 477.354 174.423 476.706H177.465C177.501 477.054 177.663 477.336 177.951 477.552C178.239 477.768 178.593 477.876 179.013 477.876C179.397 477.876 179.691 477.804 179.895 477.66C180.111 477.504 180.219 477.306 180.219 477.066C180.219 476.778 180.069 476.568 179.769 476.436C179.469 476.292 178.983 476.136 178.311 475.968C177.591 475.8 176.991 475.626 176.511 475.446C176.031 475.254 175.617 474.96 175.269 474.564C174.921 474.156 174.747 473.61 174.747 472.926C174.747 472.35 174.903 471.828 175.215 471.36C175.539 470.88 176.007 470.502 176.619 470.226C177.243 469.95 177.981 469.812 178.833 469.812C180.093 469.812 181.083 470.124 181.803 470.748C182.535 471.372 182.955 472.2 183.063 473.232H180.219C180.171 472.884 180.015 472.608 179.751 472.404C179.499 472.2 179.163 472.098 178.743 472.098C178.383 472.098 178.107 472.17 177.915 472.314C177.723 472.446 177.627 472.632 177.627 472.872C177.627 473.16 177.777 473.376 178.077 473.52C178.389 473.664 178.869 473.808 179.517 473.952C180.261 474.144 180.867 474.336 181.335 474.528C181.803 474.708 182.211 475.008 182.559 475.428C182.919 475.836 183.105 476.388 183.117 477.084C183.117 477.672 182.949 478.2 182.613 478.668C182.289 479.124 181.815 479.484 181.191 479.748C180.579 480.012 179.865 480.144 179.049 480.144Z" fill="#0F4634"/>
<circle cx="565" cy="206" r="25" fill="#4DFA92"/>
<circle cx="569" cy="203" r="25" fill="white"/>
<g clip-path="url(#clip0_5_185)">
<path d="M572.8 201.12H565.2C564.192 201.12 563.226 200.723 562.513 200.018C561.8 199.313 561.4 198.357 561.4 197.359C561.4 196.362 561.8 195.405 562.513 194.7C563.226 193.995 564.192 193.599 565.2 193.599H574.7C575.204 193.599 575.687 193.797 576.044 194.149C576.4 194.502 576.6 194.98 576.6 195.479C576.6 195.978 576.8 196.456 577.156 196.809C577.513 197.161 577.996 197.359 578.5 197.359C579.004 197.359 579.487 197.161 579.844 196.809C580.2 196.456 580.4 195.978 580.4 195.479C580.4 193.983 579.799 192.548 578.731 191.49C577.662 190.433 576.212 189.838 574.7 189.838H570.9V186.078C570.9 185.579 570.7 185.101 570.344 184.748C569.987 184.396 569.504 184.198 569 184.198C568.496 184.198 568.013 184.396 567.656 184.748C567.3 185.101 567.1 185.579 567.1 186.078V189.838H565.2C563.184 189.838 561.251 190.631 559.826 192.041C558.401 193.452 557.6 195.365 557.6 197.359C557.6 199.354 558.401 201.267 559.826 202.677C561.251 204.088 563.184 204.88 565.2 204.88H572.8C573.808 204.88 574.774 205.276 575.487 205.981C576.2 206.687 576.6 207.643 576.6 208.64C576.6 209.638 576.2 210.594 575.487 211.299C574.774 212.005 573.808 212.401 572.8 212.401H563.3C562.796 212.401 562.313 212.203 561.956 211.85C561.6 211.498 561.4 211.019 561.4 210.521C561.4 210.022 561.2 209.544 560.844 209.191C560.487 208.839 560.004 208.64 559.5 208.64C558.996 208.64 558.513 208.839 558.156 209.191C557.8 209.544 557.6 210.022 557.6 210.521C557.6 212.017 558.201 213.451 559.269 214.509C560.338 215.567 561.788 216.161 563.3 216.161H567.1V219.922C567.1 220.42 567.3 220.899 567.656 221.251C568.013 221.604 568.496 221.802 569 221.802C569.504 221.802 569.987 221.604 570.344 221.251C570.7 220.899 570.9 220.42 570.9 219.922V216.161H572.8C574.816 216.161 576.749 215.369 578.174 213.958C579.599 212.548 580.4 210.635 580.4 208.64C580.4 206.646 579.599 204.733 578.174 203.322C576.749 201.912 574.816 201.12 572.8 201.12V201.12Z" fill="#0F4634"/>
</g>
<defs>
<clipPath id="clip0_5_185">
<rect width="24" height="38" fill="white" transform="translate(557 184)"/>
</clipPath>
</defs>
</svg>
